<?xml version="1.0" encoding="utf-8" standalone="no"?>
<!DOCTYPE svg PUBLIC "-//W3C//DTD SVG 1.1//EN"
  "http://www.w3.org/Graphics/SVG/1.1/DTD/svg11.dtd">
<svg height="331.674375pt" version="1.1" viewBox="0 0 605.803125 331.674375" width="605.803125pt" xmlns="http://www.w3.org/2000/svg" xmlns:xlink="http://www.w3.org/1999/xlink">
 <metadata>
  <rdf:RDF xmlns:cc="http://creativecommons.org/ns#" xmlns:dc="http://purl.org/dc/elements/1.1/" xmlns:rdf="http://www.w3.org/1999/02/22-rdf-syntax-ns#">
   <cc:Work>
    <dc:type rdf:resource="http://purl.org/dc/dcmitype/StillImage"/>
    <dc:date>2022-04-19T10:15:27.434617</dc:date>
    <dc:format>image/svg+xml</dc:format>
    <dc:creator>
     <cc:Agent>
      <dc:title>Matplotlib v3.4.3, https://matplotlib.org/</dc:title>
     </cc:Agent>
    </dc:creator>
   </cc:Work>
  </rdf:RDF>
 </metadata>
 <defs>
  <style type="text/css">*{stroke-linecap:butt;stroke-linejoin:round;}</style>
 </defs>
 <g id="figure_1">
  <g id="patch_1">
   <path d="M 0 331.674375 
L 605.803125 331.674375 
L 605.803125 0 
L 0 0 
z
" style="fill:#ffffff;"/>
  </g>
  <g id="axes_1">
   <g id="patch_2">
    <path d="M 40.603125 294.118125 
L 598.603125 294.118125 
L 598.603125 22.318125 
L 40.603125 22.318125 
z
" style="fill:#ffffff;"/>
   </g>
   <g id="matplotlib.axis_1">
    <g id="xtick_1">
     <g id="line2d_1">
      <defs>
       <path d="M 0 0 
L 0 3.5 
" id="mceee9b6bca" style="stroke:#000000;stroke-width:0.8;"/>
      </defs>
      <g>
       <use style="stroke:#000000;stroke-width:0.8;" x="65.966761" xlink:href="#mceee9b6bca" y="294.118125"/>
      </g>
     </g>
     <g id="text_1">
      <!-- 0 -->
      <g transform="translate(62.785511 308.716563)scale(0.1 -0.1)">
       <defs>
        <path d="M 2034 4250 
Q 1547 4250 1301 3770 
Q 1056 3291 1056 2328 
Q 1056 1369 1301 889 
Q 1547 409 2034 409 
Q 2525 409 2770 889 
Q 3016 1369 3016 2328 
Q 3016 3291 2770 3770 
Q 2525 4250 2034 4250 
z
M 2034 4750 
Q 2819 4750 3233 4129 
Q 3647 3509 3647 2328 
Q 3647 1150 3233 529 
Q 2819 -91 2034 -91 
Q 1250 -91 836 529 
Q 422 1150 422 2328 
Q 422 3509 836 4129 
Q 1250 4750 2034 4750 
z
" id="DejaVuSans-30" transform="scale(0.015625)"/>
       </defs>
       <use xlink:href="#DejaVuSans-30"/>
      </g>
     </g>
    </g>
    <g id="xtick_2">
     <g id="line2d_2">
      <g>
       <use style="stroke:#000000;stroke-width:0.8;" x="136.421307" xlink:href="#mceee9b6bca" y="294.118125"/>
      </g>
     </g>
     <g id="text_2">
      <!-- 10 -->
      <g transform="translate(130.058807 308.716563)scale(0.1 -0.1)">
       <defs>
        <path d="M 794 531 
L 1825 531 
L 1825 4091 
L 703 3866 
L 703 4441 
L 1819 4666 
L 2450 4666 
L 2450 531 
L 3481 531 
L 3481 0 
L 794 0 
L 794 531 
z
" id="DejaVuSans-31" transform="scale(0.015625)"/>
       </defs>
       <use xlink:href="#DejaVuSans-31"/>
       <use x="63.623047" xlink:href="#DejaVuSans-30"/>
      </g>
     </g>
    </g>
    <g id="xtick_3">
     <g id="line2d_3">
      <g>
       <use style="stroke:#000000;stroke-width:0.8;" x="206.875852" xlink:href="#mceee9b6bca" y="294.118125"/>
      </g>
     </g>
     <g id="text_3">
      <!-- 20 -->
      <g transform="translate(200.513352 308.716563)scale(0.1 -0.1)">
       <defs>
        <path d="M 1228 531 
L 3431 531 
L 3431 0 
L 469 0 
L 469 531 
Q 828 903 1448 1529 
Q 2069 2156 2228 2338 
Q 2531 2678 2651 2914 
Q 2772 3150 2772 3378 
Q 2772 3750 2511 3984 
Q 2250 4219 1831 4219 
Q 1534 4219 1204 4116 
Q 875 4013 500 3803 
L 500 4441 
Q 881 4594 1212 4672 
Q 1544 4750 1819 4750 
Q 2544 4750 2975 4387 
Q 3406 4025 3406 3419 
Q 3406 3131 3298 2873 
Q 3191 2616 2906 2266 
Q 2828 2175 2409 1742 
Q 1991 1309 1228 531 
z
" id="DejaVuSans-32" transform="scale(0.015625)"/>
       </defs>
       <use xlink:href="#DejaVuSans-32"/>
       <use x="63.623047" xlink:href="#DejaVuSans-30"/>
      </g>
     </g>
    </g>
    <g id="xtick_4">
     <g id="line2d_4">
      <g>
       <use style="stroke:#000000;stroke-width:0.8;" x="277.330398" xlink:href="#mceee9b6bca" y="294.118125"/>
      </g>
     </g>
     <g id="text_4">
      <!-- 30 -->
      <g transform="translate(270.967898 308.716563)scale(0.1 -0.1)">
       <defs>
        <path d="M 2597 2516 
Q 3050 2419 3304 2112 
Q 3559 1806 3559 1356 
Q 3559 666 3084 287 
Q 2609 -91 1734 -91 
Q 1441 -91 1130 -33 
Q 819 25 488 141 
L 488 750 
Q 750 597 1062 519 
Q 1375 441 1716 441 
Q 2309 441 2620 675 
Q 2931 909 2931 1356 
Q 2931 1769 2642 2001 
Q 2353 2234 1838 2234 
L 1294 2234 
L 1294 2753 
L 1863 2753 
Q 2328 2753 2575 2939 
Q 2822 3125 2822 3475 
Q 2822 3834 2567 4026 
Q 2313 4219 1838 4219 
Q 1578 4219 1281 4162 
Q 984 4106 628 3988 
L 628 4550 
Q 988 4650 1302 4700 
Q 1616 4750 1894 4750 
Q 2613 4750 3031 4423 
Q 3450 4097 3450 3541 
Q 3450 3153 3228 2886 
Q 3006 2619 2597 2516 
z
" id="DejaVuSans-33" transform="scale(0.015625)"/>
       </defs>
       <use xlink:href="#DejaVuSans-33"/>
       <use x="63.623047" xlink:href="#DejaVuSans-30"/>
      </g>
     </g>
    </g>
    <g id="xtick_5">
     <g id="line2d_5">
      <g>
       <use style="stroke:#000000;stroke-width:0.8;" x="347.784943" xlink:href="#mceee9b6bca" y="294.118125"/>
      </g>
     </g>
     <g id="text_5">
      <!-- 40 -->
      <g transform="translate(341.422443 308.716563)scale(0.1 -0.1)">
       <defs>
        <path d="M 2419 4116 
L 825 1625 
L 2419 1625 
L 2419 4116 
z
M 2253 4666 
L 3047 4666 
L 3047 1625 
L 3713 1625 
L 3713 1100 
L 3047 1100 
L 3047 0 
L 2419 0 
L 2419 1100 
L 313 1100 
L 313 1709 
L 2253 4666 
z
" id="DejaVuSans-34" transform="scale(0.015625)"/>
       </defs>
       <use xlink:href="#DejaVuSans-34"/>
       <use x="63.623047" xlink:href="#DejaVuSans-30"/>
      </g>
     </g>
    </g>
    <g id="xtick_6">
     <g id="line2d_6">
      <g>
       <use style="stroke:#000000;stroke-width:0.8;" x="418.239489" xlink:href="#mceee9b6bca" y="294.118125"/>
      </g>
     </g>
     <g id="text_6">
      <!-- 50 -->
      <g transform="translate(411.876989 308.716563)scale(0.1 -0.1)">
       <defs>
        <path d="M 691 4666 
L 3169 4666 
L 3169 4134 
L 1269 4134 
L 1269 2991 
Q 1406 3038 1543 3061 
Q 1681 3084 1819 3084 
Q 2600 3084 3056 2656 
Q 3513 2228 3513 1497 
Q 3513 744 3044 326 
Q 2575 -91 1722 -91 
Q 1428 -91 1123 -41 
Q 819 9 494 109 
L 494 744 
Q 775 591 1075 516 
Q 1375 441 1709 441 
Q 2250 441 2565 725 
Q 2881 1009 2881 1497 
Q 2881 1984 2565 2268 
Q 2250 2553 1709 2553 
Q 1456 2553 1204 2497 
Q 953 2441 691 2322 
L 691 4666 
z
" id="DejaVuSans-35" transform="scale(0.015625)"/>
       </defs>
       <use xlink:href="#DejaVuSans-35"/>
       <use x="63.623047" xlink:href="#DejaVuSans-30"/>
      </g>
     </g>
    </g>
    <g id="xtick_7">
     <g id="line2d_7">
      <g>
       <use style="stroke:#000000;stroke-width:0.8;" x="488.694034" xlink:href="#mceee9b6bca" y="294.118125"/>
      </g>
     </g>
     <g id="text_7">
      <!-- 60 -->
      <g transform="translate(482.331534 308.716563)scale(0.1 -0.1)">
       <defs>
        <path d="M 2113 2584 
Q 1688 2584 1439 2293 
Q 1191 2003 1191 1497 
Q 1191 994 1439 701 
Q 1688 409 2113 409 
Q 2538 409 2786 701 
Q 3034 994 3034 1497 
Q 3034 2003 2786 2293 
Q 2538 2584 2113 2584 
z
M 3366 4563 
L 3366 3988 
Q 3128 4100 2886 4159 
Q 2644 4219 2406 4219 
Q 1781 4219 1451 3797 
Q 1122 3375 1075 2522 
Q 1259 2794 1537 2939 
Q 1816 3084 2150 3084 
Q 2853 3084 3261 2657 
Q 3669 2231 3669 1497 
Q 3669 778 3244 343 
Q 2819 -91 2113 -91 
Q 1303 -91 875 529 
Q 447 1150 447 2328 
Q 447 3434 972 4092 
Q 1497 4750 2381 4750 
Q 2619 4750 2861 4703 
Q 3103 4656 3366 4563 
z
" id="DejaVuSans-36" transform="scale(0.015625)"/>
       </defs>
       <use xlink:href="#DejaVuSans-36"/>
       <use x="63.623047" xlink:href="#DejaVuSans-30"/>
      </g>
     </g>
    </g>
    <g id="xtick_8">
     <g id="line2d_8">
      <g>
       <use style="stroke:#000000;stroke-width:0.8;" x="559.14858" xlink:href="#mceee9b6bca" y="294.118125"/>
      </g>
     </g>
     <g id="text_8">
      <!-- 70 -->
      <g transform="translate(552.78608 308.716563)scale(0.1 -0.1)">
       <defs>
        <path d="M 525 4666 
L 3525 4666 
L 3525 4397 
L 1831 0 
L 1172 0 
L 2766 4134 
L 525 4134 
L 525 4666 
z
" id="DejaVuSans-37" transform="scale(0.015625)"/>
       </defs>
       <use xlink:href="#DejaVuSans-37"/>
       <use x="63.623047" xlink:href="#DejaVuSans-30"/>
      </g>
     </g>
    </g>
    <g id="text_9">
     <!-- Age (Month) -->
     <g transform="translate(288.770312 322.394687)scale(0.1 -0.1)">
      <defs>
       <path d="M 2188 4044 
L 1331 1722 
L 3047 1722 
L 2188 4044 
z
M 1831 4666 
L 2547 4666 
L 4325 0 
L 3669 0 
L 3244 1197 
L 1141 1197 
L 716 0 
L 50 0 
L 1831 4666 
z
" id="DejaVuSans-41" transform="scale(0.015625)"/>
       <path d="M 2906 1791 
Q 2906 2416 2648 2759 
Q 2391 3103 1925 3103 
Q 1463 3103 1205 2759 
Q 947 2416 947 1791 
Q 947 1169 1205 825 
Q 1463 481 1925 481 
Q 2391 481 2648 825 
Q 2906 1169 2906 1791 
z
M 3481 434 
Q 3481 -459 3084 -895 
Q 2688 -1331 1869 -1331 
Q 1566 -1331 1297 -1286 
Q 1028 -1241 775 -1147 
L 775 -588 
Q 1028 -725 1275 -790 
Q 1522 -856 1778 -856 
Q 2344 -856 2625 -561 
Q 2906 -266 2906 331 
L 2906 616 
Q 2728 306 2450 153 
Q 2172 0 1784 0 
Q 1141 0 747 490 
Q 353 981 353 1791 
Q 353 2603 747 3093 
Q 1141 3584 1784 3584 
Q 2172 3584 2450 3431 
Q 2728 3278 2906 2969 
L 2906 3500 
L 3481 3500 
L 3481 434 
z
" id="DejaVuSans-67" transform="scale(0.015625)"/>
       <path d="M 3597 1894 
L 3597 1613 
L 953 1613 
Q 991 1019 1311 708 
Q 1631 397 2203 397 
Q 2534 397 2845 478 
Q 3156 559 3463 722 
L 3463 178 
Q 3153 47 2828 -22 
Q 2503 -91 2169 -91 
Q 1331 -91 842 396 
Q 353 884 353 1716 
Q 353 2575 817 3079 
Q 1281 3584 2069 3584 
Q 2775 3584 3186 3129 
Q 3597 2675 3597 1894 
z
M 3022 2063 
Q 3016 2534 2758 2815 
Q 2500 3097 2075 3097 
Q 1594 3097 1305 2825 
Q 1016 2553 972 2059 
L 3022 2063 
z
" id="DejaVuSans-65" transform="scale(0.015625)"/>
       <path id="DejaVuSans-20" transform="scale(0.015625)"/>
       <path d="M 1984 4856 
Q 1566 4138 1362 3434 
Q 1159 2731 1159 2009 
Q 1159 1288 1364 580 
Q 1569 -128 1984 -844 
L 1484 -844 
Q 1016 -109 783 600 
Q 550 1309 550 2009 
Q 550 2706 781 3412 
Q 1013 4119 1484 4856 
L 1984 4856 
z
" id="DejaVuSans-28" transform="scale(0.015625)"/>
       <path d="M 628 4666 
L 1569 4666 
L 2759 1491 
L 3956 4666 
L 4897 4666 
L 4897 0 
L 4281 0 
L 4281 4097 
L 3078 897 
L 2444 897 
L 1241 4097 
L 1241 0 
L 628 0 
L 628 4666 
z
" id="DejaVuSans-4d" transform="scale(0.015625)"/>
       <path d="M 1959 3097 
Q 1497 3097 1228 2736 
Q 959 2375 959 1747 
Q 959 1119 1226 758 
Q 1494 397 1959 397 
Q 2419 397 2687 759 
Q 2956 1122 2956 1747 
Q 2956 2369 2687 2733 
Q 2419 3097 1959 3097 
z
M 1959 3584 
Q 2709 3584 3137 3096 
Q 3566 2609 3566 1747 
Q 3566 888 3137 398 
Q 2709 -91 1959 -91 
Q 1206 -91 779 398 
Q 353 888 353 1747 
Q 353 2609 779 3096 
Q 1206 3584 1959 3584 
z
" id="DejaVuSans-6f" transform="scale(0.015625)"/>
       <path d="M 3513 2113 
L 3513 0 
L 2938 0 
L 2938 2094 
Q 2938 2591 2744 2837 
Q 2550 3084 2163 3084 
Q 1697 3084 1428 2787 
Q 1159 2491 1159 1978 
L 1159 0 
L 581 0 
L 581 3500 
L 1159 3500 
L 1159 2956 
Q 1366 3272 1645 3428 
Q 1925 3584 2291 3584 
Q 2894 3584 3203 3211 
Q 3513 2838 3513 2113 
z
" id="DejaVuSans-6e" transform="scale(0.015625)"/>
       <path d="M 1172 4494 
L 1172 3500 
L 2356 3500 
L 2356 3053 
L 1172 3053 
L 1172 1153 
Q 1172 725 1289 603 
Q 1406 481 1766 481 
L 2356 481 
L 2356 0 
L 1766 0 
Q 1100 0 847 248 
Q 594 497 594 1153 
L 594 3053 
L 172 3053 
L 172 3500 
L 594 3500 
L 594 4494 
L 1172 4494 
z
" id="DejaVuSans-74" transform="scale(0.015625)"/>
       <path d="M 3513 2113 
L 3513 0 
L 2938 0 
L 2938 2094 
Q 2938 2591 2744 2837 
Q 2550 3084 2163 3084 
Q 1697 3084 1428 2787 
Q 1159 2491 1159 1978 
L 1159 0 
L 581 0 
L 581 4863 
L 1159 4863 
L 1159 2956 
Q 1366 3272 1645 3428 
Q 1925 3584 2291 3584 
Q 2894 3584 3203 3211 
Q 3513 2838 3513 2113 
z
" id="DejaVuSans-68" transform="scale(0.015625)"/>
       <path d="M 513 4856 
L 1013 4856 
Q 1481 4119 1714 3412 
Q 1947 2706 1947 2009 
Q 1947 1309 1714 600 
Q 1481 -109 1013 -844 
L 513 -844 
Q 928 -128 1133 580 
Q 1338 1288 1338 2009 
Q 1338 2731 1133 3434 
Q 928 4138 513 4856 
z
" id="DejaVuSans-29" transform="scale(0.015625)"/>
      </defs>
      <use xlink:href="#DejaVuSans-41"/>
      <use x="68.408203" xlink:href="#DejaVuSans-67"/>
      <use x="131.884766" xlink:href="#DejaVuSans-65"/>
      <use x="193.408203" xlink:href="#DejaVuSans-20"/>
      <use x="225.195312" xlink:href="#DejaVuSans-28"/>
      <use x="264.208984" xlink:href="#DejaVuSans-4d"/>
      <use x="350.488281" xlink:href="#DejaVuSans-6f"/>
      <use x="411.669922" xlink:href="#DejaVuSans-6e"/>
      <use x="475.048828" xlink:href="#DejaVuSans-74"/>
      <use x="514.257812" xlink:href="#DejaVuSans-68"/>
      <use x="577.636719" xlink:href="#DejaVuSans-29"/>
     </g>
    </g>
   </g>
   <g id="matplotlib.axis_2">
    <g id="ytick_1">
     <g id="line2d_9">
      <defs>
       <path d="M 0 0 
L -3.5 0 
" id="m736b3bb579" style="stroke:#000000;stroke-width:0.8;"/>
      </defs>
      <g>
       <use style="stroke:#000000;stroke-width:0.8;" x="40.603125" xlink:href="#m736b3bb579" y="294.118125"/>
      </g>
     </g>
     <g id="text_10">
      <!-- 0 -->
      <g transform="translate(27.240625 297.917344)scale(0.1 -0.1)">
       <use xlink:href="#DejaVuSans-30"/>
      </g>
     </g>
    </g>
    <g id="ytick_2">
     <g id="line2d_10">
      <g>
       <use style="stroke:#000000;stroke-width:0.8;" x="40.603125" xlink:href="#m736b3bb579" y="260.057975"/>
      </g>
     </g>
     <g id="text_11">
      <!-- 10 -->
      <g transform="translate(20.878125 263.857193)scale(0.1 -0.1)">
       <use xlink:href="#DejaVuSans-31"/>
       <use x="63.623047" xlink:href="#DejaVuSans-30"/>
      </g>
     </g>
    </g>
    <g id="ytick_3">
     <g id="line2d_11">
      <g>
       <use style="stroke:#000000;stroke-width:0.8;" x="40.603125" xlink:href="#m736b3bb579" y="225.997824"/>
      </g>
     </g>
     <g id="text_12">
      <!-- 20 -->
      <g transform="translate(20.878125 229.797043)scale(0.1 -0.1)">
       <use xlink:href="#DejaVuSans-32"/>
       <use x="63.623047" xlink:href="#DejaVuSans-30"/>
      </g>
     </g>
    </g>
    <g id="ytick_4">
     <g id="line2d_12">
      <g>
       <use style="stroke:#000000;stroke-width:0.8;" x="40.603125" xlink:href="#m736b3bb579" y="191.937674"/>
      </g>
     </g>
     <g id="text_13">
      <!-- 30 -->
      <g transform="translate(20.878125 195.736893)scale(0.1 -0.1)">
       <use xlink:href="#DejaVuSans-33"/>
       <use x="63.623047" xlink:href="#DejaVuSans-30"/>
      </g>
     </g>
    </g>
    <g id="ytick_5">
     <g id="line2d_13">
      <g>
       <use style="stroke:#000000;stroke-width:0.8;" x="40.603125" xlink:href="#m736b3bb579" y="157.877523"/>
      </g>
     </g>
     <g id="text_14">
      <!-- 40 -->
      <g transform="translate(20.878125 161.676742)scale(0.1 -0.1)">
       <use xlink:href="#DejaVuSans-34"/>
       <use x="63.623047" xlink:href="#DejaVuSans-30"/>
      </g>
     </g>
    </g>
    <g id="ytick_6">
     <g id="line2d_14">
      <g>
       <use style="stroke:#000000;stroke-width:0.8;" x="40.603125" xlink:href="#m736b3bb579" y="123.817373"/>
      </g>
     </g>
     <g id="text_15">
      <!-- 50 -->
      <g transform="translate(20.878125 127.616592)scale(0.1 -0.1)">
       <use xlink:href="#DejaVuSans-35"/>
       <use x="63.623047" xlink:href="#DejaVuSans-30"/>
      </g>
     </g>
    </g>
    <g id="ytick_7">
     <g id="line2d_15">
      <g>
       <use style="stroke:#000000;stroke-width:0.8;" x="40.603125" xlink:href="#m736b3bb579" y="89.757223"/>
      </g>
     </g>
     <g id="text_16">
      <!-- 60 -->
      <g transform="translate(20.878125 93.556441)scale(0.1 -0.1)">
       <use xlink:href="#DejaVuSans-36"/>
       <use x="63.623047" xlink:href="#DejaVuSans-30"/>
      </g>
     </g>
    </g>
    <g id="ytick_8">
     <g id="line2d_16">
      <g>
       <use style="stroke:#000000;stroke-width:0.8;" x="40.603125" xlink:href="#m736b3bb579" y="55.697072"/>
      </g>
     </g>
     <g id="text_17">
      <!-- 70 -->
      <g transform="translate(20.878125 59.496291)scale(0.1 -0.1)">
       <use xlink:href="#DejaVuSans-37"/>
       <use x="63.623047" xlink:href="#DejaVuSans-30"/>
      </g>
     </g>
    </g>
    <g id="text_18">
     <!-- Sample count -->
     <g transform="translate(14.798437 192.661875)rotate(-90)scale(0.1 -0.1)">
      <defs>
       <path d="M 3425 4513 
L 3425 3897 
Q 3066 4069 2747 4153 
Q 2428 4238 2131 4238 
Q 1616 4238 1336 4038 
Q 1056 3838 1056 3469 
Q 1056 3159 1242 3001 
Q 1428 2844 1947 2747 
L 2328 2669 
Q 3034 2534 3370 2195 
Q 3706 1856 3706 1288 
Q 3706 609 3251 259 
Q 2797 -91 1919 -91 
Q 1588 -91 1214 -16 
Q 841 59 441 206 
L 441 856 
Q 825 641 1194 531 
Q 1563 422 1919 422 
Q 2459 422 2753 634 
Q 3047 847 3047 1241 
Q 3047 1584 2836 1778 
Q 2625 1972 2144 2069 
L 1759 2144 
Q 1053 2284 737 2584 
Q 422 2884 422 3419 
Q 422 4038 858 4394 
Q 1294 4750 2059 4750 
Q 2388 4750 2728 4690 
Q 3069 4631 3425 4513 
z
" id="DejaVuSans-53" transform="scale(0.015625)"/>
       <path d="M 2194 1759 
Q 1497 1759 1228 1600 
Q 959 1441 959 1056 
Q 959 750 1161 570 
Q 1363 391 1709 391 
Q 2188 391 2477 730 
Q 2766 1069 2766 1631 
L 2766 1759 
L 2194 1759 
z
M 3341 1997 
L 3341 0 
L 2766 0 
L 2766 531 
Q 2569 213 2275 61 
Q 1981 -91 1556 -91 
Q 1019 -91 701 211 
Q 384 513 384 1019 
Q 384 1609 779 1909 
Q 1175 2209 1959 2209 
L 2766 2209 
L 2766 2266 
Q 2766 2663 2505 2880 
Q 2244 3097 1772 3097 
Q 1472 3097 1187 3025 
Q 903 2953 641 2809 
L 641 3341 
Q 956 3463 1253 3523 
Q 1550 3584 1831 3584 
Q 2591 3584 2966 3190 
Q 3341 2797 3341 1997 
z
" id="DejaVuSans-61" transform="scale(0.015625)"/>
       <path d="M 3328 2828 
Q 3544 3216 3844 3400 
Q 4144 3584 4550 3584 
Q 5097 3584 5394 3201 
Q 5691 2819 5691 2113 
L 5691 0 
L 5113 0 
L 5113 2094 
Q 5113 2597 4934 2840 
Q 4756 3084 4391 3084 
Q 3944 3084 3684 2787 
Q 3425 2491 3425 1978 
L 3425 0 
L 2847 0 
L 2847 2094 
Q 2847 2600 2669 2842 
Q 2491 3084 2119 3084 
Q 1678 3084 1418 2786 
Q 1159 2488 1159 1978 
L 1159 0 
L 581 0 
L 581 3500 
L 1159 3500 
L 1159 2956 
Q 1356 3278 1631 3431 
Q 1906 3584 2284 3584 
Q 2666 3584 2933 3390 
Q 3200 3197 3328 2828 
z
" id="DejaVuSans-6d" transform="scale(0.015625)"/>
       <path d="M 1159 525 
L 1159 -1331 
L 581 -1331 
L 581 3500 
L 1159 3500 
L 1159 2969 
Q 1341 3281 1617 3432 
Q 1894 3584 2278 3584 
Q 2916 3584 3314 3078 
Q 3713 2572 3713 1747 
Q 3713 922 3314 415 
Q 2916 -91 2278 -91 
Q 1894 -91 1617 61 
Q 1341 213 1159 525 
z
M 3116 1747 
Q 3116 2381 2855 2742 
Q 2594 3103 2138 3103 
Q 1681 3103 1420 2742 
Q 1159 2381 1159 1747 
Q 1159 1113 1420 752 
Q 1681 391 2138 391 
Q 2594 391 2855 752 
Q 3116 1113 3116 1747 
z
" id="DejaVuSans-70" transform="scale(0.015625)"/>
       <path d="M 603 4863 
L 1178 4863 
L 1178 0 
L 603 0 
L 603 4863 
z
" id="DejaVuSans-6c" transform="scale(0.015625)"/>
       <path d="M 3122 3366 
L 3122 2828 
Q 2878 2963 2633 3030 
Q 2388 3097 2138 3097 
Q 1578 3097 1268 2742 
Q 959 2388 959 1747 
Q 959 1106 1268 751 
Q 1578 397 2138 397 
Q 2388 397 2633 464 
Q 2878 531 3122 666 
L 3122 134 
Q 2881 22 2623 -34 
Q 2366 -91 2075 -91 
Q 1284 -91 818 406 
Q 353 903 353 1747 
Q 353 2603 823 3093 
Q 1294 3584 2113 3584 
Q 2378 3584 2631 3529 
Q 2884 3475 3122 3366 
z
" id="DejaVuSans-63" transform="scale(0.015625)"/>
       <path d="M 544 1381 
L 544 3500 
L 1119 3500 
L 1119 1403 
Q 1119 906 1312 657 
Q 1506 409 1894 409 
Q 2359 409 2629 706 
Q 2900 1003 2900 1516 
L 2900 3500 
L 3475 3500 
L 3475 0 
L 2900 0 
L 2900 538 
Q 2691 219 2414 64 
Q 2138 -91 1772 -91 
Q 1169 -91 856 284 
Q 544 659 544 1381 
z
M 1991 3584 
L 1991 3584 
z
" id="DejaVuSans-75" transform="scale(0.015625)"/>
      </defs>
      <use xlink:href="#DejaVuSans-53"/>
      <use x="63.476562" xlink:href="#DejaVuSans-61"/>
      <use x="124.755859" xlink:href="#DejaVuSans-6d"/>
      <use x="222.167969" xlink:href="#DejaVuSans-70"/>
      <use x="285.644531" xlink:href="#DejaVuSans-6c"/>
      <use x="313.427734" xlink:href="#DejaVuSans-65"/>
      <use x="374.951172" xlink:href="#DejaVuSans-20"/>
      <use x="406.738281" xlink:href="#DejaVuSans-63"/>
      <use x="461.71875" xlink:href="#DejaVuSans-6f"/>
      <use x="522.900391" xlink:href="#DejaVuSans-75"/>
      <use x="586.279297" xlink:href="#DejaVuSans-6e"/>
      <use x="649.658203" xlink:href="#DejaVuSans-74"/>
     </g>
    </g>
   </g>
   <g id="patch_3">
    <path clip-path="url(#p72ab0b6c62)" d="M 252.671307 294.118125 
L 252.671307 287.306095 
L 255.65584 287.306095 
L 255.65584 290.71211 
L 258.640372 290.71211 
L 258.640372 287.306095 
L 264.609438 287.306095 
L 264.609438 294.118125 
L 267.593971 294.118125 
L 267.593971 287.306095 
L 279.532102 287.306095 
L 279.532102 294.118125 
L 282.516635 294.118125 
L 282.516635 290.71211 
L 288.485701 290.71211 
L 288.485701 287.306095 
L 291.470234 287.306095 
L 291.470234 290.71211 
L 294.454766 290.71211 
L 294.454766 280.494065 
L 297.439299 280.494065 
L 297.439299 287.306095 
L 303.408365 287.306095 
L 303.408365 280.494065 
L 306.392898 280.494065 
L 306.392898 290.71211 
L 309.377431 290.71211 
L 309.377431 287.306095 
L 312.361963 287.306095 
L 312.361963 280.494065 
L 315.346496 280.494065 
L 315.346496 294.118125 
L 318.331029 294.118125 
L 318.331029 287.306095 
L 321.315562 287.306095 
L 321.315562 290.71211 
L 327.284628 290.71211 
L 327.284628 287.306095 
L 330.26916 287.306095 
L 330.26916 290.71211 
L 336.238226 290.71211 
L 336.238226 294.118125 
L 464.573138 294.118125 
L 464.573138 222.591809 
L 467.55767 222.591809 
L 467.55767 294.118125 
L 467.55767 294.118125 
" style="fill:none;stroke:#ff8c00;stroke-linejoin:miter;"/>
   </g>
   <g id="patch_4">
    <path clip-path="url(#p72ab0b6c62)" d="M 65.966761 294.118125 
L 65.966761 225.997824 
L 72.718655 225.997824 
L 72.718655 294.118125 
L 153.741383 294.118125 
L 153.741383 287.306095 
L 160.493277 287.306095 
L 160.493277 294.118125 
L 167.24517 294.118125 
L 167.24517 290.71211 
L 180.748958 290.71211 
L 180.748958 283.90008 
L 194.252746 283.90008 
L 194.252746 287.306095 
L 201.00464 287.306095 
L 201.00464 188.531659 
L 207.756534 188.531659 
L 207.756534 283.90008 
L 214.508428 283.90008 
L 214.508428 263.46399 
L 221.260322 263.46399 
L 221.260322 249.83993 
L 228.012216 249.83993 
L 228.012216 280.494065 
L 234.76411 280.494065 
L 234.76411 270.27602 
L 241.516004 270.27602 
L 241.516004 277.08805 
L 248.267898 277.08805 
L 248.267898 270.27602 
L 255.019792 270.27602 
L 255.019792 273.682035 
L 261.771686 273.682035 
L 261.771686 113.599328 
L 268.52358 113.599328 
L 268.52358 273.682035 
L 275.275473 273.682035 
L 275.275473 266.870005 
L 282.027367 266.870005 
L 282.027367 277.08805 
L 288.779261 277.08805 
L 288.779261 283.90008 
L 295.531155 283.90008 
L 295.531155 263.46399 
L 302.283049 263.46399 
L 302.283049 283.90008 
L 309.034943 283.90008 
L 309.034943 280.494065 
L 315.786837 280.494065 
L 315.786837 273.682035 
L 329.290625 273.682035 
L 329.290625 280.494065 
L 336.042519 280.494065 
L 336.042519 270.27602 
L 342.794413 270.27602 
L 342.794413 283.90008 
L 349.546307 283.90008 
L 349.546307 287.306095 
L 363.050095 287.306095 
L 363.050095 277.08805 
L 369.801989 277.08805 
L 369.801989 280.494065 
L 376.553883 280.494065 
L 376.553883 287.306095 
L 383.305777 287.306095 
L 383.305777 290.71211 
L 396.809564 290.71211 
L 396.809564 280.494065 
L 403.561458 280.494065 
L 403.561458 273.682035 
L 410.313352 273.682035 
L 410.313352 277.08805 
L 417.065246 277.08805 
L 417.065246 270.27602 
L 423.81714 270.27602 
L 423.81714 277.08805 
L 430.569034 277.08805 
L 430.569034 280.494065 
L 437.320928 280.494065 
L 437.320928 283.90008 
L 444.072822 283.90008 
L 444.072822 294.118125 
L 450.824716 294.118125 
L 450.824716 287.306095 
L 457.57661 287.306095 
L 457.57661 290.71211 
L 477.832292 290.71211 
L 477.832292 283.90008 
L 484.584186 283.90008 
L 484.584186 294.118125 
L 498.087973 294.118125 
L 498.087973 287.306095 
L 511.591761 287.306095 
L 511.591761 294.118125 
L 545.351231 294.118125 
L 545.351231 287.306095 
L 552.103125 287.306095 
L 552.103125 294.118125 
L 552.103125 294.118125 
" style="fill:none;stroke:#000000;stroke-linejoin:miter;"/>
   </g>
   <g id="patch_5">
    <path clip-path="url(#p72ab0b6c62)" d="M 65.966761 294.118125 
L 65.966761 35.260982 
L 73.012216 35.260982 
L 73.012216 294.118125 
L 199.830398 294.118125 
L 199.830398 287.306095 
L 220.966761 287.306095 
L 220.966761 283.90008 
L 235.05767 283.90008 
L 235.05767 287.306095 
L 249.14858 287.306095 
L 249.14858 225.997824 
L 256.194034 225.997824 
L 256.194034 270.27602 
L 270.284943 270.27602 
L 270.284943 266.870005 
L 277.330398 266.870005 
L 277.330398 283.90008 
L 284.375852 283.90008 
L 284.375852 253.245945 
L 291.421307 253.245945 
L 291.421307 280.494065 
L 298.466761 280.494065 
L 298.466761 260.057975 
L 305.512216 260.057975 
L 305.512216 280.494065 
L 312.55767 280.494065 
L 312.55767 287.306095 
L 319.603125 287.306095 
L 319.603125 280.494065 
L 361.875852 280.494065 
L 361.875852 283.90008 
L 368.921307 283.90008 
L 368.921307 232.809854 
L 383.012216 232.809854 
L 383.012216 205.561734 
L 390.05767 205.561734 
L 390.05767 219.185794 
L 397.103125 219.185794 
L 397.103125 229.403839 
L 404.14858 229.403839 
L 404.14858 208.967749 
L 411.194034 208.967749 
L 411.194034 225.997824 
L 418.239489 225.997824 
L 418.239489 239.621884 
L 425.284943 239.621884 
L 425.284943 246.433914 
L 432.330398 246.433914 
L 432.330398 273.682035 
L 439.375852 273.682035 
L 439.375852 253.245945 
L 446.421307 253.245945 
L 446.421307 246.433914 
L 453.466761 246.433914 
L 453.466761 232.809854 
L 460.512216 232.809854 
L 460.512216 263.46399 
L 467.55767 263.46399 
L 467.55767 144.253463 
L 474.603125 144.253463 
L 474.603125 256.65196 
L 481.64858 256.65196 
L 481.64858 232.809854 
L 488.694034 232.809854 
L 488.694034 263.46399 
L 495.739489 263.46399 
L 495.739489 253.245945 
L 502.784943 253.245945 
L 502.784943 266.870005 
L 509.830398 266.870005 
L 509.830398 270.27602 
L 516.875852 270.27602 
L 516.875852 243.027899 
L 523.921307 243.027899 
L 523.921307 266.870005 
L 530.966761 266.870005 
L 530.966761 232.809854 
L 538.012216 232.809854 
L 538.012216 225.997824 
L 545.05767 225.997824 
L 545.05767 243.027899 
L 552.103125 243.027899 
L 552.103125 246.433914 
L 559.14858 246.433914 
L 559.14858 249.83993 
L 566.194034 249.83993 
L 566.194034 232.809854 
L 573.239489 232.809854 
L 573.239489 294.118125 
L 573.239489 294.118125 
" style="fill:none;stroke:#008000;stroke-linejoin:miter;"/>
   </g>
   <g id="patch_6">
    <path d="M 40.603125 294.118125 
L 40.603125 22.318125 
" style="fill:none;stroke:#000000;stroke-linecap:square;stroke-linejoin:miter;stroke-width:0.8;"/>
   </g>
   <g id="patch_7">
    <path d="M 598.603125 294.118125 
L 598.603125 22.318125 
" style="fill:none;stroke:#000000;stroke-linecap:square;stroke-linejoin:miter;stroke-width:0.8;"/>
   </g>
   <g id="patch_8">
    <path d="M 40.603125 294.118125 
L 598.603125 294.118125 
" style="fill:none;stroke:#000000;stroke-linecap:square;stroke-linejoin:miter;stroke-width:0.8;"/>
   </g>
   <g id="patch_9">
    <path d="M 40.603125 22.318125 
L 598.603125 22.318125 
" style="fill:none;stroke:#000000;stroke-linecap:square;stroke-linejoin:miter;stroke-width:0.8;"/>
   </g>
   <g id="text_19">
    <!-- Sample Count by Socioeconomic Status (SES) -->
    <g transform="translate(182.11875 16.318125)scale(0.12 -0.12)">
     <defs>
      <path d="M 4122 4306 
L 4122 3641 
Q 3803 3938 3442 4084 
Q 3081 4231 2675 4231 
Q 1875 4231 1450 3742 
Q 1025 3253 1025 2328 
Q 1025 1406 1450 917 
Q 1875 428 2675 428 
Q 3081 428 3442 575 
Q 3803 722 4122 1019 
L 4122 359 
Q 3791 134 3420 21 
Q 3050 -91 2638 -91 
Q 1578 -91 968 557 
Q 359 1206 359 2328 
Q 359 3453 968 4101 
Q 1578 4750 2638 4750 
Q 3056 4750 3426 4639 
Q 3797 4528 4122 4306 
z
" id="DejaVuSans-43" transform="scale(0.015625)"/>
      <path d="M 3116 1747 
Q 3116 2381 2855 2742 
Q 2594 3103 2138 3103 
Q 1681 3103 1420 2742 
Q 1159 2381 1159 1747 
Q 1159 1113 1420 752 
Q 1681 391 2138 391 
Q 2594 391 2855 752 
Q 3116 1113 3116 1747 
z
M 1159 2969 
Q 1341 3281 1617 3432 
Q 1894 3584 2278 3584 
Q 2916 3584 3314 3078 
Q 3713 2572 3713 1747 
Q 3713 922 3314 415 
Q 2916 -91 2278 -91 
Q 1894 -91 1617 61 
Q 1341 213 1159 525 
L 1159 0 
L 581 0 
L 581 4863 
L 1159 4863 
L 1159 2969 
z
" id="DejaVuSans-62" transform="scale(0.015625)"/>
      <path d="M 2059 -325 
Q 1816 -950 1584 -1140 
Q 1353 -1331 966 -1331 
L 506 -1331 
L 506 -850 
L 844 -850 
Q 1081 -850 1212 -737 
Q 1344 -625 1503 -206 
L 1606 56 
L 191 3500 
L 800 3500 
L 1894 763 
L 2988 3500 
L 3597 3500 
L 2059 -325 
z
" id="DejaVuSans-79" transform="scale(0.015625)"/>
      <path d="M 603 3500 
L 1178 3500 
L 1178 0 
L 603 0 
L 603 3500 
z
M 603 4863 
L 1178 4863 
L 1178 4134 
L 603 4134 
L 603 4863 
z
" id="DejaVuSans-69" transform="scale(0.015625)"/>
      <path d="M 2834 3397 
L 2834 2853 
Q 2591 2978 2328 3040 
Q 2066 3103 1784 3103 
Q 1356 3103 1142 2972 
Q 928 2841 928 2578 
Q 928 2378 1081 2264 
Q 1234 2150 1697 2047 
L 1894 2003 
Q 2506 1872 2764 1633 
Q 3022 1394 3022 966 
Q 3022 478 2636 193 
Q 2250 -91 1575 -91 
Q 1294 -91 989 -36 
Q 684 19 347 128 
L 347 722 
Q 666 556 975 473 
Q 1284 391 1588 391 
Q 1994 391 2212 530 
Q 2431 669 2431 922 
Q 2431 1156 2273 1281 
Q 2116 1406 1581 1522 
L 1381 1569 
Q 847 1681 609 1914 
Q 372 2147 372 2553 
Q 372 3047 722 3315 
Q 1072 3584 1716 3584 
Q 2034 3584 2315 3537 
Q 2597 3491 2834 3397 
z
" id="DejaVuSans-73" transform="scale(0.015625)"/>
      <path d="M 628 4666 
L 3578 4666 
L 3578 4134 
L 1259 4134 
L 1259 2753 
L 3481 2753 
L 3481 2222 
L 1259 2222 
L 1259 531 
L 3634 531 
L 3634 0 
L 628 0 
L 628 4666 
z
" id="DejaVuSans-45" transform="scale(0.015625)"/>
     </defs>
     <use xlink:href="#DejaVuSans-53"/>
     <use x="63.476562" xlink:href="#DejaVuSans-61"/>
     <use x="124.755859" xlink:href="#DejaVuSans-6d"/>
     <use x="222.167969" xlink:href="#DejaVuSans-70"/>
     <use x="285.644531" xlink:href="#DejaVuSans-6c"/>
     <use x="313.427734" xlink:href="#DejaVuSans-65"/>
     <use x="374.951172" xlink:href="#DejaVuSans-20"/>
     <use x="406.738281" xlink:href="#DejaVuSans-43"/>
     <use x="476.5625" xlink:href="#DejaVuSans-6f"/>
     <use x="537.744141" xlink:href="#DejaVuSans-75"/>
     <use x="601.123047" xlink:href="#DejaVuSans-6e"/>
     <use x="664.501953" xlink:href="#DejaVuSans-74"/>
     <use x="703.710938" xlink:href="#DejaVuSans-20"/>
     <use x="735.498047" xlink:href="#DejaVuSans-62"/>
     <use x="798.974609" xlink:href="#DejaVuSans-79"/>
     <use x="858.154297" xlink:href="#DejaVuSans-20"/>
     <use x="889.941406" xlink:href="#DejaVuSans-53"/>
     <use x="953.417969" xlink:href="#DejaVuSans-6f"/>
     <use x="1014.599609" xlink:href="#DejaVuSans-63"/>
     <use x="1069.580078" xlink:href="#DejaVuSans-69"/>
     <use x="1097.363281" xlink:href="#DejaVuSans-6f"/>
     <use x="1158.544922" xlink:href="#DejaVuSans-65"/>
     <use x="1220.068359" xlink:href="#DejaVuSans-63"/>
     <use x="1275.048828" xlink:href="#DejaVuSans-6f"/>
     <use x="1336.230469" xlink:href="#DejaVuSans-6e"/>
     <use x="1399.609375" xlink:href="#DejaVuSans-6f"/>
     <use x="1460.791016" xlink:href="#DejaVuSans-6d"/>
     <use x="1558.203125" xlink:href="#DejaVuSans-69"/>
     <use x="1585.986328" xlink:href="#DejaVuSans-63"/>
     <use x="1640.966797" xlink:href="#DejaVuSans-20"/>
     <use x="1672.753906" xlink:href="#DejaVuSans-53"/>
     <use x="1736.230469" xlink:href="#DejaVuSans-74"/>
     <use x="1775.439453" xlink:href="#DejaVuSans-61"/>
     <use x="1836.71875" xlink:href="#DejaVuSans-74"/>
     <use x="1875.927734" xlink:href="#DejaVuSans-75"/>
     <use x="1939.306641" xlink:href="#DejaVuSans-73"/>
     <use x="1991.40625" xlink:href="#DejaVuSans-20"/>
     <use x="2023.193359" xlink:href="#DejaVuSans-28"/>
     <use x="2062.207031" xlink:href="#DejaVuSans-53"/>
     <use x="2125.683594" xlink:href="#DejaVuSans-45"/>
     <use x="2188.867188" xlink:href="#DejaVuSans-53"/>
     <use x="2252.34375" xlink:href="#DejaVuSans-29"/>
    </g>
   </g>
   <g id="legend_1">
    <g id="patch_10">
     <path d="M 542.732813 89.030625 
L 591.603125 89.030625 
Q 593.603125 89.030625 593.603125 87.030625 
L 593.603125 29.318125 
Q 593.603125 27.318125 591.603125 27.318125 
L 542.732813 27.318125 
Q 540.732813 27.318125 540.732813 29.318125 
L 540.732813 87.030625 
Q 540.732813 89.030625 542.732813 89.030625 
z
" style="fill:#ffffff;opacity:0.8;stroke:#000000;stroke-linejoin:miter;"/>
    </g>
    <g id="text_20">
     <!-- SES -->
     <g transform="translate(557.660156 38.916563)scale(0.1 -0.1)">
      <use xlink:href="#DejaVuSans-53"/>
      <use x="63.476562" xlink:href="#DejaVuSans-45"/>
      <use x="126.660156" xlink:href="#DejaVuSans-53"/>
     </g>
    </g>
    <g id="patch_11">
     <path d="M 544.732813 53.594688 
L 564.732813 53.594688 
L 564.732813 46.594688 
L 544.732813 46.594688 
z
" style="fill:none;stroke:#ff8c00;stroke-linejoin:miter;"/>
    </g>
    <g id="text_21">
     <!-- UC -->
     <g transform="translate(572.732813 53.594688)scale(0.1 -0.1)">
      <defs>
       <path d="M 556 4666 
L 1191 4666 
L 1191 1831 
Q 1191 1081 1462 751 
Q 1734 422 2344 422 
Q 2950 422 3222 751 
Q 3494 1081 3494 1831 
L 3494 4666 
L 4128 4666 
L 4128 1753 
Q 4128 841 3676 375 
Q 3225 -91 2344 -91 
Q 1459 -91 1007 375 
Q 556 841 556 1753 
L 556 4666 
z
" id="DejaVuSans-55" transform="scale(0.015625)"/>
      </defs>
      <use xlink:href="#DejaVuSans-55"/>
      <use x="73.193359" xlink:href="#DejaVuSans-43"/>
     </g>
    </g>
    <g id="patch_12">
     <path d="M 544.732813 68.272813 
L 564.732813 68.272813 
L 564.732813 61.272813 
L 544.732813 61.272813 
z
" style="fill:none;stroke:#000000;stroke-linejoin:miter;"/>
    </g>
    <g id="text_22">
     <!-- MC -->
     <g transform="translate(572.732813 68.272813)scale(0.1 -0.1)">
      <use xlink:href="#DejaVuSans-4d"/>
      <use x="86.279297" xlink:href="#DejaVuSans-43"/>
     </g>
    </g>
    <g id="patch_13">
     <path d="M 544.732813 82.950938 
L 564.732813 82.950938 
L 564.732813 75.950938 
L 544.732813 75.950938 
z
" style="fill:none;stroke:#008000;stroke-linejoin:miter;"/>
    </g>
    <g id="text_23">
     <!-- WC -->
     <g transform="translate(572.732813 82.950938)scale(0.1 -0.1)">
      <defs>
       <path d="M 213 4666 
L 850 4666 
L 1831 722 
L 2809 4666 
L 3519 4666 
L 4500 722 
L 5478 4666 
L 6119 4666 
L 4947 0 
L 4153 0 
L 3169 4050 
L 2175 0 
L 1381 0 
L 213 4666 
z
" id="DejaVuSans-57" transform="scale(0.015625)"/>
      </defs>
      <use xlink:href="#DejaVuSans-57"/>
      <use x="98.876953" xlink:href="#DejaVuSans-43"/>
     </g>
    </g>
   </g>
  </g>
 </g>
 <defs>
  <clipPath id="p72ab0b6c62">
   <rect height="271.8" width="558" x="40.603125" y="22.318125"/>
  </clipPath>
 </defs>
</svg>
