<?xml version="1.0" encoding="utf-8" standalone="no"?>
<!DOCTYPE svg PUBLIC "-//W3C//DTD SVG 1.1//EN"
  "http://www.w3.org/Graphics/SVG/1.1/DTD/svg11.dtd">
<svg height="728.39952pt" version="1.1" viewBox="0 0 728.39952 728.39952" width="728.39952pt" xmlns="http://www.w3.org/2000/svg" xmlns:xlink="http://www.w3.org/1999/xlink">
 <metadata>
  <rdf:RDF xmlns:cc="http://creativecommons.org/ns#" xmlns:dc="http://purl.org/dc/elements/1.1/" xmlns:rdf="http://www.w3.org/1999/02/22-rdf-syntax-ns#">
   <cc:Work>
    <dc:type rdf:resource="http://purl.org/dc/dcmitype/StillImage"/>
    <dc:date>2022-04-23T00:50:42.217452</dc:date>
    <dc:format>image/svg+xml</dc:format>
    <dc:creator>
     <cc:Agent>
      <dc:title>Matplotlib v3.4.3, https://matplotlib.org/</dc:title>
     </cc:Agent>
    </dc:creator>
   </cc:Work>
  </rdf:RDF>
 </metadata>
 <defs>
  <style type="text/css">*{stroke-linecap:butt;stroke-linejoin:round;}</style>
 </defs>
 <g id="figure_1">
  <g id="patch_1">
   <path d="M 0 728.39952 
L 728.39952 728.39952 
L 728.39952 0 
L 0 0 
z
" style="fill:none;"/>
  </g>
  <g id="axes_1">
   <g id="patch_2">
    <path d="M 48.90125 183.068315 
L 484.737117 183.068315 
L 484.737117 101.768261 
L 48.90125 101.768261 
z
" style="fill:#e6e6e6;"/>
   </g>
   <g id="matplotlib.axis_1">
    <g id="xtick_1">
     <g id="line2d_1">
      <path clip-path="url(#p5e54985989)" d="M 68.711971 183.068315 
L 68.711971 101.768261 
" style="fill:none;stroke:#ffffff;stroke-linecap:square;stroke-width:0.8;"/>
     </g>
     <g id="line2d_2">
      <defs>
       <path d="M 0 0 
L 0 3.5 
" id="m53e58ec8e2" style="stroke:#000000;stroke-width:0.8;"/>
      </defs>
      <g>
       <use style="stroke:#000000;stroke-width:0.8;" x="68.711971" xlink:href="#m53e58ec8e2" y="183.068315"/>
      </g>
     </g>
     <g id="text_1">
      <!-- 0 -->
      <g transform="translate(65.530721 197.666753)scale(0.1 -0.1)">
       <defs>
        <path d="M 2034 4250 
Q 1547 4250 1301 3770 
Q 1056 3291 1056 2328 
Q 1056 1369 1301 889 
Q 1547 409 2034 409 
Q 2525 409 2770 889 
Q 3016 1369 3016 2328 
Q 3016 3291 2770 3770 
Q 2525 4250 2034 4250 
z
M 2034 4750 
Q 2819 4750 3233 4129 
Q 3647 3509 3647 2328 
Q 3647 1150 3233 529 
Q 2819 -91 2034 -91 
Q 1250 -91 836 529 
Q 422 1150 422 2328 
Q 422 3509 836 4129 
Q 1250 4750 2034 4750 
z
" id="DejaVuSans-30" transform="scale(0.015625)"/>
       </defs>
       <use xlink:href="#DejaVuSans-30"/>
      </g>
     </g>
    </g>
    <g id="xtick_2">
     <g id="line2d_3">
      <path clip-path="url(#p5e54985989)" d="M 123.741752 183.068315 
L 123.741752 101.768261 
" style="fill:none;stroke:#ffffff;stroke-linecap:square;stroke-width:0.8;"/>
     </g>
     <g id="line2d_4">
      <g>
       <use style="stroke:#000000;stroke-width:0.8;" x="123.741752" xlink:href="#m53e58ec8e2" y="183.068315"/>
      </g>
     </g>
     <g id="text_2">
      <!-- 10 -->
      <g transform="translate(117.379252 197.666753)scale(0.1 -0.1)">
       <defs>
        <path d="M 794 531 
L 1825 531 
L 1825 4091 
L 703 3866 
L 703 4441 
L 1819 4666 
L 2450 4666 
L 2450 531 
L 3481 531 
L 3481 0 
L 794 0 
L 794 531 
z
" id="DejaVuSans-31" transform="scale(0.015625)"/>
       </defs>
       <use xlink:href="#DejaVuSans-31"/>
       <use x="63.623047" xlink:href="#DejaVuSans-30"/>
      </g>
     </g>
    </g>
    <g id="xtick_3">
     <g id="line2d_5">
      <path clip-path="url(#p5e54985989)" d="M 178.771534 183.068315 
L 178.771534 101.768261 
" style="fill:none;stroke:#ffffff;stroke-linecap:square;stroke-width:0.8;"/>
     </g>
     <g id="line2d_6">
      <g>
       <use style="stroke:#000000;stroke-width:0.8;" x="178.771534" xlink:href="#m53e58ec8e2" y="183.068315"/>
      </g>
     </g>
     <g id="text_3">
      <!-- 20 -->
      <g transform="translate(172.409034 197.666753)scale(0.1 -0.1)">
       <defs>
        <path d="M 1228 531 
L 3431 531 
L 3431 0 
L 469 0 
L 469 531 
Q 828 903 1448 1529 
Q 2069 2156 2228 2338 
Q 2531 2678 2651 2914 
Q 2772 3150 2772 3378 
Q 2772 3750 2511 3984 
Q 2250 4219 1831 4219 
Q 1534 4219 1204 4116 
Q 875 4013 500 3803 
L 500 4441 
Q 881 4594 1212 4672 
Q 1544 4750 1819 4750 
Q 2544 4750 2975 4387 
Q 3406 4025 3406 3419 
Q 3406 3131 3298 2873 
Q 3191 2616 2906 2266 
Q 2828 2175 2409 1742 
Q 1991 1309 1228 531 
z
" id="DejaVuSans-32" transform="scale(0.015625)"/>
       </defs>
       <use xlink:href="#DejaVuSans-32"/>
       <use x="63.623047" xlink:href="#DejaVuSans-30"/>
      </g>
     </g>
    </g>
    <g id="xtick_4">
     <g id="line2d_7">
      <path clip-path="url(#p5e54985989)" d="M 233.801315 183.068315 
L 233.801315 101.768261 
" style="fill:none;stroke:#ffffff;stroke-linecap:square;stroke-width:0.8;"/>
     </g>
     <g id="line2d_8">
      <g>
       <use style="stroke:#000000;stroke-width:0.8;" x="233.801315" xlink:href="#m53e58ec8e2" y="183.068315"/>
      </g>
     </g>
     <g id="text_4">
      <!-- 30 -->
      <g transform="translate(227.438815 197.666753)scale(0.1 -0.1)">
       <defs>
        <path d="M 2597 2516 
Q 3050 2419 3304 2112 
Q 3559 1806 3559 1356 
Q 3559 666 3084 287 
Q 2609 -91 1734 -91 
Q 1441 -91 1130 -33 
Q 819 25 488 141 
L 488 750 
Q 750 597 1062 519 
Q 1375 441 1716 441 
Q 2309 441 2620 675 
Q 2931 909 2931 1356 
Q 2931 1769 2642 2001 
Q 2353 2234 1838 2234 
L 1294 2234 
L 1294 2753 
L 1863 2753 
Q 2328 2753 2575 2939 
Q 2822 3125 2822 3475 
Q 2822 3834 2567 4026 
Q 2313 4219 1838 4219 
Q 1578 4219 1281 4162 
Q 984 4106 628 3988 
L 628 4550 
Q 988 4650 1302 4700 
Q 1616 4750 1894 4750 
Q 2613 4750 3031 4423 
Q 3450 4097 3450 3541 
Q 3450 3153 3228 2886 
Q 3006 2619 2597 2516 
z
" id="DejaVuSans-33" transform="scale(0.015625)"/>
       </defs>
       <use xlink:href="#DejaVuSans-33"/>
       <use x="63.623047" xlink:href="#DejaVuSans-30"/>
      </g>
     </g>
    </g>
    <g id="xtick_5">
     <g id="line2d_9">
      <path clip-path="url(#p5e54985989)" d="M 288.831096 183.068315 
L 288.831096 101.768261 
" style="fill:none;stroke:#ffffff;stroke-linecap:square;stroke-width:0.8;"/>
     </g>
     <g id="line2d_10">
      <g>
       <use style="stroke:#000000;stroke-width:0.8;" x="288.831096" xlink:href="#m53e58ec8e2" y="183.068315"/>
      </g>
     </g>
     <g id="text_5">
      <!-- 40 -->
      <g transform="translate(282.468596 197.666753)scale(0.1 -0.1)">
       <defs>
        <path d="M 2419 4116 
L 825 1625 
L 2419 1625 
L 2419 4116 
z
M 2253 4666 
L 3047 4666 
L 3047 1625 
L 3713 1625 
L 3713 1100 
L 3047 1100 
L 3047 0 
L 2419 0 
L 2419 1100 
L 313 1100 
L 313 1709 
L 2253 4666 
z
" id="DejaVuSans-34" transform="scale(0.015625)"/>
       </defs>
       <use xlink:href="#DejaVuSans-34"/>
       <use x="63.623047" xlink:href="#DejaVuSans-30"/>
      </g>
     </g>
    </g>
    <g id="xtick_6">
     <g id="line2d_11">
      <path clip-path="url(#p5e54985989)" d="M 343.860877 183.068315 
L 343.860877 101.768261 
" style="fill:none;stroke:#ffffff;stroke-linecap:square;stroke-width:0.8;"/>
     </g>
     <g id="line2d_12">
      <g>
       <use style="stroke:#000000;stroke-width:0.8;" x="343.860877" xlink:href="#m53e58ec8e2" y="183.068315"/>
      </g>
     </g>
     <g id="text_6">
      <!-- 50 -->
      <g transform="translate(337.498377 197.666753)scale(0.1 -0.1)">
       <defs>
        <path d="M 691 4666 
L 3169 4666 
L 3169 4134 
L 1269 4134 
L 1269 2991 
Q 1406 3038 1543 3061 
Q 1681 3084 1819 3084 
Q 2600 3084 3056 2656 
Q 3513 2228 3513 1497 
Q 3513 744 3044 326 
Q 2575 -91 1722 -91 
Q 1428 -91 1123 -41 
Q 819 9 494 109 
L 494 744 
Q 775 591 1075 516 
Q 1375 441 1709 441 
Q 2250 441 2565 725 
Q 2881 1009 2881 1497 
Q 2881 1984 2565 2268 
Q 2250 2553 1709 2553 
Q 1456 2553 1204 2497 
Q 953 2441 691 2322 
L 691 4666 
z
" id="DejaVuSans-35" transform="scale(0.015625)"/>
       </defs>
       <use xlink:href="#DejaVuSans-35"/>
       <use x="63.623047" xlink:href="#DejaVuSans-30"/>
      </g>
     </g>
    </g>
    <g id="xtick_7">
     <g id="line2d_13">
      <path clip-path="url(#p5e54985989)" d="M 398.890658 183.068315 
L 398.890658 101.768261 
" style="fill:none;stroke:#ffffff;stroke-linecap:square;stroke-width:0.8;"/>
     </g>
     <g id="line2d_14">
      <g>
       <use style="stroke:#000000;stroke-width:0.8;" x="398.890658" xlink:href="#m53e58ec8e2" y="183.068315"/>
      </g>
     </g>
     <g id="text_7">
      <!-- 60 -->
      <g transform="translate(392.528158 197.666753)scale(0.1 -0.1)">
       <defs>
        <path d="M 2113 2584 
Q 1688 2584 1439 2293 
Q 1191 2003 1191 1497 
Q 1191 994 1439 701 
Q 1688 409 2113 409 
Q 2538 409 2786 701 
Q 3034 994 3034 1497 
Q 3034 2003 2786 2293 
Q 2538 2584 2113 2584 
z
M 3366 4563 
L 3366 3988 
Q 3128 4100 2886 4159 
Q 2644 4219 2406 4219 
Q 1781 4219 1451 3797 
Q 1122 3375 1075 2522 
Q 1259 2794 1537 2939 
Q 1816 3084 2150 3084 
Q 2853 3084 3261 2657 
Q 3669 2231 3669 1497 
Q 3669 778 3244 343 
Q 2819 -91 2113 -91 
Q 1303 -91 875 529 
Q 447 1150 447 2328 
Q 447 3434 972 4092 
Q 1497 4750 2381 4750 
Q 2619 4750 2861 4703 
Q 3103 4656 3366 4563 
z
" id="DejaVuSans-36" transform="scale(0.015625)"/>
       </defs>
       <use xlink:href="#DejaVuSans-36"/>
       <use x="63.623047" xlink:href="#DejaVuSans-30"/>
      </g>
     </g>
    </g>
    <g id="xtick_8">
     <g id="line2d_15">
      <path clip-path="url(#p5e54985989)" d="M 453.920439 183.068315 
L 453.920439 101.768261 
" style="fill:none;stroke:#ffffff;stroke-linecap:square;stroke-width:0.8;"/>
     </g>
     <g id="line2d_16">
      <g>
       <use style="stroke:#000000;stroke-width:0.8;" x="453.920439" xlink:href="#m53e58ec8e2" y="183.068315"/>
      </g>
     </g>
     <g id="text_8">
      <!-- 70 -->
      <g transform="translate(447.557939 197.666753)scale(0.1 -0.1)">
       <defs>
        <path d="M 525 4666 
L 3525 4666 
L 3525 4397 
L 1831 0 
L 1172 0 
L 2766 4134 
L 525 4134 
L 525 4666 
z
" id="DejaVuSans-37" transform="scale(0.015625)"/>
       </defs>
       <use xlink:href="#DejaVuSans-37"/>
       <use x="63.623047" xlink:href="#DejaVuSans-30"/>
      </g>
     </g>
    </g>
    <g id="text_9">
     <!-- Age (months) -->
     <g transform="translate(226.026683 212.864565)scale(0.12 -0.12)">
      <defs>
       <path d="M 2188 4044 
L 1331 1722 
L 3047 1722 
L 2188 4044 
z
M 1831 4666 
L 2547 4666 
L 4325 0 
L 3669 0 
L 3244 1197 
L 1141 1197 
L 716 0 
L 50 0 
L 1831 4666 
z
" id="DejaVuSans-41" transform="scale(0.015625)"/>
       <path d="M 2906 1791 
Q 2906 2416 2648 2759 
Q 2391 3103 1925 3103 
Q 1463 3103 1205 2759 
Q 947 2416 947 1791 
Q 947 1169 1205 825 
Q 1463 481 1925 481 
Q 2391 481 2648 825 
Q 2906 1169 2906 1791 
z
M 3481 434 
Q 3481 -459 3084 -895 
Q 2688 -1331 1869 -1331 
Q 1566 -1331 1297 -1286 
Q 1028 -1241 775 -1147 
L 775 -588 
Q 1028 -725 1275 -790 
Q 1522 -856 1778 -856 
Q 2344 -856 2625 -561 
Q 2906 -266 2906 331 
L 2906 616 
Q 2728 306 2450 153 
Q 2172 0 1784 0 
Q 1141 0 747 490 
Q 353 981 353 1791 
Q 353 2603 747 3093 
Q 1141 3584 1784 3584 
Q 2172 3584 2450 3431 
Q 2728 3278 2906 2969 
L 2906 3500 
L 3481 3500 
L 3481 434 
z
" id="DejaVuSans-67" transform="scale(0.015625)"/>
       <path d="M 3597 1894 
L 3597 1613 
L 953 1613 
Q 991 1019 1311 708 
Q 1631 397 2203 397 
Q 2534 397 2845 478 
Q 3156 559 3463 722 
L 3463 178 
Q 3153 47 2828 -22 
Q 2503 -91 2169 -91 
Q 1331 -91 842 396 
Q 353 884 353 1716 
Q 353 2575 817 3079 
Q 1281 3584 2069 3584 
Q 2775 3584 3186 3129 
Q 3597 2675 3597 1894 
z
M 3022 2063 
Q 3016 2534 2758 2815 
Q 2500 3097 2075 3097 
Q 1594 3097 1305 2825 
Q 1016 2553 972 2059 
L 3022 2063 
z
" id="DejaVuSans-65" transform="scale(0.015625)"/>
       <path id="DejaVuSans-20" transform="scale(0.015625)"/>
       <path d="M 1984 4856 
Q 1566 4138 1362 3434 
Q 1159 2731 1159 2009 
Q 1159 1288 1364 580 
Q 1569 -128 1984 -844 
L 1484 -844 
Q 1016 -109 783 600 
Q 550 1309 550 2009 
Q 550 2706 781 3412 
Q 1013 4119 1484 4856 
L 1984 4856 
z
" id="DejaVuSans-28" transform="scale(0.015625)"/>
       <path d="M 3328 2828 
Q 3544 3216 3844 3400 
Q 4144 3584 4550 3584 
Q 5097 3584 5394 3201 
Q 5691 2819 5691 2113 
L 5691 0 
L 5113 0 
L 5113 2094 
Q 5113 2597 4934 2840 
Q 4756 3084 4391 3084 
Q 3944 3084 3684 2787 
Q 3425 2491 3425 1978 
L 3425 0 
L 2847 0 
L 2847 2094 
Q 2847 2600 2669 2842 
Q 2491 3084 2119 3084 
Q 1678 3084 1418 2786 
Q 1159 2488 1159 1978 
L 1159 0 
L 581 0 
L 581 3500 
L 1159 3500 
L 1159 2956 
Q 1356 3278 1631 3431 
Q 1906 3584 2284 3584 
Q 2666 3584 2933 3390 
Q 3200 3197 3328 2828 
z
" id="DejaVuSans-6d" transform="scale(0.015625)"/>
       <path d="M 1959 3097 
Q 1497 3097 1228 2736 
Q 959 2375 959 1747 
Q 959 1119 1226 758 
Q 1494 397 1959 397 
Q 2419 397 2687 759 
Q 2956 1122 2956 1747 
Q 2956 2369 2687 2733 
Q 2419 3097 1959 3097 
z
M 1959 3584 
Q 2709 3584 3137 3096 
Q 3566 2609 3566 1747 
Q 3566 888 3137 398 
Q 2709 -91 1959 -91 
Q 1206 -91 779 398 
Q 353 888 353 1747 
Q 353 2609 779 3096 
Q 1206 3584 1959 3584 
z
" id="DejaVuSans-6f" transform="scale(0.015625)"/>
       <path d="M 3513 2113 
L 3513 0 
L 2938 0 
L 2938 2094 
Q 2938 2591 2744 2837 
Q 2550 3084 2163 3084 
Q 1697 3084 1428 2787 
Q 1159 2491 1159 1978 
L 1159 0 
L 581 0 
L 581 3500 
L 1159 3500 
L 1159 2956 
Q 1366 3272 1645 3428 
Q 1925 3584 2291 3584 
Q 2894 3584 3203 3211 
Q 3513 2838 3513 2113 
z
" id="DejaVuSans-6e" transform="scale(0.015625)"/>
       <path d="M 1172 4494 
L 1172 3500 
L 2356 3500 
L 2356 3053 
L 1172 3053 
L 1172 1153 
Q 1172 725 1289 603 
Q 1406 481 1766 481 
L 2356 481 
L 2356 0 
L 1766 0 
Q 1100 0 847 248 
Q 594 497 594 1153 
L 594 3053 
L 172 3053 
L 172 3500 
L 594 3500 
L 594 4494 
L 1172 4494 
z
" id="DejaVuSans-74" transform="scale(0.015625)"/>
       <path d="M 3513 2113 
L 3513 0 
L 2938 0 
L 2938 2094 
Q 2938 2591 2744 2837 
Q 2550 3084 2163 3084 
Q 1697 3084 1428 2787 
Q 1159 2491 1159 1978 
L 1159 0 
L 581 0 
L 581 4863 
L 1159 4863 
L 1159 2956 
Q 1366 3272 1645 3428 
Q 1925 3584 2291 3584 
Q 2894 3584 3203 3211 
Q 3513 2838 3513 2113 
z
" id="DejaVuSans-68" transform="scale(0.015625)"/>
       <path d="M 2834 3397 
L 2834 2853 
Q 2591 2978 2328 3040 
Q 2066 3103 1784 3103 
Q 1356 3103 1142 2972 
Q 928 2841 928 2578 
Q 928 2378 1081 2264 
Q 1234 2150 1697 2047 
L 1894 2003 
Q 2506 1872 2764 1633 
Q 3022 1394 3022 966 
Q 3022 478 2636 193 
Q 2250 -91 1575 -91 
Q 1294 -91 989 -36 
Q 684 19 347 128 
L 347 722 
Q 666 556 975 473 
Q 1284 391 1588 391 
Q 1994 391 2212 530 
Q 2431 669 2431 922 
Q 2431 1156 2273 1281 
Q 2116 1406 1581 1522 
L 1381 1569 
Q 847 1681 609 1914 
Q 372 2147 372 2553 
Q 372 3047 722 3315 
Q 1072 3584 1716 3584 
Q 2034 3584 2315 3537 
Q 2597 3491 2834 3397 
z
" id="DejaVuSans-73" transform="scale(0.015625)"/>
       <path d="M 513 4856 
L 1013 4856 
Q 1481 4119 1714 3412 
Q 1947 2706 1947 2009 
Q 1947 1309 1714 600 
Q 1481 -109 1013 -844 
L 513 -844 
Q 928 -128 1133 580 
Q 1338 1288 1338 2009 
Q 1338 2731 1133 3434 
Q 928 4138 513 4856 
z
" id="DejaVuSans-29" transform="scale(0.015625)"/>
      </defs>
      <use xlink:href="#DejaVuSans-41"/>
      <use x="68.408203" xlink:href="#DejaVuSans-67"/>
      <use x="131.884766" xlink:href="#DejaVuSans-65"/>
      <use x="193.408203" xlink:href="#DejaVuSans-20"/>
      <use x="225.195312" xlink:href="#DejaVuSans-28"/>
      <use x="264.208984" xlink:href="#DejaVuSans-6d"/>
      <use x="361.621094" xlink:href="#DejaVuSans-6f"/>
      <use x="422.802734" xlink:href="#DejaVuSans-6e"/>
      <use x="486.181641" xlink:href="#DejaVuSans-74"/>
      <use x="525.390625" xlink:href="#DejaVuSans-68"/>
      <use x="588.769531" xlink:href="#DejaVuSans-73"/>
      <use x="640.869141" xlink:href="#DejaVuSans-29"/>
     </g>
    </g>
   </g>
   <g id="matplotlib.axis_2">
    <g id="ytick_1">
     <g id="line2d_17">
      <path clip-path="url(#p5e54985989)" d="M 48.90125 179.94139 
L 484.737117 179.94139 
" style="fill:none;stroke:#ffffff;stroke-linecap:square;stroke-width:0.8;"/>
     </g>
     <g id="line2d_18">
      <defs>
       <path d="M 0 0 
L -3.5 0 
" id="me5f7fc2120" style="stroke:#000000;stroke-width:0.8;"/>
      </defs>
      <g>
       <use style="stroke:#000000;stroke-width:0.8;" x="48.90125" xlink:href="#me5f7fc2120" y="179.94139"/>
      </g>
     </g>
     <g id="text_10">
      <!-- 0 -->
      <g transform="translate(35.53875 183.740609)scale(0.1 -0.1)">
       <use xlink:href="#DejaVuSans-30"/>
      </g>
     </g>
    </g>
    <g id="ytick_2">
     <g id="line2d_19">
      <path clip-path="url(#p5e54985989)" d="M 48.90125 148.672139 
L 484.737117 148.672139 
" style="fill:none;stroke:#ffffff;stroke-linecap:square;stroke-width:0.8;"/>
     </g>
     <g id="line2d_20">
      <g>
       <use style="stroke:#000000;stroke-width:0.8;" x="48.90125" xlink:href="#me5f7fc2120" y="148.672139"/>
      </g>
     </g>
     <g id="text_11">
      <!-- 100 -->
      <g transform="translate(22.81375 152.471357)scale(0.1 -0.1)">
       <use xlink:href="#DejaVuSans-31"/>
       <use x="63.623047" xlink:href="#DejaVuSans-30"/>
       <use x="127.246094" xlink:href="#DejaVuSans-30"/>
      </g>
     </g>
    </g>
    <g id="ytick_3">
     <g id="line2d_21">
      <path clip-path="url(#p5e54985989)" d="M 48.90125 117.402887 
L 484.737117 117.402887 
" style="fill:none;stroke:#ffffff;stroke-linecap:square;stroke-width:0.8;"/>
     </g>
     <g id="line2d_22">
      <g>
       <use style="stroke:#000000;stroke-width:0.8;" x="48.90125" xlink:href="#me5f7fc2120" y="117.402887"/>
      </g>
     </g>
     <g id="text_12">
      <!-- 200 -->
      <g transform="translate(22.81375 121.202106)scale(0.1 -0.1)">
       <use xlink:href="#DejaVuSans-32"/>
       <use x="63.623047" xlink:href="#DejaVuSans-30"/>
       <use x="127.246094" xlink:href="#DejaVuSans-30"/>
      </g>
     </g>
    </g>
    <g id="text_13">
     <!-- Number of files -->
     <g transform="translate(16.318125 188.382038)rotate(-90)scale(0.12 -0.12)">
      <defs>
       <path d="M 628 4666 
L 1478 4666 
L 3547 763 
L 3547 4666 
L 4159 4666 
L 4159 0 
L 3309 0 
L 1241 3903 
L 1241 0 
L 628 0 
L 628 4666 
z
" id="DejaVuSans-4e" transform="scale(0.015625)"/>
       <path d="M 544 1381 
L 544 3500 
L 1119 3500 
L 1119 1403 
Q 1119 906 1312 657 
Q 1506 409 1894 409 
Q 2359 409 2629 706 
Q 2900 1003 2900 1516 
L 2900 3500 
L 3475 3500 
L 3475 0 
L 2900 0 
L 2900 538 
Q 2691 219 2414 64 
Q 2138 -91 1772 -91 
Q 1169 -91 856 284 
Q 544 659 544 1381 
z
M 1991 3584 
L 1991 3584 
z
" id="DejaVuSans-75" transform="scale(0.015625)"/>
       <path d="M 3116 1747 
Q 3116 2381 2855 2742 
Q 2594 3103 2138 3103 
Q 1681 3103 1420 2742 
Q 1159 2381 1159 1747 
Q 1159 1113 1420 752 
Q 1681 391 2138 391 
Q 2594 391 2855 752 
Q 3116 1113 3116 1747 
z
M 1159 2969 
Q 1341 3281 1617 3432 
Q 1894 3584 2278 3584 
Q 2916 3584 3314 3078 
Q 3713 2572 3713 1747 
Q 3713 922 3314 415 
Q 2916 -91 2278 -91 
Q 1894 -91 1617 61 
Q 1341 213 1159 525 
L 1159 0 
L 581 0 
L 581 4863 
L 1159 4863 
L 1159 2969 
z
" id="DejaVuSans-62" transform="scale(0.015625)"/>
       <path d="M 2631 2963 
Q 2534 3019 2420 3045 
Q 2306 3072 2169 3072 
Q 1681 3072 1420 2755 
Q 1159 2438 1159 1844 
L 1159 0 
L 581 0 
L 581 3500 
L 1159 3500 
L 1159 2956 
Q 1341 3275 1631 3429 
Q 1922 3584 2338 3584 
Q 2397 3584 2469 3576 
Q 2541 3569 2628 3553 
L 2631 2963 
z
" id="DejaVuSans-72" transform="scale(0.015625)"/>
       <path d="M 2375 4863 
L 2375 4384 
L 1825 4384 
Q 1516 4384 1395 4259 
Q 1275 4134 1275 3809 
L 1275 3500 
L 2222 3500 
L 2222 3053 
L 1275 3053 
L 1275 0 
L 697 0 
L 697 3053 
L 147 3053 
L 147 3500 
L 697 3500 
L 697 3744 
Q 697 4328 969 4595 
Q 1241 4863 1831 4863 
L 2375 4863 
z
" id="DejaVuSans-66" transform="scale(0.015625)"/>
       <path d="M 603 3500 
L 1178 3500 
L 1178 0 
L 603 0 
L 603 3500 
z
M 603 4863 
L 1178 4863 
L 1178 4134 
L 603 4134 
L 603 4863 
z
" id="DejaVuSans-69" transform="scale(0.015625)"/>
       <path d="M 603 4863 
L 1178 4863 
L 1178 0 
L 603 0 
L 603 4863 
z
" id="DejaVuSans-6c" transform="scale(0.015625)"/>
      </defs>
      <use xlink:href="#DejaVuSans-4e"/>
      <use x="74.804688" xlink:href="#DejaVuSans-75"/>
      <use x="138.183594" xlink:href="#DejaVuSans-6d"/>
      <use x="235.595703" xlink:href="#DejaVuSans-62"/>
      <use x="299.072266" xlink:href="#DejaVuSans-65"/>
      <use x="360.595703" xlink:href="#DejaVuSans-72"/>
      <use x="401.708984" xlink:href="#DejaVuSans-20"/>
      <use x="433.496094" xlink:href="#DejaVuSans-6f"/>
      <use x="494.677734" xlink:href="#DejaVuSans-66"/>
      <use x="529.882812" xlink:href="#DejaVuSans-20"/>
      <use x="561.669922" xlink:href="#DejaVuSans-66"/>
      <use x="596.875" xlink:href="#DejaVuSans-69"/>
      <use x="624.658203" xlink:href="#DejaVuSans-6c"/>
      <use x="652.441406" xlink:href="#DejaVuSans-65"/>
      <use x="713.964844" xlink:href="#DejaVuSans-73"/>
     </g>
    </g>
   </g>
   <g id="patch_3">
    <path clip-path="url(#p5e54985989)" d="M 68.711971 179.94139 
L 68.711971 149.610216 
L 74.214949 149.610216 
L 74.214949 179.94139 
L 107.232818 179.94139 
L 107.232818 140.854826 
L 112.735796 140.854826 
L 112.735796 179.94139 
L 123.741752 179.94139 
L 123.741752 155.551374 
L 129.24473 155.551374 
L 129.24473 145.232521 
L 134.747709 145.232521 
L 134.747709 179.94139 
L 140.250687 179.94139 
L 140.250687 179.316005 
L 145.753665 179.316005 
L 145.753665 179.94139 
L 151.256643 179.94139 
L 151.256643 179.628698 
L 162.262599 179.628698 
L 162.262599 179.003313 
L 167.765577 179.003313 
L 167.765577 161.805224 
L 173.268555 161.805224 
L 173.268555 177.752543 
L 178.771534 177.752543 
L 178.771534 169.309845 
L 184.274512 169.309845 
L 184.274512 176.501773 
L 189.77749 176.501773 
L 189.77749 172.749462 
L 195.280468 172.749462 
L 195.280468 177.127158 
L 200.783446 177.127158 
L 200.783446 138.665978 
L 206.286424 138.665978 
L 206.286424 176.814465 
L 211.789402 176.814465 
L 211.789402 170.560615 
L 217.29238 170.560615 
L 217.29238 174.000232 
L 222.795358 174.000232 
L 222.795358 148.984831 
L 228.298337 148.984831 
L 228.298337 174.000232 
L 233.801315 174.000232 
L 233.801315 175.563695 
L 239.304293 175.563695 
L 239.304293 174.000232 
L 244.807271 174.000232 
L 244.807271 173.374847 
L 250.310249 173.374847 
L 250.310249 174.312925 
L 255.813227 174.312925 
L 255.813227 176.501773 
L 261.316205 176.501773 
L 261.316205 176.18908 
L 266.819183 176.18908 
L 266.819183 175.251003 
L 272.322161 175.251003 
L 272.322161 176.814465 
L 277.82514 176.814465 
L 277.82514 176.18908 
L 283.328118 176.18908 
L 283.328118 175.876388 
L 288.831096 175.876388 
L 288.831096 174.000232 
L 294.334074 174.000232 
L 294.334074 176.501773 
L 299.837052 176.501773 
L 299.837052 177.127158 
L 305.34003 177.127158 
L 305.34003 173.062155 
L 316.345986 173.062155 
L 316.345986 171.498692 
L 321.848964 171.498692 
L 321.848964 172.749462 
L 332.854921 172.749462 
L 332.854921 170.247922 
L 338.357899 170.247922 
L 338.357899 172.124077 
L 343.860877 172.124077 
L 343.860877 172.43677 
L 349.363855 172.43677 
L 349.363855 174.312925 
L 354.866833 174.312925 
L 354.866833 176.501773 
L 360.369811 176.501773 
L 360.369811 175.563695 
L 365.872789 175.563695 
L 365.872789 175.251003 
L 371.375768 175.251003 
L 371.375768 174.000232 
L 376.878746 174.000232 
L 376.878746 176.814465 
L 382.381724 176.814465 
L 382.381724 159.303684 
L 387.884702 159.303684 
L 387.884702 175.876388 
L 393.38768 175.876388 
L 393.38768 173.68754 
L 398.890658 173.68754 
L 398.890658 177.127158 
L 404.393636 177.127158 
L 404.393636 175.563695 
L 415.399592 175.563695 
L 415.399592 177.127158 
L 420.902571 177.127158 
L 420.902571 174.625617 
L 426.405549 174.625617 
L 426.405549 177.43985 
L 431.908527 177.43985 
L 431.908527 173.062155 
L 437.411505 173.062155 
L 437.411505 172.43677 
L 442.914483 172.43677 
L 442.914483 172.749462 
L 448.417461 172.749462 
L 448.417461 174.312925 
L 453.920439 174.312925 
L 453.920439 174.625617 
L 459.423417 174.625617 
L 459.423417 171.186 
L 464.926395 171.186 
L 464.926395 179.94139 
L 464.926395 179.94139 
" style="fill:none;stroke:#2f934d;stroke-linejoin:miter;stroke-width:1.3;"/>
   </g>
   <g id="patch_4">
    <path d="M 48.90125 183.068315 
L 48.90125 101.768261 
" style="fill:none;stroke:#000000;stroke-linecap:square;stroke-linejoin:miter;stroke-width:0.8;"/>
   </g>
   <g id="patch_5">
    <path d="M 48.90125 183.068315 
L 484.737117 183.068315 
" style="fill:none;stroke:#000000;stroke-linecap:square;stroke-linejoin:miter;stroke-width:0.8;"/>
   </g>
   <g id="text_14">
    <!--  -->
    <g transform="translate(48.90125 62.174824)scale(0.15 -0.15)"/>
    <!-- A. Age -->
    <g transform="translate(48.90125 78.971542)scale(0.15 -0.15)">
     <defs>
      <path d="M 684 794 
L 1344 794 
L 1344 0 
L 684 0 
L 684 794 
z
" id="DejaVuSans-2e" transform="scale(0.015625)"/>
     </defs>
     <use xlink:href="#DejaVuSans-41"/>
     <use x="66.658203" xlink:href="#DejaVuSans-2e"/>
     <use x="98.445312" xlink:href="#DejaVuSans-20"/>
     <use x="130.232422" xlink:href="#DejaVuSans-41"/>
     <use x="198.640625" xlink:href="#DejaVuSans-67"/>
     <use x="262.117188" xlink:href="#DejaVuSans-65"/>
    </g>
    <!--  -->
    <g transform="translate(48.90125 95.768261)scale(0.15 -0.15)"/>
   </g>
  </g>
  <g id="axes_2">
   <g id="patch_6">
    <path d="M 502.738557 183.068315 
L 711.65577 183.068315 
L 711.65577 101.768261 
L 502.738557 101.768261 
z
" style="fill:#ffffff;"/>
   </g>
   <g id="patch_7">
    <path clip-path="url(#p00c99c0a36)" d="M 512.234794 183.068315 
L 702.159533 183.068315 
L 702.159533 142.195073 
L 512.234794 142.195073 
z
" style="fill:#e5f5ac;stroke:#ffffff;stroke-linejoin:miter;"/>
   </g>
   <g id="patch_8">
    <path clip-path="url(#p00c99c0a36)" d="M 512.234794 142.195073 
L 702.159533 142.195073 
L 702.159533 107.175037 
L 512.234794 107.175037 
z
" style="fill:#b6e192;stroke:#ffffff;stroke-linejoin:miter;"/>
   </g>
   <g id="patch_9">
    <path clip-path="url(#p00c99c0a36)" d="M 512.234794 107.175037 
L 702.159533 107.175037 
L 702.159533 101.768261 
L 512.234794 101.768261 
z
" style="fill:#77c679;stroke:#ffffff;stroke-linejoin:miter;"/>
   </g>
   <g id="text_15">
    <!-- FEMALE, N = 824 -->
    <g transform="translate(563.651851 165.391069)scale(0.1 -0.1)">
     <defs>
      <path d="M 628 4666 
L 3309 4666 
L 3309 4134 
L 1259 4134 
L 1259 2759 
L 3109 2759 
L 3109 2228 
L 1259 2228 
L 1259 0 
L 628 0 
L 628 4666 
z
" id="DejaVuSans-46" transform="scale(0.015625)"/>
      <path d="M 628 4666 
L 3578 4666 
L 3578 4134 
L 1259 4134 
L 1259 2753 
L 3481 2753 
L 3481 2222 
L 1259 2222 
L 1259 531 
L 3634 531 
L 3634 0 
L 628 0 
L 628 4666 
z
" id="DejaVuSans-45" transform="scale(0.015625)"/>
      <path d="M 628 4666 
L 1569 4666 
L 2759 1491 
L 3956 4666 
L 4897 4666 
L 4897 0 
L 4281 0 
L 4281 4097 
L 3078 897 
L 2444 897 
L 1241 4097 
L 1241 0 
L 628 0 
L 628 4666 
z
" id="DejaVuSans-4d" transform="scale(0.015625)"/>
      <path d="M 628 4666 
L 1259 4666 
L 1259 531 
L 3531 531 
L 3531 0 
L 628 0 
L 628 4666 
z
" id="DejaVuSans-4c" transform="scale(0.015625)"/>
      <path d="M 750 794 
L 1409 794 
L 1409 256 
L 897 -744 
L 494 -744 
L 750 256 
L 750 794 
z
" id="DejaVuSans-2c" transform="scale(0.015625)"/>
      <path d="M 678 2906 
L 4684 2906 
L 4684 2381 
L 678 2381 
L 678 2906 
z
M 678 1631 
L 4684 1631 
L 4684 1100 
L 678 1100 
L 678 1631 
z
" id="DejaVuSans-3d" transform="scale(0.015625)"/>
      <path d="M 2034 2216 
Q 1584 2216 1326 1975 
Q 1069 1734 1069 1313 
Q 1069 891 1326 650 
Q 1584 409 2034 409 
Q 2484 409 2743 651 
Q 3003 894 3003 1313 
Q 3003 1734 2745 1975 
Q 2488 2216 2034 2216 
z
M 1403 2484 
Q 997 2584 770 2862 
Q 544 3141 544 3541 
Q 544 4100 942 4425 
Q 1341 4750 2034 4750 
Q 2731 4750 3128 4425 
Q 3525 4100 3525 3541 
Q 3525 3141 3298 2862 
Q 3072 2584 2669 2484 
Q 3125 2378 3379 2068 
Q 3634 1759 3634 1313 
Q 3634 634 3220 271 
Q 2806 -91 2034 -91 
Q 1263 -91 848 271 
Q 434 634 434 1313 
Q 434 1759 690 2068 
Q 947 2378 1403 2484 
z
M 1172 3481 
Q 1172 3119 1398 2916 
Q 1625 2713 2034 2713 
Q 2441 2713 2670 2916 
Q 2900 3119 2900 3481 
Q 2900 3844 2670 4047 
Q 2441 4250 2034 4250 
Q 1625 4250 1398 4047 
Q 1172 3844 1172 3481 
z
" id="DejaVuSans-38" transform="scale(0.015625)"/>
     </defs>
     <use xlink:href="#DejaVuSans-46"/>
     <use x="57.519531" xlink:href="#DejaVuSans-45"/>
     <use x="120.703125" xlink:href="#DejaVuSans-4d"/>
     <use x="206.982422" xlink:href="#DejaVuSans-41"/>
     <use x="275.390625" xlink:href="#DejaVuSans-4c"/>
     <use x="331.103516" xlink:href="#DejaVuSans-45"/>
     <use x="394.287109" xlink:href="#DejaVuSans-2c"/>
     <use x="426.074219" xlink:href="#DejaVuSans-20"/>
     <use x="457.861328" xlink:href="#DejaVuSans-4e"/>
     <use x="532.666016" xlink:href="#DejaVuSans-20"/>
     <use x="564.453125" xlink:href="#DejaVuSans-3d"/>
     <use x="648.242188" xlink:href="#DejaVuSans-20"/>
     <use x="680.029297" xlink:href="#DejaVuSans-38"/>
     <use x="743.652344" xlink:href="#DejaVuSans-32"/>
     <use x="807.275391" xlink:href="#DejaVuSans-34"/>
    </g>
   </g>
   <g id="text_16">
    <!-- MALE, N = 706 -->
    <g transform="translate(569.687007 127.44443)scale(0.1 -0.1)">
     <use xlink:href="#DejaVuSans-4d"/>
     <use x="86.279297" xlink:href="#DejaVuSans-41"/>
     <use x="154.6875" xlink:href="#DejaVuSans-4c"/>
     <use x="210.400391" xlink:href="#DejaVuSans-45"/>
     <use x="273.583984" xlink:href="#DejaVuSans-2c"/>
     <use x="305.371094" xlink:href="#DejaVuSans-20"/>
     <use x="337.158203" xlink:href="#DejaVuSans-4e"/>
     <use x="411.962891" xlink:href="#DejaVuSans-20"/>
     <use x="443.75" xlink:href="#DejaVuSans-3d"/>
     <use x="527.539062" xlink:href="#DejaVuSans-20"/>
     <use x="559.326172" xlink:href="#DejaVuSans-37"/>
     <use x="622.949219" xlink:href="#DejaVuSans-30"/>
     <use x="686.572266" xlink:href="#DejaVuSans-36"/>
    </g>
   </g>
   <g id="text_17">
    <!-- UNSPECIFIED, N = 109 -->
    <g transform="translate(550.291695 107.231024)scale(0.1 -0.1)">
     <defs>
      <path d="M 556 4666 
L 1191 4666 
L 1191 1831 
Q 1191 1081 1462 751 
Q 1734 422 2344 422 
Q 2950 422 3222 751 
Q 3494 1081 3494 1831 
L 3494 4666 
L 4128 4666 
L 4128 1753 
Q 4128 841 3676 375 
Q 3225 -91 2344 -91 
Q 1459 -91 1007 375 
Q 556 841 556 1753 
L 556 4666 
z
" id="DejaVuSans-55" transform="scale(0.015625)"/>
      <path d="M 3425 4513 
L 3425 3897 
Q 3066 4069 2747 4153 
Q 2428 4238 2131 4238 
Q 1616 4238 1336 4038 
Q 1056 3838 1056 3469 
Q 1056 3159 1242 3001 
Q 1428 2844 1947 2747 
L 2328 2669 
Q 3034 2534 3370 2195 
Q 3706 1856 3706 1288 
Q 3706 609 3251 259 
Q 2797 -91 1919 -91 
Q 1588 -91 1214 -16 
Q 841 59 441 206 
L 441 856 
Q 825 641 1194 531 
Q 1563 422 1919 422 
Q 2459 422 2753 634 
Q 3047 847 3047 1241 
Q 3047 1584 2836 1778 
Q 2625 1972 2144 2069 
L 1759 2144 
Q 1053 2284 737 2584 
Q 422 2884 422 3419 
Q 422 4038 858 4394 
Q 1294 4750 2059 4750 
Q 2388 4750 2728 4690 
Q 3069 4631 3425 4513 
z
" id="DejaVuSans-53" transform="scale(0.015625)"/>
      <path d="M 1259 4147 
L 1259 2394 
L 2053 2394 
Q 2494 2394 2734 2622 
Q 2975 2850 2975 3272 
Q 2975 3691 2734 3919 
Q 2494 4147 2053 4147 
L 1259 4147 
z
M 628 4666 
L 2053 4666 
Q 2838 4666 3239 4311 
Q 3641 3956 3641 3272 
Q 3641 2581 3239 2228 
Q 2838 1875 2053 1875 
L 1259 1875 
L 1259 0 
L 628 0 
L 628 4666 
z
" id="DejaVuSans-50" transform="scale(0.015625)"/>
      <path d="M 4122 4306 
L 4122 3641 
Q 3803 3938 3442 4084 
Q 3081 4231 2675 4231 
Q 1875 4231 1450 3742 
Q 1025 3253 1025 2328 
Q 1025 1406 1450 917 
Q 1875 428 2675 428 
Q 3081 428 3442 575 
Q 3803 722 4122 1019 
L 4122 359 
Q 3791 134 3420 21 
Q 3050 -91 2638 -91 
Q 1578 -91 968 557 
Q 359 1206 359 2328 
Q 359 3453 968 4101 
Q 1578 4750 2638 4750 
Q 3056 4750 3426 4639 
Q 3797 4528 4122 4306 
z
" id="DejaVuSans-43" transform="scale(0.015625)"/>
      <path d="M 628 4666 
L 1259 4666 
L 1259 0 
L 628 0 
L 628 4666 
z
" id="DejaVuSans-49" transform="scale(0.015625)"/>
      <path d="M 1259 4147 
L 1259 519 
L 2022 519 
Q 2988 519 3436 956 
Q 3884 1394 3884 2338 
Q 3884 3275 3436 3711 
Q 2988 4147 2022 4147 
L 1259 4147 
z
M 628 4666 
L 1925 4666 
Q 3281 4666 3915 4102 
Q 4550 3538 4550 2338 
Q 4550 1131 3912 565 
Q 3275 0 1925 0 
L 628 0 
L 628 4666 
z
" id="DejaVuSans-44" transform="scale(0.015625)"/>
      <path d="M 703 97 
L 703 672 
Q 941 559 1184 500 
Q 1428 441 1663 441 
Q 2288 441 2617 861 
Q 2947 1281 2994 2138 
Q 2813 1869 2534 1725 
Q 2256 1581 1919 1581 
Q 1219 1581 811 2004 
Q 403 2428 403 3163 
Q 403 3881 828 4315 
Q 1253 4750 1959 4750 
Q 2769 4750 3195 4129 
Q 3622 3509 3622 2328 
Q 3622 1225 3098 567 
Q 2575 -91 1691 -91 
Q 1453 -91 1209 -44 
Q 966 3 703 97 
z
M 1959 2075 
Q 2384 2075 2632 2365 
Q 2881 2656 2881 3163 
Q 2881 3666 2632 3958 
Q 2384 4250 1959 4250 
Q 1534 4250 1286 3958 
Q 1038 3666 1038 3163 
Q 1038 2656 1286 2365 
Q 1534 2075 1959 2075 
z
" id="DejaVuSans-39" transform="scale(0.015625)"/>
     </defs>
     <use xlink:href="#DejaVuSans-55"/>
     <use x="73.193359" xlink:href="#DejaVuSans-4e"/>
     <use x="147.998047" xlink:href="#DejaVuSans-53"/>
     <use x="211.474609" xlink:href="#DejaVuSans-50"/>
     <use x="271.777344" xlink:href="#DejaVuSans-45"/>
     <use x="334.960938" xlink:href="#DejaVuSans-43"/>
     <use x="404.785156" xlink:href="#DejaVuSans-49"/>
     <use x="434.277344" xlink:href="#DejaVuSans-46"/>
     <use x="491.796875" xlink:href="#DejaVuSans-49"/>
     <use x="521.289062" xlink:href="#DejaVuSans-45"/>
     <use x="584.472656" xlink:href="#DejaVuSans-44"/>
     <use x="661.474609" xlink:href="#DejaVuSans-2c"/>
     <use x="693.261719" xlink:href="#DejaVuSans-20"/>
     <use x="725.048828" xlink:href="#DejaVuSans-4e"/>
     <use x="799.853516" xlink:href="#DejaVuSans-20"/>
     <use x="831.640625" xlink:href="#DejaVuSans-3d"/>
     <use x="915.429688" xlink:href="#DejaVuSans-20"/>
     <use x="947.216797" xlink:href="#DejaVuSans-31"/>
     <use x="1010.839844" xlink:href="#DejaVuSans-30"/>
     <use x="1074.462891" xlink:href="#DejaVuSans-39"/>
    </g>
   </g>
   <g id="text_18">
    <!--  -->
    <g transform="translate(502.738557 62.174824)scale(0.15 -0.15)"/>
    <!-- B. Sex -->
    <g transform="translate(502.738557 78.971542)scale(0.15 -0.15)">
     <defs>
      <path d="M 1259 2228 
L 1259 519 
L 2272 519 
Q 2781 519 3026 730 
Q 3272 941 3272 1375 
Q 3272 1813 3026 2020 
Q 2781 2228 2272 2228 
L 1259 2228 
z
M 1259 4147 
L 1259 2741 
L 2194 2741 
Q 2656 2741 2882 2914 
Q 3109 3088 3109 3444 
Q 3109 3797 2882 3972 
Q 2656 4147 2194 4147 
L 1259 4147 
z
M 628 4666 
L 2241 4666 
Q 2963 4666 3353 4366 
Q 3744 4066 3744 3513 
Q 3744 3084 3544 2831 
Q 3344 2578 2956 2516 
Q 3422 2416 3680 2098 
Q 3938 1781 3938 1306 
Q 3938 681 3513 340 
Q 3088 0 2303 0 
L 628 0 
L 628 4666 
z
" id="DejaVuSans-42" transform="scale(0.015625)"/>
      <path d="M 3513 3500 
L 2247 1797 
L 3578 0 
L 2900 0 
L 1881 1375 
L 863 0 
L 184 0 
L 1544 1831 
L 300 3500 
L 978 3500 
L 1906 2253 
L 2834 3500 
L 3513 3500 
z
" id="DejaVuSans-78" transform="scale(0.015625)"/>
     </defs>
     <use xlink:href="#DejaVuSans-42"/>
     <use x="68.603516" xlink:href="#DejaVuSans-2e"/>
     <use x="100.390625" xlink:href="#DejaVuSans-20"/>
     <use x="132.177734" xlink:href="#DejaVuSans-53"/>
     <use x="195.654297" xlink:href="#DejaVuSans-65"/>
     <use x="255.427734" xlink:href="#DejaVuSans-78"/>
    </g>
    <!--  -->
    <g transform="translate(502.738557 95.768261)scale(0.15 -0.15)"/>
   </g>
  </g>
  <g id="axes_3">
   <g id="patch_10">
    <path d="M 48.90125 597.551981 
L 257.818463 597.551981 
L 257.818463 272.351764 
L 48.90125 272.351764 
z
" style="fill:#ffffff;"/>
   </g>
   <g id="patch_11">
    <path clip-path="url(#pf29296c1eb)" d="M 58.397487 597.551981 
L 248.322226 597.551981 
L 248.322226 466.003632 
L 58.397487 466.003632 
z
" style="fill:#e5f5ac;stroke:#ffffff;stroke-linejoin:miter;stroke-width:0.5;"/>
   </g>
   <g id="patch_12">
    <path clip-path="url(#pf29296c1eb)" d="M 58.397487 466.003632 
L 248.322226 466.003632 
L 248.322226 345.169628 
L 58.397487 345.169628 
z
" style="fill:#a2d88a;stroke:#ffffff;stroke-linejoin:miter;stroke-width:0.5;"/>
   </g>
   <g id="patch_13">
    <path clip-path="url(#pf29296c1eb)" d="M 58.397487 345.169628 
L 248.322226 345.169628 
L 248.322226 285.843902 
L 58.397487 285.843902 
z
" style="fill:#4cb063;stroke:#ffffff;stroke-linejoin:miter;stroke-width:0.5;"/>
   </g>
   <g id="patch_14">
    <path clip-path="url(#pf29296c1eb)" d="M 58.397487 285.843902 
L 248.322226 285.843902 
L 248.322226 272.351764 
L 58.397487 272.351764 
z
" style="fill:#15793e;stroke:#ffffff;stroke-linejoin:miter;stroke-width:0.5;"/>
   </g>
   <g id="matplotlib.axis_3">
    <g id="ytick_4">
     <g id="line2d_23">
      <g>
       <use style="stroke:#000000;stroke-width:0.8;" x="48.90125" xlink:href="#me5f7fc2120" y="597.551981"/>
      </g>
     </g>
     <g id="text_19">
      <!-- 0 -->
      <g transform="translate(35.53875 601.3512)scale(0.1 -0.1)">
       <use xlink:href="#DejaVuSans-30"/>
      </g>
     </g>
    </g>
    <g id="ytick_5">
     <g id="line2d_24">
      <g>
       <use style="stroke:#000000;stroke-width:0.8;" x="48.90125" xlink:href="#me5f7fc2120" y="532.511937"/>
      </g>
     </g>
     <g id="text_20">
      <!-- 20 -->
      <g transform="translate(29.17625 536.311156)scale(0.1 -0.1)">
       <use xlink:href="#DejaVuSans-32"/>
       <use x="63.623047" xlink:href="#DejaVuSans-30"/>
      </g>
     </g>
    </g>
    <g id="ytick_6">
     <g id="line2d_25">
      <g>
       <use style="stroke:#000000;stroke-width:0.8;" x="48.90125" xlink:href="#me5f7fc2120" y="467.471894"/>
      </g>
     </g>
     <g id="text_21">
      <!-- 40 -->
      <g transform="translate(29.17625 471.271113)scale(0.1 -0.1)">
       <use xlink:href="#DejaVuSans-34"/>
       <use x="63.623047" xlink:href="#DejaVuSans-30"/>
      </g>
     </g>
    </g>
    <g id="ytick_7">
     <g id="line2d_26">
      <g>
       <use style="stroke:#000000;stroke-width:0.8;" x="48.90125" xlink:href="#me5f7fc2120" y="402.431851"/>
      </g>
     </g>
     <g id="text_22">
      <!-- 60 -->
      <g transform="translate(29.17625 406.23107)scale(0.1 -0.1)">
       <use xlink:href="#DejaVuSans-36"/>
       <use x="63.623047" xlink:href="#DejaVuSans-30"/>
      </g>
     </g>
    </g>
    <g id="ytick_8">
     <g id="line2d_27">
      <g>
       <use style="stroke:#000000;stroke-width:0.8;" x="48.90125" xlink:href="#me5f7fc2120" y="337.391807"/>
      </g>
     </g>
     <g id="text_23">
      <!-- 80 -->
      <g transform="translate(29.17625 341.191026)scale(0.1 -0.1)">
       <use xlink:href="#DejaVuSans-38"/>
       <use x="63.623047" xlink:href="#DejaVuSans-30"/>
      </g>
     </g>
    </g>
    <g id="ytick_9">
     <g id="line2d_28">
      <g>
       <use style="stroke:#000000;stroke-width:0.8;" x="48.90125" xlink:href="#me5f7fc2120" y="272.351764"/>
      </g>
     </g>
     <g id="text_24">
      <!-- 100 -->
      <g transform="translate(22.81375 276.150983)scale(0.1 -0.1)">
       <use xlink:href="#DejaVuSans-31"/>
       <use x="63.623047" xlink:href="#DejaVuSans-30"/>
       <use x="127.246094" xlink:href="#DejaVuSans-30"/>
      </g>
     </g>
    </g>
    <g id="text_25">
     <!-- Percentage total, % -->
     <g transform="translate(16.318125 493.839997)rotate(-90)scale(0.12 -0.12)">
      <defs>
       <path d="M 3122 3366 
L 3122 2828 
Q 2878 2963 2633 3030 
Q 2388 3097 2138 3097 
Q 1578 3097 1268 2742 
Q 959 2388 959 1747 
Q 959 1106 1268 751 
Q 1578 397 2138 397 
Q 2388 397 2633 464 
Q 2878 531 3122 666 
L 3122 134 
Q 2881 22 2623 -34 
Q 2366 -91 2075 -91 
Q 1284 -91 818 406 
Q 353 903 353 1747 
Q 353 2603 823 3093 
Q 1294 3584 2113 3584 
Q 2378 3584 2631 3529 
Q 2884 3475 3122 3366 
z
" id="DejaVuSans-63" transform="scale(0.015625)"/>
       <path d="M 2194 1759 
Q 1497 1759 1228 1600 
Q 959 1441 959 1056 
Q 959 750 1161 570 
Q 1363 391 1709 391 
Q 2188 391 2477 730 
Q 2766 1069 2766 1631 
L 2766 1759 
L 2194 1759 
z
M 3341 1997 
L 3341 0 
L 2766 0 
L 2766 531 
Q 2569 213 2275 61 
Q 1981 -91 1556 -91 
Q 1019 -91 701 211 
Q 384 513 384 1019 
Q 384 1609 779 1909 
Q 1175 2209 1959 2209 
L 2766 2209 
L 2766 2266 
Q 2766 2663 2505 2880 
Q 2244 3097 1772 3097 
Q 1472 3097 1187 3025 
Q 903 2953 641 2809 
L 641 3341 
Q 956 3463 1253 3523 
Q 1550 3584 1831 3584 
Q 2591 3584 2966 3190 
Q 3341 2797 3341 1997 
z
" id="DejaVuSans-61" transform="scale(0.015625)"/>
       <path d="M 4653 2053 
Q 4381 2053 4226 1822 
Q 4072 1591 4072 1178 
Q 4072 772 4226 539 
Q 4381 306 4653 306 
Q 4919 306 5073 539 
Q 5228 772 5228 1178 
Q 5228 1588 5073 1820 
Q 4919 2053 4653 2053 
z
M 4653 2450 
Q 5147 2450 5437 2106 
Q 5728 1763 5728 1178 
Q 5728 594 5436 251 
Q 5144 -91 4653 -91 
Q 4153 -91 3862 251 
Q 3572 594 3572 1178 
Q 3572 1766 3864 2108 
Q 4156 2450 4653 2450 
z
M 1428 4353 
Q 1159 4353 1004 4120 
Q 850 3888 850 3481 
Q 850 3069 1003 2837 
Q 1156 2606 1428 2606 
Q 1700 2606 1854 2837 
Q 2009 3069 2009 3481 
Q 2009 3884 1853 4118 
Q 1697 4353 1428 4353 
z
M 4250 4750 
L 4750 4750 
L 1831 -91 
L 1331 -91 
L 4250 4750 
z
M 1428 4750 
Q 1922 4750 2215 4408 
Q 2509 4066 2509 3481 
Q 2509 2891 2217 2550 
Q 1925 2209 1428 2209 
Q 931 2209 642 2551 
Q 353 2894 353 3481 
Q 353 4063 643 4406 
Q 934 4750 1428 4750 
z
" id="DejaVuSans-25" transform="scale(0.015625)"/>
      </defs>
      <use xlink:href="#DejaVuSans-50"/>
      <use x="56.677734" xlink:href="#DejaVuSans-65"/>
      <use x="118.201172" xlink:href="#DejaVuSans-72"/>
      <use x="157.064453" xlink:href="#DejaVuSans-63"/>
      <use x="212.044922" xlink:href="#DejaVuSans-65"/>
      <use x="273.568359" xlink:href="#DejaVuSans-6e"/>
      <use x="336.947266" xlink:href="#DejaVuSans-74"/>
      <use x="376.15625" xlink:href="#DejaVuSans-61"/>
      <use x="437.435547" xlink:href="#DejaVuSans-67"/>
      <use x="500.912109" xlink:href="#DejaVuSans-65"/>
      <use x="562.435547" xlink:href="#DejaVuSans-20"/>
      <use x="594.222656" xlink:href="#DejaVuSans-74"/>
      <use x="633.431641" xlink:href="#DejaVuSans-6f"/>
      <use x="694.613281" xlink:href="#DejaVuSans-74"/>
      <use x="733.822266" xlink:href="#DejaVuSans-61"/>
      <use x="795.101562" xlink:href="#DejaVuSans-6c"/>
      <use x="822.884766" xlink:href="#DejaVuSans-2c"/>
      <use x="854.671875" xlink:href="#DejaVuSans-20"/>
      <use x="886.458984" xlink:href="#DejaVuSans-25"/>
     </g>
    </g>
   </g>
   <g id="patch_15">
    <path d="M 48.90125 597.551981 
L 48.90125 272.351764 
" style="fill:none;stroke:#000000;stroke-linecap:square;stroke-linejoin:miter;stroke-width:0.8;"/>
   </g>
   <g id="text_26">
    <!-- WC, N = 663 -->
    <g transform="translate(121.094232 534.537181)scale(0.1 -0.1)">
     <defs>
      <path d="M 213 4666 
L 850 4666 
L 1831 722 
L 2809 4666 
L 3519 4666 
L 4500 722 
L 5478 4666 
L 6119 4666 
L 4947 0 
L 4153 0 
L 3169 4050 
L 2175 0 
L 1381 0 
L 213 4666 
z
" id="DejaVuSans-57" transform="scale(0.015625)"/>
     </defs>
     <use xlink:href="#DejaVuSans-57"/>
     <use x="98.876953" xlink:href="#DejaVuSans-43"/>
     <use x="168.701172" xlink:href="#DejaVuSans-2c"/>
     <use x="200.488281" xlink:href="#DejaVuSans-20"/>
     <use x="232.275391" xlink:href="#DejaVuSans-4e"/>
     <use x="307.080078" xlink:href="#DejaVuSans-20"/>
     <use x="338.867188" xlink:href="#DejaVuSans-3d"/>
     <use x="422.65625" xlink:href="#DejaVuSans-20"/>
     <use x="454.443359" xlink:href="#DejaVuSans-36"/>
     <use x="518.066406" xlink:href="#DejaVuSans-36"/>
     <use x="581.689453" xlink:href="#DejaVuSans-33"/>
    </g>
   </g>
   <g id="text_27">
    <!-- UNSPECIFIED, N = 609 -->
    <g transform="translate(96.454388 408.346005)scale(0.1 -0.1)">
     <use xlink:href="#DejaVuSans-55"/>
     <use x="73.193359" xlink:href="#DejaVuSans-4e"/>
     <use x="147.998047" xlink:href="#DejaVuSans-53"/>
     <use x="211.474609" xlink:href="#DejaVuSans-50"/>
     <use x="271.777344" xlink:href="#DejaVuSans-45"/>
     <use x="334.960938" xlink:href="#DejaVuSans-43"/>
     <use x="404.785156" xlink:href="#DejaVuSans-49"/>
     <use x="434.277344" xlink:href="#DejaVuSans-46"/>
     <use x="491.796875" xlink:href="#DejaVuSans-49"/>
     <use x="521.289062" xlink:href="#DejaVuSans-45"/>
     <use x="584.472656" xlink:href="#DejaVuSans-44"/>
     <use x="661.474609" xlink:href="#DejaVuSans-2c"/>
     <use x="693.261719" xlink:href="#DejaVuSans-20"/>
     <use x="725.048828" xlink:href="#DejaVuSans-4e"/>
     <use x="799.853516" xlink:href="#DejaVuSans-20"/>
     <use x="831.640625" xlink:href="#DejaVuSans-3d"/>
     <use x="915.429688" xlink:href="#DejaVuSans-20"/>
     <use x="947.216797" xlink:href="#DejaVuSans-36"/>
     <use x="1010.839844" xlink:href="#DejaVuSans-30"/>
     <use x="1074.462891" xlink:href="#DejaVuSans-39"/>
    </g>
   </g>
   <g id="text_28">
    <!-- MC, N = 299 -->
    <g transform="translate(121.723919 318.26614)scale(0.1 -0.1)">
     <use xlink:href="#DejaVuSans-4d"/>
     <use x="86.279297" xlink:href="#DejaVuSans-43"/>
     <use x="156.103516" xlink:href="#DejaVuSans-2c"/>
     <use x="187.890625" xlink:href="#DejaVuSans-20"/>
     <use x="219.677734" xlink:href="#DejaVuSans-4e"/>
     <use x="294.482422" xlink:href="#DejaVuSans-20"/>
     <use x="326.269531" xlink:href="#DejaVuSans-3d"/>
     <use x="410.058594" xlink:href="#DejaVuSans-20"/>
     <use x="441.845703" xlink:href="#DejaVuSans-32"/>
     <use x="505.46875" xlink:href="#DejaVuSans-39"/>
     <use x="569.091797" xlink:href="#DejaVuSans-39"/>
    </g>
   </g>
   <g id="text_29">
    <!-- UC, N = 68 -->
    <g transform="translate(125.559857 281.857208)scale(0.1 -0.1)">
     <use xlink:href="#DejaVuSans-55"/>
     <use x="73.193359" xlink:href="#DejaVuSans-43"/>
     <use x="143.017578" xlink:href="#DejaVuSans-2c"/>
     <use x="174.804688" xlink:href="#DejaVuSans-20"/>
     <use x="206.591797" xlink:href="#DejaVuSans-4e"/>
     <use x="281.396484" xlink:href="#DejaVuSans-20"/>
     <use x="313.183594" xlink:href="#DejaVuSans-3d"/>
     <use x="396.972656" xlink:href="#DejaVuSans-20"/>
     <use x="428.759766" xlink:href="#DejaVuSans-36"/>
     <use x="492.382812" xlink:href="#DejaVuSans-38"/>
    </g>
   </g>
   <g id="text_30">
    <!--  -->
    <g transform="translate(48.90125 232.758327)scale(0.15 -0.15)"/>
    <!-- C. Socioeconomic status -->
    <g transform="translate(48.90125 249.555045)scale(0.15 -0.15)">
     <use xlink:href="#DejaVuSans-43"/>
     <use x="69.824219" xlink:href="#DejaVuSans-2e"/>
     <use x="101.611328" xlink:href="#DejaVuSans-20"/>
     <use x="133.398438" xlink:href="#DejaVuSans-53"/>
     <use x="196.875" xlink:href="#DejaVuSans-6f"/>
     <use x="258.056641" xlink:href="#DejaVuSans-63"/>
     <use x="313.037109" xlink:href="#DejaVuSans-69"/>
     <use x="340.820312" xlink:href="#DejaVuSans-6f"/>
     <use x="402.001953" xlink:href="#DejaVuSans-65"/>
     <use x="463.525391" xlink:href="#DejaVuSans-63"/>
     <use x="518.505859" xlink:href="#DejaVuSans-6f"/>
     <use x="579.6875" xlink:href="#DejaVuSans-6e"/>
     <use x="643.066406" xlink:href="#DejaVuSans-6f"/>
     <use x="704.248047" xlink:href="#DejaVuSans-6d"/>
     <use x="801.660156" xlink:href="#DejaVuSans-69"/>
     <use x="829.443359" xlink:href="#DejaVuSans-63"/>
     <use x="884.423828" xlink:href="#DejaVuSans-20"/>
     <use x="916.210938" xlink:href="#DejaVuSans-73"/>
     <use x="968.310547" xlink:href="#DejaVuSans-74"/>
     <use x="1007.519531" xlink:href="#DejaVuSans-61"/>
     <use x="1068.798828" xlink:href="#DejaVuSans-74"/>
     <use x="1108.007812" xlink:href="#DejaVuSans-75"/>
     <use x="1171.386719" xlink:href="#DejaVuSans-73"/>
    </g>
    <!--  -->
    <g transform="translate(48.90125 266.351764)scale(0.15 -0.15)"/>
   </g>
  </g>
  <g id="axes_4">
   <g id="patch_16">
    <path d="M 275.819903 597.551981 
L 484.737117 597.551981 
L 484.737117 272.351764 
L 275.819903 272.351764 
z
" style="fill:#ffffff;"/>
   </g>
   <g id="patch_17">
    <path clip-path="url(#p6937f5954b)" d="M 285.31614 597.551981 
L 475.24088 597.551981 
L 475.24088 441.400321 
L 285.31614 441.400321 
z
" style="fill:#e5f5ac;stroke:#ffffff;stroke-linejoin:miter;stroke-width:0.5;"/>
   </g>
   <g id="patch_18">
    <path clip-path="url(#p6937f5954b)" d="M 285.31614 441.400321 
L 475.24088 441.400321 
L 475.24088 401.320734 
L 285.31614 401.320734 
z
" style="fill:#d6efa2;stroke:#ffffff;stroke-linejoin:miter;stroke-width:0.5;"/>
   </g>
   <g id="patch_19">
    <path clip-path="url(#p6937f5954b)" d="M 285.31614 401.320734 
L 475.24088 401.320734 
L 475.24088 361.836388 
L 285.31614 361.836388 
z
" style="fill:#c1e698;stroke:#ffffff;stroke-linejoin:miter;stroke-width:0.5;"/>
   </g>
   <g id="patch_20">
    <path clip-path="url(#p6937f5954b)" d="M 285.31614 361.836388 
L 475.24088 361.836388 
L 475.24088 323.939352 
L 285.31614 323.939352 
z
" style="fill:#abdc8d;stroke:#ffffff;stroke-linejoin:miter;stroke-width:0.5;"/>
   </g>
   <g id="patch_21">
    <path clip-path="url(#p6937f5954b)" d="M 285.31614 323.939352 
L 475.24088 323.939352 
L 475.24088 306.08211 
L 285.31614 306.08211 
z
" style="fill:#92d183;stroke:#ffffff;stroke-linejoin:miter;stroke-width:0.5;"/>
   </g>
   <g id="patch_22">
    <path clip-path="url(#p6937f5954b)" d="M 285.31614 306.08211 
L 475.24088 306.08211 
L 475.24088 293.780454 
L 285.31614 293.780454 
z
" style="fill:#77c679;stroke:#ffffff;stroke-linejoin:miter;stroke-width:0.5;"/>
   </g>
   <g id="patch_23">
    <path clip-path="url(#p6937f5954b)" d="M 285.31614 293.780454 
L 475.24088 293.780454 
L 475.24088 286.042316 
L 285.31614 286.042316 
z
" style="fill:#5db96b;stroke:#ffffff;stroke-linejoin:miter;stroke-width:0.5;"/>
   </g>
   <g id="patch_24">
    <path clip-path="url(#p6937f5954b)" d="M 285.31614 286.042316 
L 475.24088 286.042316 
L 475.24088 281.875627 
L 285.31614 281.875627 
z
" style="fill:#43ac5e;stroke:#ffffff;stroke-linejoin:miter;stroke-width:0.5;"/>
   </g>
   <g id="patch_25">
    <path clip-path="url(#p6937f5954b)" d="M 285.31614 281.875627 
L 475.24088 281.875627 
L 475.24088 277.708937 
L 285.31614 277.708937 
z
" style="fill:#339951;stroke:#ffffff;stroke-linejoin:miter;stroke-width:0.5;"/>
   </g>
   <g id="patch_26">
    <path clip-path="url(#p6937f5954b)" d="M 285.31614 277.708937 
L 475.24088 277.708937 
L 475.24088 274.335902 
L 285.31614 274.335902 
z
" style="fill:#258745;stroke:#ffffff;stroke-linejoin:miter;stroke-width:0.5;"/>
   </g>
   <g id="patch_27">
    <path clip-path="url(#p6937f5954b)" d="M 285.31614 274.335902 
L 475.24088 274.335902 
L 475.24088 272.351764 
L 285.31614 272.351764 
z
" style="fill:#15793e;stroke:#ffffff;stroke-linejoin:miter;stroke-width:0.5;"/>
   </g>
   <g id="text_31">
    <!-- UNSPECIFIED, N = 787 -->
    <g transform="translate(323.373041 522.235526)scale(0.1 -0.1)">
     <use xlink:href="#DejaVuSans-55"/>
     <use x="73.193359" xlink:href="#DejaVuSans-4e"/>
     <use x="147.998047" xlink:href="#DejaVuSans-53"/>
     <use x="211.474609" xlink:href="#DejaVuSans-50"/>
     <use x="271.777344" xlink:href="#DejaVuSans-45"/>
     <use x="334.960938" xlink:href="#DejaVuSans-43"/>
     <use x="404.785156" xlink:href="#DejaVuSans-49"/>
     <use x="434.277344" xlink:href="#DejaVuSans-46"/>
     <use x="491.796875" xlink:href="#DejaVuSans-49"/>
     <use x="521.289062" xlink:href="#DejaVuSans-45"/>
     <use x="584.472656" xlink:href="#DejaVuSans-44"/>
     <use x="661.474609" xlink:href="#DejaVuSans-2c"/>
     <use x="693.261719" xlink:href="#DejaVuSans-20"/>
     <use x="725.048828" xlink:href="#DejaVuSans-4e"/>
     <use x="799.853516" xlink:href="#DejaVuSans-20"/>
     <use x="831.640625" xlink:href="#DejaVuSans-3d"/>
     <use x="915.429688" xlink:href="#DejaVuSans-20"/>
     <use x="947.216797" xlink:href="#DejaVuSans-37"/>
     <use x="1010.839844" xlink:href="#DejaVuSans-38"/>
     <use x="1074.462891" xlink:href="#DejaVuSans-37"/>
    </g>
   </g>
   <g id="text_32">
    <!-- HS, N = 202 -->
    <g transform="translate(349.513666 424.119902)scale(0.1 -0.1)">
     <defs>
      <path d="M 628 4666 
L 1259 4666 
L 1259 2753 
L 3553 2753 
L 3553 4666 
L 4184 4666 
L 4184 0 
L 3553 0 
L 3553 2222 
L 1259 2222 
L 1259 0 
L 628 0 
L 628 4666 
z
" id="DejaVuSans-48" transform="scale(0.015625)"/>
     </defs>
     <use xlink:href="#DejaVuSans-48"/>
     <use x="75.195312" xlink:href="#DejaVuSans-53"/>
     <use x="138.671875" xlink:href="#DejaVuSans-2c"/>
     <use x="170.458984" xlink:href="#DejaVuSans-20"/>
     <use x="202.246094" xlink:href="#DejaVuSans-4e"/>
     <use x="277.050781" xlink:href="#DejaVuSans-20"/>
     <use x="308.837891" xlink:href="#DejaVuSans-3d"/>
     <use x="392.626953" xlink:href="#DejaVuSans-20"/>
     <use x="424.414062" xlink:href="#DejaVuSans-32"/>
     <use x="488.037109" xlink:href="#DejaVuSans-30"/>
     <use x="551.660156" xlink:href="#DejaVuSans-32"/>
    </g>
   </g>
   <g id="text_33">
    <!-- MS, N = 199 -->
    <g transform="translate(348.95976 384.337936)scale(0.1 -0.1)">
     <use xlink:href="#DejaVuSans-4d"/>
     <use x="86.279297" xlink:href="#DejaVuSans-53"/>
     <use x="149.755859" xlink:href="#DejaVuSans-2c"/>
     <use x="181.542969" xlink:href="#DejaVuSans-20"/>
     <use x="213.330078" xlink:href="#DejaVuSans-4e"/>
     <use x="288.134766" xlink:href="#DejaVuSans-20"/>
     <use x="319.921875" xlink:href="#DejaVuSans-3d"/>
     <use x="403.710938" xlink:href="#DejaVuSans-20"/>
     <use x="435.498047" xlink:href="#DejaVuSans-31"/>
     <use x="499.121094" xlink:href="#DejaVuSans-39"/>
     <use x="562.744141" xlink:href="#DejaVuSans-39"/>
    </g>
   </g>
   <g id="text_34">
    <!-- UG, N = 191 -->
    <g transform="translate(348.914448 345.647245)scale(0.1 -0.1)">
     <defs>
      <path d="M 3809 666 
L 3809 1919 
L 2778 1919 
L 2778 2438 
L 4434 2438 
L 4434 434 
Q 4069 175 3628 42 
Q 3188 -91 2688 -91 
Q 1594 -91 976 548 
Q 359 1188 359 2328 
Q 359 3472 976 4111 
Q 1594 4750 2688 4750 
Q 3144 4750 3555 4637 
Q 3966 4525 4313 4306 
L 4313 3634 
Q 3963 3931 3569 4081 
Q 3175 4231 2741 4231 
Q 1884 4231 1454 3753 
Q 1025 3275 1025 2328 
Q 1025 1384 1454 906 
Q 1884 428 2741 428 
Q 3075 428 3337 486 
Q 3600 544 3809 666 
z
" id="DejaVuSans-47" transform="scale(0.015625)"/>
     </defs>
     <use xlink:href="#DejaVuSans-55"/>
     <use x="73.193359" xlink:href="#DejaVuSans-47"/>
     <use x="150.683594" xlink:href="#DejaVuSans-2c"/>
     <use x="182.470703" xlink:href="#DejaVuSans-20"/>
     <use x="214.257812" xlink:href="#DejaVuSans-4e"/>
     <use x="289.0625" xlink:href="#DejaVuSans-20"/>
     <use x="320.849609" xlink:href="#DejaVuSans-3d"/>
     <use x="404.638672" xlink:href="#DejaVuSans-20"/>
     <use x="436.425781" xlink:href="#DejaVuSans-31"/>
     <use x="500.048828" xlink:href="#DejaVuSans-39"/>
     <use x="563.671875" xlink:href="#DejaVuSans-31"/>
    </g>
   </g>
   <g id="text_35">
    <!-- HS+, N = 90 -->
    <g transform="translate(348.505073 317.770106)scale(0.1 -0.1)">
     <defs>
      <path d="M 2944 4013 
L 2944 2272 
L 4684 2272 
L 4684 1741 
L 2944 1741 
L 2944 0 
L 2419 0 
L 2419 1741 
L 678 1741 
L 678 2272 
L 2419 2272 
L 2419 4013 
L 2944 4013 
z
" id="DejaVuSans-2b" transform="scale(0.015625)"/>
     </defs>
     <use xlink:href="#DejaVuSans-48"/>
     <use x="75.195312" xlink:href="#DejaVuSans-53"/>
     <use x="138.671875" xlink:href="#DejaVuSans-2b"/>
     <use x="222.460938" xlink:href="#DejaVuSans-2c"/>
     <use x="254.248047" xlink:href="#DejaVuSans-20"/>
     <use x="286.035156" xlink:href="#DejaVuSans-4e"/>
     <use x="360.839844" xlink:href="#DejaVuSans-20"/>
     <use x="392.626953" xlink:href="#DejaVuSans-3d"/>
     <use x="476.416016" xlink:href="#DejaVuSans-20"/>
     <use x="508.203125" xlink:href="#DejaVuSans-39"/>
     <use x="571.826172" xlink:href="#DejaVuSans-30"/>
    </g>
   </g>
   <g id="text_36">
    <!-- HS-, N = 62 -->
    <g transform="translate(350.89101 302.690657)scale(0.1 -0.1)">
     <defs>
      <path d="M 313 2009 
L 1997 2009 
L 1997 1497 
L 313 1497 
L 313 2009 
z
" id="DejaVuSans-2d" transform="scale(0.015625)"/>
     </defs>
     <use xlink:href="#DejaVuSans-48"/>
     <use x="75.195312" xlink:href="#DejaVuSans-53"/>
     <use x="138.671875" xlink:href="#DejaVuSans-2d"/>
     <use x="174.755859" xlink:href="#DejaVuSans-2c"/>
     <use x="206.542969" xlink:href="#DejaVuSans-20"/>
     <use x="238.330078" xlink:href="#DejaVuSans-4e"/>
     <use x="313.134766" xlink:href="#DejaVuSans-20"/>
     <use x="344.921875" xlink:href="#DejaVuSans-3d"/>
     <use x="428.710938" xlink:href="#DejaVuSans-20"/>
     <use x="460.498047" xlink:href="#DejaVuSans-36"/>
     <use x="524.121094" xlink:href="#DejaVuSans-32"/>
    </g>
   </g>
   <g id="text_37">
    <!-- DR, N = 39 -->
    <g transform="translate(352.305073 292.67076)scale(0.1 -0.1)">
     <defs>
      <path d="M 2841 2188 
Q 3044 2119 3236 1894 
Q 3428 1669 3622 1275 
L 4263 0 
L 3584 0 
L 2988 1197 
Q 2756 1666 2539 1819 
Q 2322 1972 1947 1972 
L 1259 1972 
L 1259 0 
L 628 0 
L 628 4666 
L 2053 4666 
Q 2853 4666 3247 4331 
Q 3641 3997 3641 3322 
Q 3641 2881 3436 2590 
Q 3231 2300 2841 2188 
z
M 1259 4147 
L 1259 2491 
L 2053 2491 
Q 2509 2491 2742 2702 
Q 2975 2913 2975 3322 
Q 2975 3731 2742 3939 
Q 2509 4147 2053 4147 
L 1259 4147 
z
" id="DejaVuSans-52" transform="scale(0.015625)"/>
     </defs>
     <use xlink:href="#DejaVuSans-44"/>
     <use x="77.001953" xlink:href="#DejaVuSans-52"/>
     <use x="146.484375" xlink:href="#DejaVuSans-2c"/>
     <use x="178.271484" xlink:href="#DejaVuSans-20"/>
     <use x="210.058594" xlink:href="#DejaVuSans-4e"/>
     <use x="284.863281" xlink:href="#DejaVuSans-20"/>
     <use x="316.650391" xlink:href="#DejaVuSans-3d"/>
     <use x="400.439453" xlink:href="#DejaVuSans-20"/>
     <use x="432.226562" xlink:href="#DejaVuSans-33"/>
     <use x="495.849609" xlink:href="#DejaVuSans-39"/>
    </g>
   </g>
   <g id="text_38">
    <!-- *Categories &lt;2% not shown -->
    <g transform="translate(295.535073 613.17411)scale(0.12 -0.12)">
     <defs>
      <path d="M 3009 3897 
L 1888 3291 
L 3009 2681 
L 2828 2375 
L 1778 3009 
L 1778 1831 
L 1422 1831 
L 1422 3009 
L 372 2375 
L 191 2681 
L 1313 3291 
L 191 3897 
L 372 4206 
L 1422 3572 
L 1422 4750 
L 1778 4750 
L 1778 3572 
L 2828 4206 
L 3009 3897 
z
" id="DejaVuSans-2a" transform="scale(0.015625)"/>
      <path d="M 4684 3150 
L 1459 2003 
L 4684 863 
L 4684 294 
L 678 1747 
L 678 2266 
L 4684 3719 
L 4684 3150 
z
" id="DejaVuSans-3c" transform="scale(0.015625)"/>
      <path d="M 269 3500 
L 844 3500 
L 1563 769 
L 2278 3500 
L 2956 3500 
L 3675 769 
L 4391 3500 
L 4966 3500 
L 4050 0 
L 3372 0 
L 2619 2869 
L 1863 0 
L 1184 0 
L 269 3500 
z
" id="DejaVuSans-77" transform="scale(0.015625)"/>
     </defs>
     <use xlink:href="#DejaVuSans-2a"/>
     <use x="50" xlink:href="#DejaVuSans-43"/>
     <use x="119.824219" xlink:href="#DejaVuSans-61"/>
     <use x="181.103516" xlink:href="#DejaVuSans-74"/>
     <use x="220.3125" xlink:href="#DejaVuSans-65"/>
     <use x="281.835938" xlink:href="#DejaVuSans-67"/>
     <use x="345.3125" xlink:href="#DejaVuSans-6f"/>
     <use x="406.494141" xlink:href="#DejaVuSans-72"/>
     <use x="447.607422" xlink:href="#DejaVuSans-69"/>
     <use x="475.390625" xlink:href="#DejaVuSans-65"/>
     <use x="536.914062" xlink:href="#DejaVuSans-73"/>
     <use x="589.013672" xlink:href="#DejaVuSans-20"/>
     <use x="620.800781" xlink:href="#DejaVuSans-3c"/>
     <use x="704.589844" xlink:href="#DejaVuSans-32"/>
     <use x="768.212891" xlink:href="#DejaVuSans-25"/>
     <use x="863.232422" xlink:href="#DejaVuSans-20"/>
     <use x="895.019531" xlink:href="#DejaVuSans-6e"/>
     <use x="958.398438" xlink:href="#DejaVuSans-6f"/>
     <use x="1019.580078" xlink:href="#DejaVuSans-74"/>
     <use x="1058.789062" xlink:href="#DejaVuSans-20"/>
     <use x="1090.576172" xlink:href="#DejaVuSans-73"/>
     <use x="1142.675781" xlink:href="#DejaVuSans-68"/>
     <use x="1206.054688" xlink:href="#DejaVuSans-6f"/>
     <use x="1267.236328" xlink:href="#DejaVuSans-77"/>
     <use x="1349.023438" xlink:href="#DejaVuSans-6e"/>
    </g>
   </g>
   <g id="text_39">
    <!--  -->
    <g transform="translate(275.819903 232.758327)scale(0.15 -0.15)"/>
    <!-- D. Mother's education* -->
    <g transform="translate(275.819903 249.555045)scale(0.15 -0.15)">
     <defs>
      <path d="M 1147 4666 
L 1147 2931 
L 616 2931 
L 616 4666 
L 1147 4666 
z
" id="DejaVuSans-27" transform="scale(0.015625)"/>
      <path d="M 2906 2969 
L 2906 4863 
L 3481 4863 
L 3481 0 
L 2906 0 
L 2906 525 
Q 2725 213 2448 61 
Q 2172 -91 1784 -91 
Q 1150 -91 751 415 
Q 353 922 353 1747 
Q 353 2572 751 3078 
Q 1150 3584 1784 3584 
Q 2172 3584 2448 3432 
Q 2725 3281 2906 2969 
z
M 947 1747 
Q 947 1113 1208 752 
Q 1469 391 1925 391 
Q 2381 391 2643 752 
Q 2906 1113 2906 1747 
Q 2906 2381 2643 2742 
Q 2381 3103 1925 3103 
Q 1469 3103 1208 2742 
Q 947 2381 947 1747 
z
" id="DejaVuSans-64" transform="scale(0.015625)"/>
     </defs>
     <use xlink:href="#DejaVuSans-44"/>
     <use x="77.001953" xlink:href="#DejaVuSans-2e"/>
     <use x="108.789062" xlink:href="#DejaVuSans-20"/>
     <use x="140.576172" xlink:href="#DejaVuSans-4d"/>
     <use x="226.855469" xlink:href="#DejaVuSans-6f"/>
     <use x="288.037109" xlink:href="#DejaVuSans-74"/>
     <use x="327.246094" xlink:href="#DejaVuSans-68"/>
     <use x="390.625" xlink:href="#DejaVuSans-65"/>
     <use x="452.148438" xlink:href="#DejaVuSans-72"/>
     <use x="493.261719" xlink:href="#DejaVuSans-27"/>
     <use x="520.751953" xlink:href="#DejaVuSans-73"/>
     <use x="572.851562" xlink:href="#DejaVuSans-20"/>
     <use x="604.638672" xlink:href="#DejaVuSans-65"/>
     <use x="666.162109" xlink:href="#DejaVuSans-64"/>
     <use x="729.638672" xlink:href="#DejaVuSans-75"/>
     <use x="793.017578" xlink:href="#DejaVuSans-63"/>
     <use x="847.998047" xlink:href="#DejaVuSans-61"/>
     <use x="909.277344" xlink:href="#DejaVuSans-74"/>
     <use x="948.486328" xlink:href="#DejaVuSans-69"/>
     <use x="976.269531" xlink:href="#DejaVuSans-6f"/>
     <use x="1037.451172" xlink:href="#DejaVuSans-6e"/>
     <use x="1100.830078" xlink:href="#DejaVuSans-2a"/>
    </g>
    <!--  -->
    <g transform="translate(275.819903 266.351764)scale(0.15 -0.15)"/>
   </g>
  </g>
  <g id="axes_5">
   <g id="patch_28">
    <path d="M 502.738557 597.551981 
L 711.65577 597.551981 
L 711.65577 272.351764 
L 502.738557 272.351764 
z
" style="fill:#ffffff;"/>
   </g>
   <g id="patch_29">
    <path clip-path="url(#p3e21c5dad4)" d="M 512.234794 597.551981 
L 702.159533 597.551981 
L 702.159533 272.351764 
L 512.234794 272.351764 
z
" style="fill:#e5f5ac;stroke:#ffffff;stroke-linejoin:miter;stroke-width:0.5;"/>
   </g>
   <g id="text_40">
    <!-- TD, N = 1639 -->
    <g transform="translate(573.281538 437.711247)scale(0.1 -0.1)">
     <defs>
      <path d="M -19 4666 
L 3928 4666 
L 3928 4134 
L 2272 4134 
L 2272 0 
L 1638 0 
L 1638 4134 
L -19 4134 
L -19 4666 
z
" id="DejaVuSans-54" transform="scale(0.015625)"/>
     </defs>
     <use xlink:href="#DejaVuSans-54"/>
     <use x="61.083984" xlink:href="#DejaVuSans-44"/>
     <use x="138.085938" xlink:href="#DejaVuSans-2c"/>
     <use x="169.873047" xlink:href="#DejaVuSans-20"/>
     <use x="201.660156" xlink:href="#DejaVuSans-4e"/>
     <use x="276.464844" xlink:href="#DejaVuSans-20"/>
     <use x="308.251953" xlink:href="#DejaVuSans-3d"/>
     <use x="392.041016" xlink:href="#DejaVuSans-20"/>
     <use x="423.828125" xlink:href="#DejaVuSans-31"/>
     <use x="487.451172" xlink:href="#DejaVuSans-36"/>
     <use x="551.074219" xlink:href="#DejaVuSans-33"/>
     <use x="614.697266" xlink:href="#DejaVuSans-39"/>
    </g>
   </g>
   <g id="text_41">
    <!--  -->
    <g transform="translate(502.738557 232.758327)scale(0.15 -0.15)"/>
    <!-- E. Group -->
    <g transform="translate(502.738557 249.555045)scale(0.15 -0.15)">
     <defs>
      <path d="M 1159 525 
L 1159 -1331 
L 581 -1331 
L 581 3500 
L 1159 3500 
L 1159 2969 
Q 1341 3281 1617 3432 
Q 1894 3584 2278 3584 
Q 2916 3584 3314 3078 
Q 3713 2572 3713 1747 
Q 3713 922 3314 415 
Q 2916 -91 2278 -91 
Q 1894 -91 1617 61 
Q 1341 213 1159 525 
z
M 3116 1747 
Q 3116 2381 2855 2742 
Q 2594 3103 2138 3103 
Q 1681 3103 1420 2742 
Q 1159 2381 1159 1747 
Q 1159 1113 1420 752 
Q 1681 391 2138 391 
Q 2594 391 2855 752 
Q 3116 1113 3116 1747 
z
" id="DejaVuSans-70" transform="scale(0.015625)"/>
     </defs>
     <use xlink:href="#DejaVuSans-45"/>
     <use x="63.183594" xlink:href="#DejaVuSans-2e"/>
     <use x="94.970703" xlink:href="#DejaVuSans-20"/>
     <use x="126.757812" xlink:href="#DejaVuSans-47"/>
     <use x="204.248047" xlink:href="#DejaVuSans-72"/>
     <use x="243.111328" xlink:href="#DejaVuSans-6f"/>
     <use x="304.292969" xlink:href="#DejaVuSans-75"/>
     <use x="367.671875" xlink:href="#DejaVuSans-70"/>
    </g>
    <!--  -->
    <g transform="translate(502.738557 266.351764)scale(0.15 -0.15)"/>
   </g>
  </g>
  <g id="axes_6">
   <g id="patch_30">
    <path d="M 48.90125 688.907645 
L 711.65577 688.907645 
L 711.65577 672.647634 
L 48.90125 672.647634 
z
" style="fill:#ffffff;"/>
   </g>
   <g id="patch_31">
    <path clip-path="url(#p71d5fac425)" d="M 48.90125 688.168554 
L 464.931376 688.168554 
L 464.931376 673.386726 
L 48.90125 673.386726 
z
" style="fill:#4cb063;stroke:#ffffff;stroke-linejoin:miter;stroke-width:0.5;"/>
   </g>
   <g id="patch_32">
    <path clip-path="url(#p71d5fac425)" d="M 464.931376 688.168554 
L 711.65577 688.168554 
L 711.65577 673.386726 
L 464.931376 673.386726 
z
" style="fill:#cccccc;stroke:#ffffff;stroke-linejoin:miter;stroke-width:0.5;"/>
   </g>
   <g id="matplotlib.axis_4">
    <g id="xtick_9">
     <g id="line2d_29">
      <g>
       <use style="stroke:#000000;stroke-width:0.8;" x="48.90125" xlink:href="#m53e58ec8e2" y="688.907645"/>
      </g>
     </g>
     <g id="text_42">
      <!-- 0 -->
      <g transform="translate(45.72 703.506082)scale(0.1 -0.1)">
       <use xlink:href="#DejaVuSans-30"/>
      </g>
     </g>
    </g>
    <g id="xtick_10">
     <g id="line2d_30">
      <g>
       <use style="stroke:#000000;stroke-width:0.8;" x="181.452154" xlink:href="#m53e58ec8e2" y="688.907645"/>
      </g>
     </g>
     <g id="text_43">
      <!-- 20 -->
      <g transform="translate(175.089654 703.506082)scale(0.1 -0.1)">
       <use xlink:href="#DejaVuSans-32"/>
       <use x="63.623047" xlink:href="#DejaVuSans-30"/>
      </g>
     </g>
    </g>
    <g id="xtick_11">
     <g id="line2d_31">
      <g>
       <use style="stroke:#000000;stroke-width:0.8;" x="314.003058" xlink:href="#m53e58ec8e2" y="688.907645"/>
      </g>
     </g>
     <g id="text_44">
      <!-- 40 -->
      <g transform="translate(307.640558 703.506082)scale(0.1 -0.1)">
       <use xlink:href="#DejaVuSans-34"/>
       <use x="63.623047" xlink:href="#DejaVuSans-30"/>
      </g>
     </g>
    </g>
    <g id="xtick_12">
     <g id="line2d_32">
      <g>
       <use style="stroke:#000000;stroke-width:0.8;" x="446.553962" xlink:href="#m53e58ec8e2" y="688.907645"/>
      </g>
     </g>
     <g id="text_45">
      <!-- 60 -->
      <g transform="translate(440.191462 703.506082)scale(0.1 -0.1)">
       <use xlink:href="#DejaVuSans-36"/>
       <use x="63.623047" xlink:href="#DejaVuSans-30"/>
      </g>
     </g>
    </g>
    <g id="xtick_13">
     <g id="line2d_33">
      <g>
       <use style="stroke:#000000;stroke-width:0.8;" x="579.104866" xlink:href="#m53e58ec8e2" y="688.907645"/>
      </g>
     </g>
     <g id="text_46">
      <!-- 80 -->
      <g transform="translate(572.742366 703.506082)scale(0.1 -0.1)">
       <use xlink:href="#DejaVuSans-38"/>
       <use x="63.623047" xlink:href="#DejaVuSans-30"/>
      </g>
     </g>
    </g>
    <g id="xtick_14">
     <g id="line2d_34">
      <g>
       <use style="stroke:#000000;stroke-width:0.8;" x="711.65577" xlink:href="#m53e58ec8e2" y="688.907645"/>
      </g>
     </g>
     <g id="text_47">
      <!-- 100 -->
      <g transform="translate(702.11202 703.506082)scale(0.1 -0.1)">
       <use xlink:href="#DejaVuSans-31"/>
       <use x="63.623047" xlink:href="#DejaVuSans-30"/>
       <use x="127.246094" xlink:href="#DejaVuSans-30"/>
      </g>
     </g>
    </g>
    <g id="text_48">
     <!-- Percentage total, % -->
     <g transform="translate(321.390385 718.703895)scale(0.12 -0.12)">
      <use xlink:href="#DejaVuSans-50"/>
      <use x="56.677734" xlink:href="#DejaVuSans-65"/>
      <use x="118.201172" xlink:href="#DejaVuSans-72"/>
      <use x="157.064453" xlink:href="#DejaVuSans-63"/>
      <use x="212.044922" xlink:href="#DejaVuSans-65"/>
      <use x="273.568359" xlink:href="#DejaVuSans-6e"/>
      <use x="336.947266" xlink:href="#DejaVuSans-74"/>
      <use x="376.15625" xlink:href="#DejaVuSans-61"/>
      <use x="437.435547" xlink:href="#DejaVuSans-67"/>
      <use x="500.912109" xlink:href="#DejaVuSans-65"/>
      <use x="562.435547" xlink:href="#DejaVuSans-20"/>
      <use x="594.222656" xlink:href="#DejaVuSans-74"/>
      <use x="633.431641" xlink:href="#DejaVuSans-6f"/>
      <use x="694.613281" xlink:href="#DejaVuSans-74"/>
      <use x="733.822266" xlink:href="#DejaVuSans-61"/>
      <use x="795.101562" xlink:href="#DejaVuSans-6c"/>
      <use x="822.884766" xlink:href="#DejaVuSans-2c"/>
      <use x="854.671875" xlink:href="#DejaVuSans-20"/>
      <use x="886.458984" xlink:href="#DejaVuSans-25"/>
     </g>
    </g>
   </g>
   <g id="text_49">
    <!-- REMAINING FILES, N = 1639 -->
    <g transform="translate(186.171782 683.537015)scale(0.1 -0.1)">
     <use xlink:href="#DejaVuSans-52"/>
     <use x="69.482422" xlink:href="#DejaVuSans-45"/>
     <use x="132.666016" xlink:href="#DejaVuSans-4d"/>
     <use x="218.945312" xlink:href="#DejaVuSans-41"/>
     <use x="287.353516" xlink:href="#DejaVuSans-49"/>
     <use x="316.845703" xlink:href="#DejaVuSans-4e"/>
     <use x="391.650391" xlink:href="#DejaVuSans-49"/>
     <use x="421.142578" xlink:href="#DejaVuSans-4e"/>
     <use x="495.947266" xlink:href="#DejaVuSans-47"/>
     <use x="573.4375" xlink:href="#DejaVuSans-20"/>
     <use x="605.224609" xlink:href="#DejaVuSans-46"/>
     <use x="662.744141" xlink:href="#DejaVuSans-49"/>
     <use x="692.236328" xlink:href="#DejaVuSans-4c"/>
     <use x="747.949219" xlink:href="#DejaVuSans-45"/>
     <use x="811.132812" xlink:href="#DejaVuSans-53"/>
     <use x="874.609375" xlink:href="#DejaVuSans-2c"/>
     <use x="906.396484" xlink:href="#DejaVuSans-20"/>
     <use x="938.183594" xlink:href="#DejaVuSans-4e"/>
     <use x="1012.988281" xlink:href="#DejaVuSans-20"/>
     <use x="1044.775391" xlink:href="#DejaVuSans-3d"/>
     <use x="1128.564453" xlink:href="#DejaVuSans-20"/>
     <use x="1160.351562" xlink:href="#DejaVuSans-31"/>
     <use x="1223.974609" xlink:href="#DejaVuSans-36"/>
     <use x="1287.597656" xlink:href="#DejaVuSans-33"/>
     <use x="1351.220703" xlink:href="#DejaVuSans-39"/>
    </g>
   </g>
   <g id="text_50">
    <!-- DROPPED FILES, N = 972 -->
    <g transform="translate(525.10451 683.537015)scale(0.1 -0.1)">
     <defs>
      <path d="M 2522 4238 
Q 1834 4238 1429 3725 
Q 1025 3213 1025 2328 
Q 1025 1447 1429 934 
Q 1834 422 2522 422 
Q 3209 422 3611 934 
Q 4013 1447 4013 2328 
Q 4013 3213 3611 3725 
Q 3209 4238 2522 4238 
z
M 2522 4750 
Q 3503 4750 4090 4092 
Q 4678 3434 4678 2328 
Q 4678 1225 4090 567 
Q 3503 -91 2522 -91 
Q 1538 -91 948 565 
Q 359 1222 359 2328 
Q 359 3434 948 4092 
Q 1538 4750 2522 4750 
z
" id="DejaVuSans-4f" transform="scale(0.015625)"/>
     </defs>
     <use xlink:href="#DejaVuSans-44"/>
     <use x="77.001953" xlink:href="#DejaVuSans-52"/>
     <use x="146.484375" xlink:href="#DejaVuSans-4f"/>
     <use x="225.195312" xlink:href="#DejaVuSans-50"/>
     <use x="285.498047" xlink:href="#DejaVuSans-50"/>
     <use x="345.800781" xlink:href="#DejaVuSans-45"/>
     <use x="408.984375" xlink:href="#DejaVuSans-44"/>
     <use x="485.986328" xlink:href="#DejaVuSans-20"/>
     <use x="517.773438" xlink:href="#DejaVuSans-46"/>
     <use x="575.292969" xlink:href="#DejaVuSans-49"/>
     <use x="604.785156" xlink:href="#DejaVuSans-4c"/>
     <use x="660.498047" xlink:href="#DejaVuSans-45"/>
     <use x="723.681641" xlink:href="#DejaVuSans-53"/>
     <use x="787.158203" xlink:href="#DejaVuSans-2c"/>
     <use x="818.945312" xlink:href="#DejaVuSans-20"/>
     <use x="850.732422" xlink:href="#DejaVuSans-4e"/>
     <use x="925.537109" xlink:href="#DejaVuSans-20"/>
     <use x="957.324219" xlink:href="#DejaVuSans-3d"/>
     <use x="1041.113281" xlink:href="#DejaVuSans-20"/>
     <use x="1072.900391" xlink:href="#DejaVuSans-39"/>
     <use x="1136.523438" xlink:href="#DejaVuSans-37"/>
     <use x="1200.146484" xlink:href="#DejaVuSans-32"/>
    </g>
   </g>
   <g id="text_51">
    <!--  -->
    <g transform="translate(48.90125 633.054197)scale(0.15 -0.15)"/>
    <!-- F. Before and after data preprocessing -->
    <g transform="translate(48.90125 649.850915)scale(0.15 -0.15)">
     <use xlink:href="#DejaVuSans-46"/>
     <use x="41.394531" xlink:href="#DejaVuSans-2e"/>
     <use x="73.181641" xlink:href="#DejaVuSans-20"/>
     <use x="104.96875" xlink:href="#DejaVuSans-42"/>
     <use x="173.572266" xlink:href="#DejaVuSans-65"/>
     <use x="235.095703" xlink:href="#DejaVuSans-66"/>
     <use x="270.300781" xlink:href="#DejaVuSans-6f"/>
     <use x="331.482422" xlink:href="#DejaVuSans-72"/>
     <use x="370.345703" xlink:href="#DejaVuSans-65"/>
     <use x="431.869141" xlink:href="#DejaVuSans-20"/>
     <use x="463.65625" xlink:href="#DejaVuSans-61"/>
     <use x="524.935547" xlink:href="#DejaVuSans-6e"/>
     <use x="588.314453" xlink:href="#DejaVuSans-64"/>
     <use x="651.791016" xlink:href="#DejaVuSans-20"/>
     <use x="683.578125" xlink:href="#DejaVuSans-61"/>
     <use x="744.857422" xlink:href="#DejaVuSans-66"/>
     <use x="778.3125" xlink:href="#DejaVuSans-74"/>
     <use x="817.521484" xlink:href="#DejaVuSans-65"/>
     <use x="879.044922" xlink:href="#DejaVuSans-72"/>
     <use x="920.158203" xlink:href="#DejaVuSans-20"/>
     <use x="951.945312" xlink:href="#DejaVuSans-64"/>
     <use x="1015.421875" xlink:href="#DejaVuSans-61"/>
     <use x="1076.701172" xlink:href="#DejaVuSans-74"/>
     <use x="1115.910156" xlink:href="#DejaVuSans-61"/>
     <use x="1177.189453" xlink:href="#DejaVuSans-20"/>
     <use x="1208.976562" xlink:href="#DejaVuSans-70"/>
     <use x="1272.453125" xlink:href="#DejaVuSans-72"/>
     <use x="1311.316406" xlink:href="#DejaVuSans-65"/>
     <use x="1372.839844" xlink:href="#DejaVuSans-70"/>
     <use x="1436.316406" xlink:href="#DejaVuSans-72"/>
     <use x="1475.179688" xlink:href="#DejaVuSans-6f"/>
     <use x="1536.361328" xlink:href="#DejaVuSans-63"/>
     <use x="1591.341797" xlink:href="#DejaVuSans-65"/>
     <use x="1652.865234" xlink:href="#DejaVuSans-73"/>
     <use x="1704.964844" xlink:href="#DejaVuSans-73"/>
     <use x="1757.064453" xlink:href="#DejaVuSans-69"/>
     <use x="1784.847656" xlink:href="#DejaVuSans-6e"/>
     <use x="1848.226562" xlink:href="#DejaVuSans-67"/>
    </g>
    <!--  -->
    <g transform="translate(48.90125 666.647634)scale(0.15 -0.15)"/>
   </g>
  </g>
  <g id="text_52">
   <!-- Demographics of child participants after data preprocessing -->
   <g transform="translate(93.403823 20.877187)scale(0.18 -0.18)">
    <use xlink:href="#DejaVuSans-44"/>
    <use x="77.001953" xlink:href="#DejaVuSans-65"/>
    <use x="138.525391" xlink:href="#DejaVuSans-6d"/>
    <use x="235.9375" xlink:href="#DejaVuSans-6f"/>
    <use x="297.119141" xlink:href="#DejaVuSans-67"/>
    <use x="360.595703" xlink:href="#DejaVuSans-72"/>
    <use x="401.708984" xlink:href="#DejaVuSans-61"/>
    <use x="462.988281" xlink:href="#DejaVuSans-70"/>
    <use x="526.464844" xlink:href="#DejaVuSans-68"/>
    <use x="589.84375" xlink:href="#DejaVuSans-69"/>
    <use x="617.626953" xlink:href="#DejaVuSans-63"/>
    <use x="672.607422" xlink:href="#DejaVuSans-73"/>
    <use x="724.707031" xlink:href="#DejaVuSans-20"/>
    <use x="756.494141" xlink:href="#DejaVuSans-6f"/>
    <use x="817.675781" xlink:href="#DejaVuSans-66"/>
    <use x="852.880859" xlink:href="#DejaVuSans-20"/>
    <use x="884.667969" xlink:href="#DejaVuSans-63"/>
    <use x="939.648438" xlink:href="#DejaVuSans-68"/>
    <use x="1003.027344" xlink:href="#DejaVuSans-69"/>
    <use x="1030.810547" xlink:href="#DejaVuSans-6c"/>
    <use x="1058.59375" xlink:href="#DejaVuSans-64"/>
    <use x="1122.070312" xlink:href="#DejaVuSans-20"/>
    <use x="1153.857422" xlink:href="#DejaVuSans-70"/>
    <use x="1217.333984" xlink:href="#DejaVuSans-61"/>
    <use x="1278.613281" xlink:href="#DejaVuSans-72"/>
    <use x="1319.726562" xlink:href="#DejaVuSans-74"/>
    <use x="1358.935547" xlink:href="#DejaVuSans-69"/>
    <use x="1386.71875" xlink:href="#DejaVuSans-63"/>
    <use x="1441.699219" xlink:href="#DejaVuSans-69"/>
    <use x="1469.482422" xlink:href="#DejaVuSans-70"/>
    <use x="1532.958984" xlink:href="#DejaVuSans-61"/>
    <use x="1594.238281" xlink:href="#DejaVuSans-6e"/>
    <use x="1657.617188" xlink:href="#DejaVuSans-74"/>
    <use x="1696.826172" xlink:href="#DejaVuSans-73"/>
    <use x="1748.925781" xlink:href="#DejaVuSans-20"/>
    <use x="1780.712891" xlink:href="#DejaVuSans-61"/>
    <use x="1841.992188" xlink:href="#DejaVuSans-66"/>
    <use x="1875.447266" xlink:href="#DejaVuSans-74"/>
    <use x="1914.65625" xlink:href="#DejaVuSans-65"/>
    <use x="1976.179688" xlink:href="#DejaVuSans-72"/>
    <use x="2017.292969" xlink:href="#DejaVuSans-20"/>
    <use x="2049.080078" xlink:href="#DejaVuSans-64"/>
    <use x="2112.556641" xlink:href="#DejaVuSans-61"/>
    <use x="2173.835938" xlink:href="#DejaVuSans-74"/>
    <use x="2213.044922" xlink:href="#DejaVuSans-61"/>
    <use x="2274.324219" xlink:href="#DejaVuSans-20"/>
    <use x="2306.111328" xlink:href="#DejaVuSans-70"/>
    <use x="2369.587891" xlink:href="#DejaVuSans-72"/>
    <use x="2408.451172" xlink:href="#DejaVuSans-65"/>
    <use x="2469.974609" xlink:href="#DejaVuSans-70"/>
    <use x="2533.451172" xlink:href="#DejaVuSans-72"/>
    <use x="2572.314453" xlink:href="#DejaVuSans-6f"/>
    <use x="2633.496094" xlink:href="#DejaVuSans-63"/>
    <use x="2688.476562" xlink:href="#DejaVuSans-65"/>
    <use x="2750" xlink:href="#DejaVuSans-73"/>
    <use x="2802.099609" xlink:href="#DejaVuSans-73"/>
    <use x="2854.199219" xlink:href="#DejaVuSans-69"/>
    <use x="2881.982422" xlink:href="#DejaVuSans-6e"/>
    <use x="2945.361328" xlink:href="#DejaVuSans-67"/>
   </g>
   <!-- (Note: some children have multiple files) -->
   <g transform="translate(180.702416 41.03325)scale(0.18 -0.18)">
    <defs>
     <path d="M 750 794 
L 1409 794 
L 1409 0 
L 750 0 
L 750 794 
z
M 750 3309 
L 1409 3309 
L 1409 2516 
L 750 2516 
L 750 3309 
z
" id="DejaVuSans-3a" transform="scale(0.015625)"/>
     <path d="M 191 3500 
L 800 3500 
L 1894 563 
L 2988 3500 
L 3597 3500 
L 2284 0 
L 1503 0 
L 191 3500 
z
" id="DejaVuSans-76" transform="scale(0.015625)"/>
    </defs>
    <use xlink:href="#DejaVuSans-28"/>
    <use x="39.013672" xlink:href="#DejaVuSans-4e"/>
    <use x="113.818359" xlink:href="#DejaVuSans-6f"/>
    <use x="175" xlink:href="#DejaVuSans-74"/>
    <use x="214.208984" xlink:href="#DejaVuSans-65"/>
    <use x="275.732422" xlink:href="#DejaVuSans-3a"/>
    <use x="309.423828" xlink:href="#DejaVuSans-20"/>
    <use x="341.210938" xlink:href="#DejaVuSans-73"/>
    <use x="393.310547" xlink:href="#DejaVuSans-6f"/>
    <use x="454.492188" xlink:href="#DejaVuSans-6d"/>
    <use x="551.904297" xlink:href="#DejaVuSans-65"/>
    <use x="613.427734" xlink:href="#DejaVuSans-20"/>
    <use x="645.214844" xlink:href="#DejaVuSans-63"/>
    <use x="700.195312" xlink:href="#DejaVuSans-68"/>
    <use x="763.574219" xlink:href="#DejaVuSans-69"/>
    <use x="791.357422" xlink:href="#DejaVuSans-6c"/>
    <use x="819.140625" xlink:href="#DejaVuSans-64"/>
    <use x="882.617188" xlink:href="#DejaVuSans-72"/>
    <use x="921.480469" xlink:href="#DejaVuSans-65"/>
    <use x="983.003906" xlink:href="#DejaVuSans-6e"/>
    <use x="1046.382812" xlink:href="#DejaVuSans-20"/>
    <use x="1078.169922" xlink:href="#DejaVuSans-68"/>
    <use x="1141.548828" xlink:href="#DejaVuSans-61"/>
    <use x="1202.828125" xlink:href="#DejaVuSans-76"/>
    <use x="1262.007812" xlink:href="#DejaVuSans-65"/>
    <use x="1323.53125" xlink:href="#DejaVuSans-20"/>
    <use x="1355.318359" xlink:href="#DejaVuSans-6d"/>
    <use x="1452.730469" xlink:href="#DejaVuSans-75"/>
    <use x="1516.109375" xlink:href="#DejaVuSans-6c"/>
    <use x="1543.892578" xlink:href="#DejaVuSans-74"/>
    <use x="1583.101562" xlink:href="#DejaVuSans-69"/>
    <use x="1610.884766" xlink:href="#DejaVuSans-70"/>
    <use x="1674.361328" xlink:href="#DejaVuSans-6c"/>
    <use x="1702.144531" xlink:href="#DejaVuSans-65"/>
    <use x="1763.667969" xlink:href="#DejaVuSans-20"/>
    <use x="1795.455078" xlink:href="#DejaVuSans-66"/>
    <use x="1830.660156" xlink:href="#DejaVuSans-69"/>
    <use x="1858.443359" xlink:href="#DejaVuSans-6c"/>
    <use x="1886.226562" xlink:href="#DejaVuSans-65"/>
    <use x="1947.75" xlink:href="#DejaVuSans-73"/>
    <use x="1999.849609" xlink:href="#DejaVuSans-29"/>
   </g>
  </g>
 </g>
 <defs>
  <clipPath id="p5e54985989">
   <rect height="81.300054" width="435.835867" x="48.90125" y="101.768261"/>
  </clipPath>
  <clipPath id="p00c99c0a36">
   <rect height="81.300054" width="208.917213" x="502.738557" y="101.768261"/>
  </clipPath>
  <clipPath id="pf29296c1eb">
   <rect height="325.200217" width="208.917213" x="48.90125" y="272.351764"/>
  </clipPath>
  <clipPath id="p6937f5954b">
   <rect height="325.200217" width="208.917213" x="275.819903" y="272.351764"/>
  </clipPath>
  <clipPath id="p3e21c5dad4">
   <rect height="325.200217" width="208.917213" x="502.738557" y="272.351764"/>
  </clipPath>
  <clipPath id="p71d5fac425">
   <rect height="16.260011" width="662.75452" x="48.90125" y="672.647634"/>
  </clipPath>
 </defs>
</svg>
