<?xml version="1.0" encoding="utf-8" standalone="no"?>
<!DOCTYPE svg PUBLIC "-//W3C//DTD SVG 1.1//EN"
  "http://www.w3.org/Graphics/SVG/1.1/DTD/svg11.dtd">
<svg height="728.395617pt" version="1.1" viewBox="0 0 728.39952 728.395617" width="728.39952pt" xmlns="http://www.w3.org/2000/svg" xmlns:xlink="http://www.w3.org/1999/xlink">
 <metadata>
  <rdf:RDF xmlns:cc="http://creativecommons.org/ns#" xmlns:dc="http://purl.org/dc/elements/1.1/" xmlns:rdf="http://www.w3.org/1999/02/22-rdf-syntax-ns#">
   <cc:Work>
    <dc:type rdf:resource="http://purl.org/dc/dcmitype/StillImage"/>
    <dc:date>2022-04-23T00:51:39.264613</dc:date>
    <dc:format>image/svg+xml</dc:format>
    <dc:creator>
     <cc:Agent>
      <dc:title>Matplotlib v3.4.3, https://matplotlib.org/</dc:title>
     </cc:Agent>
    </dc:creator>
   </cc:Work>
  </rdf:RDF>
 </metadata>
 <defs>
  <style type="text/css">*{stroke-linecap:butt;stroke-linejoin:round;}</style>
 </defs>
 <g id="figure_1">
  <g id="patch_1">
   <path d="M 0 728.395617 
L 728.39952 728.395617 
L 728.39952 0 
L 0 0 
z
" style="fill:none;"/>
  </g>
  <g id="axes_1">
   <g id="patch_2">
    <path d="M 48.90125 203.605001 
L 497.100097 203.605001 
L 497.100097 101.768261 
L 48.90125 101.768261 
z
" style="fill:#e6e6e6;"/>
   </g>
   <g id="matplotlib.axis_1">
    <g id="xtick_1">
     <g id="line2d_1">
      <path clip-path="url(#pfdd93cab14)" d="M 69.273925 203.605001 
L 69.273925 101.768261 
" style="fill:none;stroke:#ffffff;stroke-linecap:square;stroke-width:0.8;"/>
     </g>
     <g id="line2d_2">
      <defs>
       <path d="M 0 0 
L 0 3.5 
" id="mbf5608bc0f" style="stroke:#000000;stroke-width:0.8;"/>
      </defs>
      <g>
       <use style="stroke:#000000;stroke-width:0.8;" x="69.273925" xlink:href="#mbf5608bc0f" y="203.605001"/>
      </g>
     </g>
     <g id="text_1">
      <!-- 0 -->
      <g transform="translate(66.092675 218.203438)scale(0.1 -0.1)">
       <defs>
        <path d="M 2034 4250 
Q 1547 4250 1301 3770 
Q 1056 3291 1056 2328 
Q 1056 1369 1301 889 
Q 1547 409 2034 409 
Q 2525 409 2770 889 
Q 3016 1369 3016 2328 
Q 3016 3291 2770 3770 
Q 2525 4250 2034 4250 
z
M 2034 4750 
Q 2819 4750 3233 4129 
Q 3647 3509 3647 2328 
Q 3647 1150 3233 529 
Q 2819 -91 2034 -91 
Q 1250 -91 836 529 
Q 422 1150 422 2328 
Q 422 3509 836 4129 
Q 1250 4750 2034 4750 
z
" id="DejaVuSans-30" transform="scale(0.015625)"/>
       </defs>
       <use xlink:href="#DejaVuSans-30"/>
      </g>
     </g>
    </g>
    <g id="xtick_2">
     <g id="line2d_3">
      <path clip-path="url(#pfdd93cab14)" d="M 125.864688 203.605001 
L 125.864688 101.768261 
" style="fill:none;stroke:#ffffff;stroke-linecap:square;stroke-width:0.8;"/>
     </g>
     <g id="line2d_4">
      <g>
       <use style="stroke:#000000;stroke-width:0.8;" x="125.864688" xlink:href="#mbf5608bc0f" y="203.605001"/>
      </g>
     </g>
     <g id="text_2">
      <!-- 10 -->
      <g transform="translate(119.502188 218.203438)scale(0.1 -0.1)">
       <defs>
        <path d="M 794 531 
L 1825 531 
L 1825 4091 
L 703 3866 
L 703 4441 
L 1819 4666 
L 2450 4666 
L 2450 531 
L 3481 531 
L 3481 0 
L 794 0 
L 794 531 
z
" id="DejaVuSans-31" transform="scale(0.015625)"/>
       </defs>
       <use xlink:href="#DejaVuSans-31"/>
       <use x="63.623047" xlink:href="#DejaVuSans-30"/>
      </g>
     </g>
    </g>
    <g id="xtick_3">
     <g id="line2d_5">
      <path clip-path="url(#pfdd93cab14)" d="M 182.455452 203.605001 
L 182.455452 101.768261 
" style="fill:none;stroke:#ffffff;stroke-linecap:square;stroke-width:0.8;"/>
     </g>
     <g id="line2d_6">
      <g>
       <use style="stroke:#000000;stroke-width:0.8;" x="182.455452" xlink:href="#mbf5608bc0f" y="203.605001"/>
      </g>
     </g>
     <g id="text_3">
      <!-- 20 -->
      <g transform="translate(176.092952 218.203438)scale(0.1 -0.1)">
       <defs>
        <path d="M 1228 531 
L 3431 531 
L 3431 0 
L 469 0 
L 469 531 
Q 828 903 1448 1529 
Q 2069 2156 2228 2338 
Q 2531 2678 2651 2914 
Q 2772 3150 2772 3378 
Q 2772 3750 2511 3984 
Q 2250 4219 1831 4219 
Q 1534 4219 1204 4116 
Q 875 4013 500 3803 
L 500 4441 
Q 881 4594 1212 4672 
Q 1544 4750 1819 4750 
Q 2544 4750 2975 4387 
Q 3406 4025 3406 3419 
Q 3406 3131 3298 2873 
Q 3191 2616 2906 2266 
Q 2828 2175 2409 1742 
Q 1991 1309 1228 531 
z
" id="DejaVuSans-32" transform="scale(0.015625)"/>
       </defs>
       <use xlink:href="#DejaVuSans-32"/>
       <use x="63.623047" xlink:href="#DejaVuSans-30"/>
      </g>
     </g>
    </g>
    <g id="xtick_4">
     <g id="line2d_7">
      <path clip-path="url(#pfdd93cab14)" d="M 239.046215 203.605001 
L 239.046215 101.768261 
" style="fill:none;stroke:#ffffff;stroke-linecap:square;stroke-width:0.8;"/>
     </g>
     <g id="line2d_8">
      <g>
       <use style="stroke:#000000;stroke-width:0.8;" x="239.046215" xlink:href="#mbf5608bc0f" y="203.605001"/>
      </g>
     </g>
     <g id="text_4">
      <!-- 30 -->
      <g transform="translate(232.683715 218.203438)scale(0.1 -0.1)">
       <defs>
        <path d="M 2597 2516 
Q 3050 2419 3304 2112 
Q 3559 1806 3559 1356 
Q 3559 666 3084 287 
Q 2609 -91 1734 -91 
Q 1441 -91 1130 -33 
Q 819 25 488 141 
L 488 750 
Q 750 597 1062 519 
Q 1375 441 1716 441 
Q 2309 441 2620 675 
Q 2931 909 2931 1356 
Q 2931 1769 2642 2001 
Q 2353 2234 1838 2234 
L 1294 2234 
L 1294 2753 
L 1863 2753 
Q 2328 2753 2575 2939 
Q 2822 3125 2822 3475 
Q 2822 3834 2567 4026 
Q 2313 4219 1838 4219 
Q 1578 4219 1281 4162 
Q 984 4106 628 3988 
L 628 4550 
Q 988 4650 1302 4700 
Q 1616 4750 1894 4750 
Q 2613 4750 3031 4423 
Q 3450 4097 3450 3541 
Q 3450 3153 3228 2886 
Q 3006 2619 2597 2516 
z
" id="DejaVuSans-33" transform="scale(0.015625)"/>
       </defs>
       <use xlink:href="#DejaVuSans-33"/>
       <use x="63.623047" xlink:href="#DejaVuSans-30"/>
      </g>
     </g>
    </g>
    <g id="xtick_5">
     <g id="line2d_9">
      <path clip-path="url(#pfdd93cab14)" d="M 295.636979 203.605001 
L 295.636979 101.768261 
" style="fill:none;stroke:#ffffff;stroke-linecap:square;stroke-width:0.8;"/>
     </g>
     <g id="line2d_10">
      <g>
       <use style="stroke:#000000;stroke-width:0.8;" x="295.636979" xlink:href="#mbf5608bc0f" y="203.605001"/>
      </g>
     </g>
     <g id="text_5">
      <!-- 40 -->
      <g transform="translate(289.274479 218.203438)scale(0.1 -0.1)">
       <defs>
        <path d="M 2419 4116 
L 825 1625 
L 2419 1625 
L 2419 4116 
z
M 2253 4666 
L 3047 4666 
L 3047 1625 
L 3713 1625 
L 3713 1100 
L 3047 1100 
L 3047 0 
L 2419 0 
L 2419 1100 
L 313 1100 
L 313 1709 
L 2253 4666 
z
" id="DejaVuSans-34" transform="scale(0.015625)"/>
       </defs>
       <use xlink:href="#DejaVuSans-34"/>
       <use x="63.623047" xlink:href="#DejaVuSans-30"/>
      </g>
     </g>
    </g>
    <g id="xtick_6">
     <g id="line2d_11">
      <path clip-path="url(#pfdd93cab14)" d="M 352.227742 203.605001 
L 352.227742 101.768261 
" style="fill:none;stroke:#ffffff;stroke-linecap:square;stroke-width:0.8;"/>
     </g>
     <g id="line2d_12">
      <g>
       <use style="stroke:#000000;stroke-width:0.8;" x="352.227742" xlink:href="#mbf5608bc0f" y="203.605001"/>
      </g>
     </g>
     <g id="text_6">
      <!-- 50 -->
      <g transform="translate(345.865242 218.203438)scale(0.1 -0.1)">
       <defs>
        <path d="M 691 4666 
L 3169 4666 
L 3169 4134 
L 1269 4134 
L 1269 2991 
Q 1406 3038 1543 3061 
Q 1681 3084 1819 3084 
Q 2600 3084 3056 2656 
Q 3513 2228 3513 1497 
Q 3513 744 3044 326 
Q 2575 -91 1722 -91 
Q 1428 -91 1123 -41 
Q 819 9 494 109 
L 494 744 
Q 775 591 1075 516 
Q 1375 441 1709 441 
Q 2250 441 2565 725 
Q 2881 1009 2881 1497 
Q 2881 1984 2565 2268 
Q 2250 2553 1709 2553 
Q 1456 2553 1204 2497 
Q 953 2441 691 2322 
L 691 4666 
z
" id="DejaVuSans-35" transform="scale(0.015625)"/>
       </defs>
       <use xlink:href="#DejaVuSans-35"/>
       <use x="63.623047" xlink:href="#DejaVuSans-30"/>
      </g>
     </g>
    </g>
    <g id="xtick_7">
     <g id="line2d_13">
      <path clip-path="url(#pfdd93cab14)" d="M 408.818506 203.605001 
L 408.818506 101.768261 
" style="fill:none;stroke:#ffffff;stroke-linecap:square;stroke-width:0.8;"/>
     </g>
     <g id="line2d_14">
      <g>
       <use style="stroke:#000000;stroke-width:0.8;" x="408.818506" xlink:href="#mbf5608bc0f" y="203.605001"/>
      </g>
     </g>
     <g id="text_7">
      <!-- 60 -->
      <g transform="translate(402.456006 218.203438)scale(0.1 -0.1)">
       <defs>
        <path d="M 2113 2584 
Q 1688 2584 1439 2293 
Q 1191 2003 1191 1497 
Q 1191 994 1439 701 
Q 1688 409 2113 409 
Q 2538 409 2786 701 
Q 3034 994 3034 1497 
Q 3034 2003 2786 2293 
Q 2538 2584 2113 2584 
z
M 3366 4563 
L 3366 3988 
Q 3128 4100 2886 4159 
Q 2644 4219 2406 4219 
Q 1781 4219 1451 3797 
Q 1122 3375 1075 2522 
Q 1259 2794 1537 2939 
Q 1816 3084 2150 3084 
Q 2853 3084 3261 2657 
Q 3669 2231 3669 1497 
Q 3669 778 3244 343 
Q 2819 -91 2113 -91 
Q 1303 -91 875 529 
Q 447 1150 447 2328 
Q 447 3434 972 4092 
Q 1497 4750 2381 4750 
Q 2619 4750 2861 4703 
Q 3103 4656 3366 4563 
z
" id="DejaVuSans-36" transform="scale(0.015625)"/>
       </defs>
       <use xlink:href="#DejaVuSans-36"/>
       <use x="63.623047" xlink:href="#DejaVuSans-30"/>
      </g>
     </g>
    </g>
    <g id="xtick_8">
     <g id="line2d_15">
      <path clip-path="url(#pfdd93cab14)" d="M 465.409269 203.605001 
L 465.409269 101.768261 
" style="fill:none;stroke:#ffffff;stroke-linecap:square;stroke-width:0.8;"/>
     </g>
     <g id="line2d_16">
      <g>
       <use style="stroke:#000000;stroke-width:0.8;" x="465.409269" xlink:href="#mbf5608bc0f" y="203.605001"/>
      </g>
     </g>
     <g id="text_8">
      <!-- 70 -->
      <g transform="translate(459.046769 218.203438)scale(0.1 -0.1)">
       <defs>
        <path d="M 525 4666 
L 3525 4666 
L 3525 4397 
L 1831 0 
L 1172 0 
L 2766 4134 
L 525 4134 
L 525 4666 
z
" id="DejaVuSans-37" transform="scale(0.015625)"/>
       </defs>
       <use xlink:href="#DejaVuSans-37"/>
       <use x="63.623047" xlink:href="#DejaVuSans-30"/>
      </g>
     </g>
    </g>
    <g id="text_9">
     <!-- Age (months) -->
     <g transform="translate(232.208173 233.401251)scale(0.12 -0.12)">
      <defs>
       <path d="M 2188 4044 
L 1331 1722 
L 3047 1722 
L 2188 4044 
z
M 1831 4666 
L 2547 4666 
L 4325 0 
L 3669 0 
L 3244 1197 
L 1141 1197 
L 716 0 
L 50 0 
L 1831 4666 
z
" id="DejaVuSans-41" transform="scale(0.015625)"/>
       <path d="M 2906 1791 
Q 2906 2416 2648 2759 
Q 2391 3103 1925 3103 
Q 1463 3103 1205 2759 
Q 947 2416 947 1791 
Q 947 1169 1205 825 
Q 1463 481 1925 481 
Q 2391 481 2648 825 
Q 2906 1169 2906 1791 
z
M 3481 434 
Q 3481 -459 3084 -895 
Q 2688 -1331 1869 -1331 
Q 1566 -1331 1297 -1286 
Q 1028 -1241 775 -1147 
L 775 -588 
Q 1028 -725 1275 -790 
Q 1522 -856 1778 -856 
Q 2344 -856 2625 -561 
Q 2906 -266 2906 331 
L 2906 616 
Q 2728 306 2450 153 
Q 2172 0 1784 0 
Q 1141 0 747 490 
Q 353 981 353 1791 
Q 353 2603 747 3093 
Q 1141 3584 1784 3584 
Q 2172 3584 2450 3431 
Q 2728 3278 2906 2969 
L 2906 3500 
L 3481 3500 
L 3481 434 
z
" id="DejaVuSans-67" transform="scale(0.015625)"/>
       <path d="M 3597 1894 
L 3597 1613 
L 953 1613 
Q 991 1019 1311 708 
Q 1631 397 2203 397 
Q 2534 397 2845 478 
Q 3156 559 3463 722 
L 3463 178 
Q 3153 47 2828 -22 
Q 2503 -91 2169 -91 
Q 1331 -91 842 396 
Q 353 884 353 1716 
Q 353 2575 817 3079 
Q 1281 3584 2069 3584 
Q 2775 3584 3186 3129 
Q 3597 2675 3597 1894 
z
M 3022 2063 
Q 3016 2534 2758 2815 
Q 2500 3097 2075 3097 
Q 1594 3097 1305 2825 
Q 1016 2553 972 2059 
L 3022 2063 
z
" id="DejaVuSans-65" transform="scale(0.015625)"/>
       <path id="DejaVuSans-20" transform="scale(0.015625)"/>
       <path d="M 1984 4856 
Q 1566 4138 1362 3434 
Q 1159 2731 1159 2009 
Q 1159 1288 1364 580 
Q 1569 -128 1984 -844 
L 1484 -844 
Q 1016 -109 783 600 
Q 550 1309 550 2009 
Q 550 2706 781 3412 
Q 1013 4119 1484 4856 
L 1984 4856 
z
" id="DejaVuSans-28" transform="scale(0.015625)"/>
       <path d="M 3328 2828 
Q 3544 3216 3844 3400 
Q 4144 3584 4550 3584 
Q 5097 3584 5394 3201 
Q 5691 2819 5691 2113 
L 5691 0 
L 5113 0 
L 5113 2094 
Q 5113 2597 4934 2840 
Q 4756 3084 4391 3084 
Q 3944 3084 3684 2787 
Q 3425 2491 3425 1978 
L 3425 0 
L 2847 0 
L 2847 2094 
Q 2847 2600 2669 2842 
Q 2491 3084 2119 3084 
Q 1678 3084 1418 2786 
Q 1159 2488 1159 1978 
L 1159 0 
L 581 0 
L 581 3500 
L 1159 3500 
L 1159 2956 
Q 1356 3278 1631 3431 
Q 1906 3584 2284 3584 
Q 2666 3584 2933 3390 
Q 3200 3197 3328 2828 
z
" id="DejaVuSans-6d" transform="scale(0.015625)"/>
       <path d="M 1959 3097 
Q 1497 3097 1228 2736 
Q 959 2375 959 1747 
Q 959 1119 1226 758 
Q 1494 397 1959 397 
Q 2419 397 2687 759 
Q 2956 1122 2956 1747 
Q 2956 2369 2687 2733 
Q 2419 3097 1959 3097 
z
M 1959 3584 
Q 2709 3584 3137 3096 
Q 3566 2609 3566 1747 
Q 3566 888 3137 398 
Q 2709 -91 1959 -91 
Q 1206 -91 779 398 
Q 353 888 353 1747 
Q 353 2609 779 3096 
Q 1206 3584 1959 3584 
z
" id="DejaVuSans-6f" transform="scale(0.015625)"/>
       <path d="M 3513 2113 
L 3513 0 
L 2938 0 
L 2938 2094 
Q 2938 2591 2744 2837 
Q 2550 3084 2163 3084 
Q 1697 3084 1428 2787 
Q 1159 2491 1159 1978 
L 1159 0 
L 581 0 
L 581 3500 
L 1159 3500 
L 1159 2956 
Q 1366 3272 1645 3428 
Q 1925 3584 2291 3584 
Q 2894 3584 3203 3211 
Q 3513 2838 3513 2113 
z
" id="DejaVuSans-6e" transform="scale(0.015625)"/>
       <path d="M 1172 4494 
L 1172 3500 
L 2356 3500 
L 2356 3053 
L 1172 3053 
L 1172 1153 
Q 1172 725 1289 603 
Q 1406 481 1766 481 
L 2356 481 
L 2356 0 
L 1766 0 
Q 1100 0 847 248 
Q 594 497 594 1153 
L 594 3053 
L 172 3053 
L 172 3500 
L 594 3500 
L 594 4494 
L 1172 4494 
z
" id="DejaVuSans-74" transform="scale(0.015625)"/>
       <path d="M 3513 2113 
L 3513 0 
L 2938 0 
L 2938 2094 
Q 2938 2591 2744 2837 
Q 2550 3084 2163 3084 
Q 1697 3084 1428 2787 
Q 1159 2491 1159 1978 
L 1159 0 
L 581 0 
L 581 4863 
L 1159 4863 
L 1159 2956 
Q 1366 3272 1645 3428 
Q 1925 3584 2291 3584 
Q 2894 3584 3203 3211 
Q 3513 2838 3513 2113 
z
" id="DejaVuSans-68" transform="scale(0.015625)"/>
       <path d="M 2834 3397 
L 2834 2853 
Q 2591 2978 2328 3040 
Q 2066 3103 1784 3103 
Q 1356 3103 1142 2972 
Q 928 2841 928 2578 
Q 928 2378 1081 2264 
Q 1234 2150 1697 2047 
L 1894 2003 
Q 2506 1872 2764 1633 
Q 3022 1394 3022 966 
Q 3022 478 2636 193 
Q 2250 -91 1575 -91 
Q 1294 -91 989 -36 
Q 684 19 347 128 
L 347 722 
Q 666 556 975 473 
Q 1284 391 1588 391 
Q 1994 391 2212 530 
Q 2431 669 2431 922 
Q 2431 1156 2273 1281 
Q 2116 1406 1581 1522 
L 1381 1569 
Q 847 1681 609 1914 
Q 372 2147 372 2553 
Q 372 3047 722 3315 
Q 1072 3584 1716 3584 
Q 2034 3584 2315 3537 
Q 2597 3491 2834 3397 
z
" id="DejaVuSans-73" transform="scale(0.015625)"/>
       <path d="M 513 4856 
L 1013 4856 
Q 1481 4119 1714 3412 
Q 1947 2706 1947 2009 
Q 1947 1309 1714 600 
Q 1481 -109 1013 -844 
L 513 -844 
Q 928 -128 1133 580 
Q 1338 1288 1338 2009 
Q 1338 2731 1133 3434 
Q 928 4138 513 4856 
z
" id="DejaVuSans-29" transform="scale(0.015625)"/>
      </defs>
      <use xlink:href="#DejaVuSans-41"/>
      <use x="68.408203" xlink:href="#DejaVuSans-67"/>
      <use x="131.884766" xlink:href="#DejaVuSans-65"/>
      <use x="193.408203" xlink:href="#DejaVuSans-20"/>
      <use x="225.195312" xlink:href="#DejaVuSans-28"/>
      <use x="264.208984" xlink:href="#DejaVuSans-6d"/>
      <use x="361.621094" xlink:href="#DejaVuSans-6f"/>
      <use x="422.802734" xlink:href="#DejaVuSans-6e"/>
      <use x="486.181641" xlink:href="#DejaVuSans-74"/>
      <use x="525.390625" xlink:href="#DejaVuSans-68"/>
      <use x="588.769531" xlink:href="#DejaVuSans-73"/>
      <use x="640.869141" xlink:href="#DejaVuSans-29"/>
     </g>
    </g>
   </g>
   <g id="matplotlib.axis_2">
    <g id="ytick_1">
     <g id="line2d_17">
      <path clip-path="url(#pfdd93cab14)" d="M 48.90125 199.688203 
L 497.100097 199.688203 
" style="fill:none;stroke:#ffffff;stroke-linecap:square;stroke-width:0.8;"/>
     </g>
     <g id="line2d_18">
      <defs>
       <path d="M 0 0 
L -3.5 0 
" id="m0e7a59ba27" style="stroke:#000000;stroke-width:0.8;"/>
      </defs>
      <g>
       <use style="stroke:#000000;stroke-width:0.8;" x="48.90125" xlink:href="#m0e7a59ba27" y="199.688203"/>
      </g>
     </g>
     <g id="text_10">
      <!-- 0 -->
      <g transform="translate(35.53875 203.487422)scale(0.1 -0.1)">
       <use xlink:href="#DejaVuSans-30"/>
      </g>
     </g>
    </g>
    <g id="ytick_2">
     <g id="line2d_19">
      <path clip-path="url(#pfdd93cab14)" d="M 48.90125 160.520226 
L 497.100097 160.520226 
" style="fill:none;stroke:#ffffff;stroke-linecap:square;stroke-width:0.8;"/>
     </g>
     <g id="line2d_20">
      <g>
       <use style="stroke:#000000;stroke-width:0.8;" x="48.90125" xlink:href="#m0e7a59ba27" y="160.520226"/>
      </g>
     </g>
     <g id="text_11">
      <!-- 100 -->
      <g transform="translate(22.81375 164.319445)scale(0.1 -0.1)">
       <use xlink:href="#DejaVuSans-31"/>
       <use x="63.623047" xlink:href="#DejaVuSans-30"/>
       <use x="127.246094" xlink:href="#DejaVuSans-30"/>
      </g>
     </g>
    </g>
    <g id="ytick_3">
     <g id="line2d_21">
      <path clip-path="url(#pfdd93cab14)" d="M 48.90125 121.35225 
L 497.100097 121.35225 
" style="fill:none;stroke:#ffffff;stroke-linecap:square;stroke-width:0.8;"/>
     </g>
     <g id="line2d_22">
      <g>
       <use style="stroke:#000000;stroke-width:0.8;" x="48.90125" xlink:href="#m0e7a59ba27" y="121.35225"/>
      </g>
     </g>
     <g id="text_12">
      <!-- 200 -->
      <g transform="translate(22.81375 125.151468)scale(0.1 -0.1)">
       <use xlink:href="#DejaVuSans-32"/>
       <use x="63.623047" xlink:href="#DejaVuSans-30"/>
       <use x="127.246094" xlink:href="#DejaVuSans-30"/>
      </g>
     </g>
    </g>
    <g id="text_13">
     <!-- Number of files -->
     <g transform="translate(16.318125 198.650381)rotate(-90)scale(0.12 -0.12)">
      <defs>
       <path d="M 628 4666 
L 1478 4666 
L 3547 763 
L 3547 4666 
L 4159 4666 
L 4159 0 
L 3309 0 
L 1241 3903 
L 1241 0 
L 628 0 
L 628 4666 
z
" id="DejaVuSans-4e" transform="scale(0.015625)"/>
       <path d="M 544 1381 
L 544 3500 
L 1119 3500 
L 1119 1403 
Q 1119 906 1312 657 
Q 1506 409 1894 409 
Q 2359 409 2629 706 
Q 2900 1003 2900 1516 
L 2900 3500 
L 3475 3500 
L 3475 0 
L 2900 0 
L 2900 538 
Q 2691 219 2414 64 
Q 2138 -91 1772 -91 
Q 1169 -91 856 284 
Q 544 659 544 1381 
z
M 1991 3584 
L 1991 3584 
z
" id="DejaVuSans-75" transform="scale(0.015625)"/>
       <path d="M 3116 1747 
Q 3116 2381 2855 2742 
Q 2594 3103 2138 3103 
Q 1681 3103 1420 2742 
Q 1159 2381 1159 1747 
Q 1159 1113 1420 752 
Q 1681 391 2138 391 
Q 2594 391 2855 752 
Q 3116 1113 3116 1747 
z
M 1159 2969 
Q 1341 3281 1617 3432 
Q 1894 3584 2278 3584 
Q 2916 3584 3314 3078 
Q 3713 2572 3713 1747 
Q 3713 922 3314 415 
Q 2916 -91 2278 -91 
Q 1894 -91 1617 61 
Q 1341 213 1159 525 
L 1159 0 
L 581 0 
L 581 4863 
L 1159 4863 
L 1159 2969 
z
" id="DejaVuSans-62" transform="scale(0.015625)"/>
       <path d="M 2631 2963 
Q 2534 3019 2420 3045 
Q 2306 3072 2169 3072 
Q 1681 3072 1420 2755 
Q 1159 2438 1159 1844 
L 1159 0 
L 581 0 
L 581 3500 
L 1159 3500 
L 1159 2956 
Q 1341 3275 1631 3429 
Q 1922 3584 2338 3584 
Q 2397 3584 2469 3576 
Q 2541 3569 2628 3553 
L 2631 2963 
z
" id="DejaVuSans-72" transform="scale(0.015625)"/>
       <path d="M 2375 4863 
L 2375 4384 
L 1825 4384 
Q 1516 4384 1395 4259 
Q 1275 4134 1275 3809 
L 1275 3500 
L 2222 3500 
L 2222 3053 
L 1275 3053 
L 1275 0 
L 697 0 
L 697 3053 
L 147 3053 
L 147 3500 
L 697 3500 
L 697 3744 
Q 697 4328 969 4595 
Q 1241 4863 1831 4863 
L 2375 4863 
z
" id="DejaVuSans-66" transform="scale(0.015625)"/>
       <path d="M 603 3500 
L 1178 3500 
L 1178 0 
L 603 0 
L 603 3500 
z
M 603 4863 
L 1178 4863 
L 1178 4134 
L 603 4134 
L 603 4863 
z
" id="DejaVuSans-69" transform="scale(0.015625)"/>
       <path d="M 603 4863 
L 1178 4863 
L 1178 0 
L 603 0 
L 603 4863 
z
" id="DejaVuSans-6c" transform="scale(0.015625)"/>
      </defs>
      <use xlink:href="#DejaVuSans-4e"/>
      <use x="74.804688" xlink:href="#DejaVuSans-75"/>
      <use x="138.183594" xlink:href="#DejaVuSans-6d"/>
      <use x="235.595703" xlink:href="#DejaVuSans-62"/>
      <use x="299.072266" xlink:href="#DejaVuSans-65"/>
      <use x="360.595703" xlink:href="#DejaVuSans-72"/>
      <use x="401.708984" xlink:href="#DejaVuSans-20"/>
      <use x="433.496094" xlink:href="#DejaVuSans-6f"/>
      <use x="494.677734" xlink:href="#DejaVuSans-66"/>
      <use x="529.882812" xlink:href="#DejaVuSans-20"/>
      <use x="561.669922" xlink:href="#DejaVuSans-66"/>
      <use x="596.875" xlink:href="#DejaVuSans-69"/>
      <use x="624.658203" xlink:href="#DejaVuSans-6c"/>
      <use x="652.441406" xlink:href="#DejaVuSans-65"/>
      <use x="713.964844" xlink:href="#DejaVuSans-73"/>
     </g>
    </g>
   </g>
   <g id="patch_3">
    <path clip-path="url(#pfdd93cab14)" d="M 69.273925 199.688203 
L 69.273925 161.303586 
L 74.933001 161.303586 
L 74.933001 199.688203 
L 108.887459 199.688203 
L 108.887459 118.218811 
L 114.546536 118.218811 
L 114.546536 199.688203 
L 125.864688 199.688203 
L 125.864688 145.636395 
L 131.523765 145.636395 
L 131.523765 126.444087 
L 137.182841 126.444087 
L 137.182841 199.688203 
L 142.841917 199.688203 
L 142.841917 198.904844 
L 148.500994 198.904844 
L 148.500994 199.688203 
L 154.16007 199.688203 
L 154.16007 199.296523 
L 159.819146 199.296523 
L 159.819146 198.904844 
L 165.478223 198.904844 
L 165.478223 197.729804 
L 171.137299 197.729804 
L 171.137299 161.695266 
L 176.796375 161.695266 
L 176.796375 196.554765 
L 182.455452 196.554765 
L 182.455452 185.587732 
L 188.114528 185.587732 
L 188.114528 194.988046 
L 193.773604 194.988046 
L 193.773604 189.112849 
L 199.432681 189.112849 
L 199.432681 196.163085 
L 205.091757 196.163085 
L 205.091757 116.260413 
L 210.750834 116.260413 
L 210.750834 195.379726 
L 216.40991 195.379726 
L 216.40991 187.54613 
L 222.068986 187.54613 
L 222.068986 191.854608 
L 227.728063 191.854608 
L 227.728063 143.286317 
L 233.387139 143.286317 
L 233.387139 191.462928 
L 239.046215 191.462928 
L 239.046215 193.421327 
L 244.705292 193.421327 
L 244.705292 191.854608 
L 250.364368 191.854608 
L 250.364368 191.462928 
L 256.023444 191.462928 
L 256.023444 191.854608 
L 261.682521 191.854608 
L 261.682521 194.988046 
L 267.341597 194.988046 
L 267.341597 194.596366 
L 273.000673 194.596366 
L 273.000673 193.813007 
L 278.65975 193.813007 
L 278.65975 195.771405 
L 284.318826 195.771405 
L 284.318826 194.204686 
L 289.977902 194.204686 
L 289.977902 193.421327 
L 295.636979 193.421327 
L 295.636979 187.54613 
L 301.296055 187.54613 
L 301.296055 192.637967 
L 306.955131 192.637967 
L 306.955131 194.204686 
L 312.614208 194.204686 
L 312.614208 184.021012 
L 318.273284 184.021012 
L 318.273284 185.587732 
L 323.93236 185.587732 
L 323.93236 178.929175 
L 329.591437 178.929175 
L 329.591437 181.670934 
L 335.250513 181.670934 
L 335.250513 185.196052 
L 340.909589 185.196052 
L 340.909589 176.579097 
L 346.568666 176.579097 
L 346.568666 182.845973 
L 352.227742 182.845973 
L 352.227742 184.804372 
L 357.886819 184.804372 
L 357.886819 187.93781 
L 363.545895 187.93781 
L 363.545895 194.596366 
L 369.204971 194.596366 
L 369.204971 186.762771 
L 374.864048 186.762771 
L 374.864048 190.287889 
L 380.523124 190.287889 
L 380.523124 185.196052 
L 386.1822 185.196052 
L 386.1822 191.462928 
L 391.841277 191.462928 
L 391.841277 163.653665 
L 397.500353 163.653665 
L 397.500353 191.462928 
L 403.159429 191.462928 
L 403.159429 183.629333 
L 408.818506 183.629333 
L 408.818506 193.029647 
L 414.477582 193.029647 
L 414.477582 189.504529 
L 420.136658 189.504529 
L 420.136658 191.071248 
L 425.795735 191.071248 
L 425.795735 191.854608 
L 431.454811 191.854608 
L 431.454811 184.412692 
L 437.113887 184.412692 
L 437.113887 191.071248 
L 442.772964 191.071248 
L 442.772964 180.495895 
L 448.43204 180.495895 
L 448.43204 174.620698 
L 454.091116 174.620698 
L 454.091116 179.320855 
L 459.750193 179.320855 
L 459.750193 183.237653 
L 465.409269 183.237653 
L 465.409269 181.670934 
L 471.068345 181.670934 
L 471.068345 176.970777 
L 476.727422 176.970777 
L 476.727422 199.688203 
L 476.727422 199.688203 
" style="fill:none;stroke:#2f934d;stroke-linejoin:miter;stroke-width:1.3;"/>
   </g>
   <g id="patch_4">
    <path d="M 48.90125 203.605001 
L 48.90125 101.768261 
" style="fill:none;stroke:#000000;stroke-linecap:square;stroke-linejoin:miter;stroke-width:0.8;"/>
   </g>
   <g id="patch_5">
    <path d="M 48.90125 203.605001 
L 497.100097 203.605001 
" style="fill:none;stroke:#000000;stroke-linecap:square;stroke-linejoin:miter;stroke-width:0.8;"/>
   </g>
   <g id="text_14">
    <!--  -->
    <g transform="translate(48.90125 62.174824)scale(0.15 -0.15)"/>
    <!-- A. Age -->
    <g transform="translate(48.90125 78.971542)scale(0.15 -0.15)">
     <defs>
      <path d="M 684 794 
L 1344 794 
L 1344 0 
L 684 0 
L 684 794 
z
" id="DejaVuSans-2e" transform="scale(0.015625)"/>
     </defs>
     <use xlink:href="#DejaVuSans-41"/>
     <use x="66.658203" xlink:href="#DejaVuSans-2e"/>
     <use x="98.445312" xlink:href="#DejaVuSans-20"/>
     <use x="130.232422" xlink:href="#DejaVuSans-41"/>
     <use x="198.640625" xlink:href="#DejaVuSans-67"/>
     <use x="262.117188" xlink:href="#DejaVuSans-65"/>
    </g>
    <!--  -->
    <g transform="translate(48.90125 95.768261)scale(0.15 -0.15)"/>
   </g>
  </g>
  <g id="axes_2">
   <g id="patch_6">
    <path d="M 503.100577 203.605001 
L 721.19952 203.605001 
L 721.19952 101.768261 
L 503.100577 101.768261 
z
" style="fill:#ffffff;"/>
   </g>
   <g id="patch_7">
    <path clip-path="url(#pb2a7b1d79f)" d="M 513.014165 203.605001 
L 711.285932 203.605001 
L 711.285932 151.848067 
L 513.014165 151.848067 
z
" style="fill:#e5f5ac;stroke:#ffffff;stroke-linejoin:miter;"/>
   </g>
   <g id="patch_8">
    <path clip-path="url(#pb2a7b1d79f)" d="M 513.014165 151.848067 
L 711.285932 151.848067 
L 711.285932 106.994658 
L 513.014165 106.994658 
z
" style="fill:#b6e192;stroke:#ffffff;stroke-linejoin:miter;"/>
   </g>
   <g id="patch_9">
    <path clip-path="url(#pb2a7b1d79f)" d="M 513.014165 106.994658 
L 711.285932 106.994658 
L 711.285932 101.768261 
L 513.014165 101.768261 
z
" style="fill:#77c679;stroke:#ffffff;stroke-linejoin:miter;"/>
   </g>
   <g id="text_15">
    <!-- FEMALE, N = 1327 -->
    <g transform="translate(565.423486 180.485909)scale(0.1 -0.1)">
     <defs>
      <path d="M 628 4666 
L 3309 4666 
L 3309 4134 
L 1259 4134 
L 1259 2759 
L 3109 2759 
L 3109 2228 
L 1259 2228 
L 1259 0 
L 628 0 
L 628 4666 
z
" id="DejaVuSans-46" transform="scale(0.015625)"/>
      <path d="M 628 4666 
L 3578 4666 
L 3578 4134 
L 1259 4134 
L 1259 2753 
L 3481 2753 
L 3481 2222 
L 1259 2222 
L 1259 531 
L 3634 531 
L 3634 0 
L 628 0 
L 628 4666 
z
" id="DejaVuSans-45" transform="scale(0.015625)"/>
      <path d="M 628 4666 
L 1569 4666 
L 2759 1491 
L 3956 4666 
L 4897 4666 
L 4897 0 
L 4281 0 
L 4281 4097 
L 3078 897 
L 2444 897 
L 1241 4097 
L 1241 0 
L 628 0 
L 628 4666 
z
" id="DejaVuSans-4d" transform="scale(0.015625)"/>
      <path d="M 628 4666 
L 1259 4666 
L 1259 531 
L 3531 531 
L 3531 0 
L 628 0 
L 628 4666 
z
" id="DejaVuSans-4c" transform="scale(0.015625)"/>
      <path d="M 750 794 
L 1409 794 
L 1409 256 
L 897 -744 
L 494 -744 
L 750 256 
L 750 794 
z
" id="DejaVuSans-2c" transform="scale(0.015625)"/>
      <path d="M 678 2906 
L 4684 2906 
L 4684 2381 
L 678 2381 
L 678 2906 
z
M 678 1631 
L 4684 1631 
L 4684 1100 
L 678 1100 
L 678 1631 
z
" id="DejaVuSans-3d" transform="scale(0.015625)"/>
     </defs>
     <use xlink:href="#DejaVuSans-46"/>
     <use x="57.519531" xlink:href="#DejaVuSans-45"/>
     <use x="120.703125" xlink:href="#DejaVuSans-4d"/>
     <use x="206.982422" xlink:href="#DejaVuSans-41"/>
     <use x="275.390625" xlink:href="#DejaVuSans-4c"/>
     <use x="331.103516" xlink:href="#DejaVuSans-45"/>
     <use x="394.287109" xlink:href="#DejaVuSans-2c"/>
     <use x="426.074219" xlink:href="#DejaVuSans-20"/>
     <use x="457.861328" xlink:href="#DejaVuSans-4e"/>
     <use x="532.666016" xlink:href="#DejaVuSans-20"/>
     <use x="564.453125" xlink:href="#DejaVuSans-3d"/>
     <use x="648.242188" xlink:href="#DejaVuSans-20"/>
     <use x="680.029297" xlink:href="#DejaVuSans-31"/>
     <use x="743.652344" xlink:href="#DejaVuSans-33"/>
     <use x="807.275391" xlink:href="#DejaVuSans-32"/>
     <use x="870.898438" xlink:href="#DejaVuSans-37"/>
    </g>
   </g>
   <g id="text_16">
    <!-- MALE, N = 1150 -->
    <g transform="translate(571.458642 132.180738)scale(0.1 -0.1)">
     <use xlink:href="#DejaVuSans-4d"/>
     <use x="86.279297" xlink:href="#DejaVuSans-41"/>
     <use x="154.6875" xlink:href="#DejaVuSans-4c"/>
     <use x="210.400391" xlink:href="#DejaVuSans-45"/>
     <use x="273.583984" xlink:href="#DejaVuSans-2c"/>
     <use x="305.371094" xlink:href="#DejaVuSans-20"/>
     <use x="337.158203" xlink:href="#DejaVuSans-4e"/>
     <use x="411.962891" xlink:href="#DejaVuSans-20"/>
     <use x="443.75" xlink:href="#DejaVuSans-3d"/>
     <use x="527.539062" xlink:href="#DejaVuSans-20"/>
     <use x="559.326172" xlink:href="#DejaVuSans-31"/>
     <use x="622.949219" xlink:href="#DejaVuSans-31"/>
     <use x="686.572266" xlink:href="#DejaVuSans-35"/>
     <use x="750.195312" xlink:href="#DejaVuSans-30"/>
    </g>
   </g>
   <g id="text_17">
    <!-- UNSPECIFIED, N = 134 -->
    <g transform="translate(555.24458 107.140835)scale(0.1 -0.1)">
     <defs>
      <path d="M 556 4666 
L 1191 4666 
L 1191 1831 
Q 1191 1081 1462 751 
Q 1734 422 2344 422 
Q 2950 422 3222 751 
Q 3494 1081 3494 1831 
L 3494 4666 
L 4128 4666 
L 4128 1753 
Q 4128 841 3676 375 
Q 3225 -91 2344 -91 
Q 1459 -91 1007 375 
Q 556 841 556 1753 
L 556 4666 
z
" id="DejaVuSans-55" transform="scale(0.015625)"/>
      <path d="M 3425 4513 
L 3425 3897 
Q 3066 4069 2747 4153 
Q 2428 4238 2131 4238 
Q 1616 4238 1336 4038 
Q 1056 3838 1056 3469 
Q 1056 3159 1242 3001 
Q 1428 2844 1947 2747 
L 2328 2669 
Q 3034 2534 3370 2195 
Q 3706 1856 3706 1288 
Q 3706 609 3251 259 
Q 2797 -91 1919 -91 
Q 1588 -91 1214 -16 
Q 841 59 441 206 
L 441 856 
Q 825 641 1194 531 
Q 1563 422 1919 422 
Q 2459 422 2753 634 
Q 3047 847 3047 1241 
Q 3047 1584 2836 1778 
Q 2625 1972 2144 2069 
L 1759 2144 
Q 1053 2284 737 2584 
Q 422 2884 422 3419 
Q 422 4038 858 4394 
Q 1294 4750 2059 4750 
Q 2388 4750 2728 4690 
Q 3069 4631 3425 4513 
z
" id="DejaVuSans-53" transform="scale(0.015625)"/>
      <path d="M 1259 4147 
L 1259 2394 
L 2053 2394 
Q 2494 2394 2734 2622 
Q 2975 2850 2975 3272 
Q 2975 3691 2734 3919 
Q 2494 4147 2053 4147 
L 1259 4147 
z
M 628 4666 
L 2053 4666 
Q 2838 4666 3239 4311 
Q 3641 3956 3641 3272 
Q 3641 2581 3239 2228 
Q 2838 1875 2053 1875 
L 1259 1875 
L 1259 0 
L 628 0 
L 628 4666 
z
" id="DejaVuSans-50" transform="scale(0.015625)"/>
      <path d="M 4122 4306 
L 4122 3641 
Q 3803 3938 3442 4084 
Q 3081 4231 2675 4231 
Q 1875 4231 1450 3742 
Q 1025 3253 1025 2328 
Q 1025 1406 1450 917 
Q 1875 428 2675 428 
Q 3081 428 3442 575 
Q 3803 722 4122 1019 
L 4122 359 
Q 3791 134 3420 21 
Q 3050 -91 2638 -91 
Q 1578 -91 968 557 
Q 359 1206 359 2328 
Q 359 3453 968 4101 
Q 1578 4750 2638 4750 
Q 3056 4750 3426 4639 
Q 3797 4528 4122 4306 
z
" id="DejaVuSans-43" transform="scale(0.015625)"/>
      <path d="M 628 4666 
L 1259 4666 
L 1259 0 
L 628 0 
L 628 4666 
z
" id="DejaVuSans-49" transform="scale(0.015625)"/>
      <path d="M 1259 4147 
L 1259 519 
L 2022 519 
Q 2988 519 3436 956 
Q 3884 1394 3884 2338 
Q 3884 3275 3436 3711 
Q 2988 4147 2022 4147 
L 1259 4147 
z
M 628 4666 
L 1925 4666 
Q 3281 4666 3915 4102 
Q 4550 3538 4550 2338 
Q 4550 1131 3912 565 
Q 3275 0 1925 0 
L 628 0 
L 628 4666 
z
" id="DejaVuSans-44" transform="scale(0.015625)"/>
     </defs>
     <use xlink:href="#DejaVuSans-55"/>
     <use x="73.193359" xlink:href="#DejaVuSans-4e"/>
     <use x="147.998047" xlink:href="#DejaVuSans-53"/>
     <use x="211.474609" xlink:href="#DejaVuSans-50"/>
     <use x="271.777344" xlink:href="#DejaVuSans-45"/>
     <use x="334.960938" xlink:href="#DejaVuSans-43"/>
     <use x="404.785156" xlink:href="#DejaVuSans-49"/>
     <use x="434.277344" xlink:href="#DejaVuSans-46"/>
     <use x="491.796875" xlink:href="#DejaVuSans-49"/>
     <use x="521.289062" xlink:href="#DejaVuSans-45"/>
     <use x="584.472656" xlink:href="#DejaVuSans-44"/>
     <use x="661.474609" xlink:href="#DejaVuSans-2c"/>
     <use x="693.261719" xlink:href="#DejaVuSans-20"/>
     <use x="725.048828" xlink:href="#DejaVuSans-4e"/>
     <use x="799.853516" xlink:href="#DejaVuSans-20"/>
     <use x="831.640625" xlink:href="#DejaVuSans-3d"/>
     <use x="915.429688" xlink:href="#DejaVuSans-20"/>
     <use x="947.216797" xlink:href="#DejaVuSans-31"/>
     <use x="1010.839844" xlink:href="#DejaVuSans-33"/>
     <use x="1074.462891" xlink:href="#DejaVuSans-34"/>
    </g>
   </g>
   <g id="text_18">
    <!--  -->
    <g transform="translate(503.100577 62.174824)scale(0.15 -0.15)"/>
    <!-- B. Sex -->
    <g transform="translate(503.100577 78.971542)scale(0.15 -0.15)">
     <defs>
      <path d="M 1259 2228 
L 1259 519 
L 2272 519 
Q 2781 519 3026 730 
Q 3272 941 3272 1375 
Q 3272 1813 3026 2020 
Q 2781 2228 2272 2228 
L 1259 2228 
z
M 1259 4147 
L 1259 2741 
L 2194 2741 
Q 2656 2741 2882 2914 
Q 3109 3088 3109 3444 
Q 3109 3797 2882 3972 
Q 2656 4147 2194 4147 
L 1259 4147 
z
M 628 4666 
L 2241 4666 
Q 2963 4666 3353 4366 
Q 3744 4066 3744 3513 
Q 3744 3084 3544 2831 
Q 3344 2578 2956 2516 
Q 3422 2416 3680 2098 
Q 3938 1781 3938 1306 
Q 3938 681 3513 340 
Q 3088 0 2303 0 
L 628 0 
L 628 4666 
z
" id="DejaVuSans-42" transform="scale(0.015625)"/>
      <path d="M 3513 3500 
L 2247 1797 
L 3578 0 
L 2900 0 
L 1881 1375 
L 863 0 
L 184 0 
L 1544 1831 
L 300 3500 
L 978 3500 
L 1906 2253 
L 2834 3500 
L 3513 3500 
z
" id="DejaVuSans-78" transform="scale(0.015625)"/>
     </defs>
     <use xlink:href="#DejaVuSans-42"/>
     <use x="68.603516" xlink:href="#DejaVuSans-2e"/>
     <use x="100.390625" xlink:href="#DejaVuSans-20"/>
     <use x="132.177734" xlink:href="#DejaVuSans-53"/>
     <use x="195.654297" xlink:href="#DejaVuSans-65"/>
     <use x="255.427734" xlink:href="#DejaVuSans-78"/>
    </g>
    <!--  -->
    <g transform="translate(503.100577 95.768261)scale(0.15 -0.15)"/>
   </g>
  </g>
  <g id="axes_3">
   <g id="patch_10">
    <path d="M 48.90125 701.434928 
L 267.000193 701.434928 
L 267.000193 294.08797 
L 48.90125 294.08797 
z
" style="fill:#ffffff;"/>
   </g>
   <g id="patch_11">
    <path clip-path="url(#p7990f9aea0)" d="M 58.814838 701.434928 
L 257.086605 701.434928 
L 257.086605 359.456938 
L 58.814838 359.456938 
z
" style="fill:#e5f5ac;stroke:#ffffff;stroke-linejoin:miter;stroke-width:0.5;"/>
   </g>
   <g id="patch_12">
    <path clip-path="url(#p7990f9aea0)" d="M 58.814838 359.456938 
L 257.086605 359.456938 
L 257.086605 320.922009 
L 58.814838 320.922009 
z
" style="fill:#d0ec9f;stroke:#ffffff;stroke-linejoin:miter;stroke-width:0.5;"/>
   </g>
   <g id="patch_13">
    <path clip-path="url(#p7990f9aea0)" d="M 58.814838 320.922009 
L 257.086605 320.922009 
L 257.086605 310.313203 
L 58.814838 310.313203 
z
" style="fill:#b6e192;stroke:#ffffff;stroke-linejoin:miter;stroke-width:0.5;"/>
   </g>
   <g id="patch_14">
    <path clip-path="url(#p7990f9aea0)" d="M 58.814838 310.313203 
L 257.086605 310.313203 
L 257.086605 302.980645 
L 58.814838 302.980645 
z
" style="fill:#98d486;stroke:#ffffff;stroke-linejoin:miter;stroke-width:0.5;"/>
   </g>
   <g id="patch_15">
    <path clip-path="url(#p7990f9aea0)" d="M 58.814838 302.980645 
L 257.086605 302.980645 
L 257.086605 299.860408 
L 58.814838 299.860408 
z
" style="fill:#77c679;stroke:#ffffff;stroke-linejoin:miter;stroke-width:0.5;"/>
   </g>
   <g id="patch_16">
    <path clip-path="url(#p7990f9aea0)" d="M 58.814838 299.860408 
L 257.086605 299.860408 
L 257.086605 298.144278 
L 58.814838 298.144278 
z
" style="fill:#56b568;stroke:#ffffff;stroke-linejoin:miter;stroke-width:0.5;"/>
   </g>
   <g id="patch_17">
    <path clip-path="url(#p7990f9aea0)" d="M 58.814838 298.144278 
L 257.086605 298.144278 
L 257.086605 296.584159 
L 58.814838 296.584159 
z
" style="fill:#3ba358;stroke:#ffffff;stroke-linejoin:miter;stroke-width:0.5;"/>
   </g>
   <g id="patch_18">
    <path clip-path="url(#p7990f9aea0)" d="M 58.814838 296.584159 
L 257.086605 296.584159 
L 257.086605 295.336064 
L 58.814838 295.336064 
z
" style="fill:#298c48;stroke:#ffffff;stroke-linejoin:miter;stroke-width:0.5;"/>
   </g>
   <g id="patch_19">
    <path clip-path="url(#p7990f9aea0)" d="M 58.814838 295.336064 
L 257.086605 295.336064 
L 257.086605 294.08797 
L 58.814838 294.08797 
z
" style="fill:#15793e;stroke:#ffffff;stroke-linejoin:miter;stroke-width:0.5;"/>
   </g>
   <g id="matplotlib.axis_3">
    <g id="ytick_4">
     <g id="line2d_23">
      <g>
       <use style="stroke:#000000;stroke-width:0.8;" x="48.90125" xlink:href="#m0e7a59ba27" y="701.434928"/>
      </g>
     </g>
     <g id="text_19">
      <!-- 0 -->
      <g transform="translate(35.53875 705.234147)scale(0.1 -0.1)">
       <use xlink:href="#DejaVuSans-30"/>
      </g>
     </g>
    </g>
    <g id="ytick_5">
     <g id="line2d_24">
      <g>
       <use style="stroke:#000000;stroke-width:0.8;" x="48.90125" xlink:href="#m0e7a59ba27" y="619.965536"/>
      </g>
     </g>
     <g id="text_20">
      <!-- 20 -->
      <g transform="translate(29.17625 623.764755)scale(0.1 -0.1)">
       <use xlink:href="#DejaVuSans-32"/>
       <use x="63.623047" xlink:href="#DejaVuSans-30"/>
      </g>
     </g>
    </g>
    <g id="ytick_6">
     <g id="line2d_25">
      <g>
       <use style="stroke:#000000;stroke-width:0.8;" x="48.90125" xlink:href="#m0e7a59ba27" y="538.496145"/>
      </g>
     </g>
     <g id="text_21">
      <!-- 40 -->
      <g transform="translate(29.17625 542.295363)scale(0.1 -0.1)">
       <use xlink:href="#DejaVuSans-34"/>
       <use x="63.623047" xlink:href="#DejaVuSans-30"/>
      </g>
     </g>
    </g>
    <g id="ytick_7">
     <g id="line2d_26">
      <g>
       <use style="stroke:#000000;stroke-width:0.8;" x="48.90125" xlink:href="#m0e7a59ba27" y="457.026753"/>
      </g>
     </g>
     <g id="text_22">
      <!-- 60 -->
      <g transform="translate(29.17625 460.825972)scale(0.1 -0.1)">
       <use xlink:href="#DejaVuSans-36"/>
       <use x="63.623047" xlink:href="#DejaVuSans-30"/>
      </g>
     </g>
    </g>
    <g id="ytick_8">
     <g id="line2d_27">
      <g>
       <use style="stroke:#000000;stroke-width:0.8;" x="48.90125" xlink:href="#m0e7a59ba27" y="375.557361"/>
      </g>
     </g>
     <g id="text_23">
      <!-- 80 -->
      <g transform="translate(29.17625 379.35658)scale(0.1 -0.1)">
       <defs>
        <path d="M 2034 2216 
Q 1584 2216 1326 1975 
Q 1069 1734 1069 1313 
Q 1069 891 1326 650 
Q 1584 409 2034 409 
Q 2484 409 2743 651 
Q 3003 894 3003 1313 
Q 3003 1734 2745 1975 
Q 2488 2216 2034 2216 
z
M 1403 2484 
Q 997 2584 770 2862 
Q 544 3141 544 3541 
Q 544 4100 942 4425 
Q 1341 4750 2034 4750 
Q 2731 4750 3128 4425 
Q 3525 4100 3525 3541 
Q 3525 3141 3298 2862 
Q 3072 2584 2669 2484 
Q 3125 2378 3379 2068 
Q 3634 1759 3634 1313 
Q 3634 634 3220 271 
Q 2806 -91 2034 -91 
Q 1263 -91 848 271 
Q 434 634 434 1313 
Q 434 1759 690 2068 
Q 947 2378 1403 2484 
z
M 1172 3481 
Q 1172 3119 1398 2916 
Q 1625 2713 2034 2713 
Q 2441 2713 2670 2916 
Q 2900 3119 2900 3481 
Q 2900 3844 2670 4047 
Q 2441 4250 2034 4250 
Q 1625 4250 1398 4047 
Q 1172 3844 1172 3481 
z
" id="DejaVuSans-38" transform="scale(0.015625)"/>
       </defs>
       <use xlink:href="#DejaVuSans-38"/>
       <use x="63.623047" xlink:href="#DejaVuSans-30"/>
      </g>
     </g>
    </g>
    <g id="ytick_9">
     <g id="line2d_28">
      <g>
       <use style="stroke:#000000;stroke-width:0.8;" x="48.90125" xlink:href="#m0e7a59ba27" y="294.08797"/>
      </g>
     </g>
     <g id="text_24">
      <!-- 100 -->
      <g transform="translate(22.81375 297.887188)scale(0.1 -0.1)">
       <use xlink:href="#DejaVuSans-31"/>
       <use x="63.623047" xlink:href="#DejaVuSans-30"/>
       <use x="127.246094" xlink:href="#DejaVuSans-30"/>
      </g>
     </g>
    </g>
    <g id="text_25">
     <!-- Percentage total, % -->
     <g transform="translate(16.318125 556.649574)rotate(-90)scale(0.12 -0.12)">
      <defs>
       <path d="M 3122 3366 
L 3122 2828 
Q 2878 2963 2633 3030 
Q 2388 3097 2138 3097 
Q 1578 3097 1268 2742 
Q 959 2388 959 1747 
Q 959 1106 1268 751 
Q 1578 397 2138 397 
Q 2388 397 2633 464 
Q 2878 531 3122 666 
L 3122 134 
Q 2881 22 2623 -34 
Q 2366 -91 2075 -91 
Q 1284 -91 818 406 
Q 353 903 353 1747 
Q 353 2603 823 3093 
Q 1294 3584 2113 3584 
Q 2378 3584 2631 3529 
Q 2884 3475 3122 3366 
z
" id="DejaVuSans-63" transform="scale(0.015625)"/>
       <path d="M 2194 1759 
Q 1497 1759 1228 1600 
Q 959 1441 959 1056 
Q 959 750 1161 570 
Q 1363 391 1709 391 
Q 2188 391 2477 730 
Q 2766 1069 2766 1631 
L 2766 1759 
L 2194 1759 
z
M 3341 1997 
L 3341 0 
L 2766 0 
L 2766 531 
Q 2569 213 2275 61 
Q 1981 -91 1556 -91 
Q 1019 -91 701 211 
Q 384 513 384 1019 
Q 384 1609 779 1909 
Q 1175 2209 1959 2209 
L 2766 2209 
L 2766 2266 
Q 2766 2663 2505 2880 
Q 2244 3097 1772 3097 
Q 1472 3097 1187 3025 
Q 903 2953 641 2809 
L 641 3341 
Q 956 3463 1253 3523 
Q 1550 3584 1831 3584 
Q 2591 3584 2966 3190 
Q 3341 2797 3341 1997 
z
" id="DejaVuSans-61" transform="scale(0.015625)"/>
       <path d="M 4653 2053 
Q 4381 2053 4226 1822 
Q 4072 1591 4072 1178 
Q 4072 772 4226 539 
Q 4381 306 4653 306 
Q 4919 306 5073 539 
Q 5228 772 5228 1178 
Q 5228 1588 5073 1820 
Q 4919 2053 4653 2053 
z
M 4653 2450 
Q 5147 2450 5437 2106 
Q 5728 1763 5728 1178 
Q 5728 594 5436 251 
Q 5144 -91 4653 -91 
Q 4153 -91 3862 251 
Q 3572 594 3572 1178 
Q 3572 1766 3864 2108 
Q 4156 2450 4653 2450 
z
M 1428 4353 
Q 1159 4353 1004 4120 
Q 850 3888 850 3481 
Q 850 3069 1003 2837 
Q 1156 2606 1428 2606 
Q 1700 2606 1854 2837 
Q 2009 3069 2009 3481 
Q 2009 3884 1853 4118 
Q 1697 4353 1428 4353 
z
M 4250 4750 
L 4750 4750 
L 1831 -91 
L 1331 -91 
L 4250 4750 
z
M 1428 4750 
Q 1922 4750 2215 4408 
Q 2509 4066 2509 3481 
Q 2509 2891 2217 2550 
Q 1925 2209 1428 2209 
Q 931 2209 642 2551 
Q 353 2894 353 3481 
Q 353 4063 643 4406 
Q 934 4750 1428 4750 
z
" id="DejaVuSans-25" transform="scale(0.015625)"/>
      </defs>
      <use xlink:href="#DejaVuSans-50"/>
      <use x="56.677734" xlink:href="#DejaVuSans-65"/>
      <use x="118.201172" xlink:href="#DejaVuSans-72"/>
      <use x="157.064453" xlink:href="#DejaVuSans-63"/>
      <use x="212.044922" xlink:href="#DejaVuSans-65"/>
      <use x="273.568359" xlink:href="#DejaVuSans-6e"/>
      <use x="336.947266" xlink:href="#DejaVuSans-74"/>
      <use x="376.15625" xlink:href="#DejaVuSans-61"/>
      <use x="437.435547" xlink:href="#DejaVuSans-67"/>
      <use x="500.912109" xlink:href="#DejaVuSans-65"/>
      <use x="562.435547" xlink:href="#DejaVuSans-20"/>
      <use x="594.222656" xlink:href="#DejaVuSans-74"/>
      <use x="633.431641" xlink:href="#DejaVuSans-6f"/>
      <use x="694.613281" xlink:href="#DejaVuSans-74"/>
      <use x="733.822266" xlink:href="#DejaVuSans-61"/>
      <use x="795.101562" xlink:href="#DejaVuSans-6c"/>
      <use x="822.884766" xlink:href="#DejaVuSans-2c"/>
      <use x="854.671875" xlink:href="#DejaVuSans-20"/>
      <use x="886.458984" xlink:href="#DejaVuSans-25"/>
     </g>
    </g>
   </g>
   <g id="patch_20">
    <path d="M 48.90125 701.434928 
L 48.90125 294.08797 
" style="fill:none;stroke:#000000;stroke-linecap:square;stroke-linejoin:miter;stroke-width:0.8;"/>
   </g>
   <g id="text_26">
    <!-- UNSPECIFIED, N = 2192 -->
    <g transform="translate(97.864003 533.205308)scale(0.1 -0.1)">
     <defs>
      <path d="M 703 97 
L 703 672 
Q 941 559 1184 500 
Q 1428 441 1663 441 
Q 2288 441 2617 861 
Q 2947 1281 2994 2138 
Q 2813 1869 2534 1725 
Q 2256 1581 1919 1581 
Q 1219 1581 811 2004 
Q 403 2428 403 3163 
Q 403 3881 828 4315 
Q 1253 4750 1959 4750 
Q 2769 4750 3195 4129 
Q 3622 3509 3622 2328 
Q 3622 1225 3098 567 
Q 2575 -91 1691 -91 
Q 1453 -91 1209 -44 
Q 966 3 703 97 
z
M 1959 2075 
Q 2384 2075 2632 2365 
Q 2881 2656 2881 3163 
Q 2881 3666 2632 3958 
Q 2384 4250 1959 4250 
Q 1534 4250 1286 3958 
Q 1038 3666 1038 3163 
Q 1038 2656 1286 2365 
Q 1534 2075 1959 2075 
z
" id="DejaVuSans-39" transform="scale(0.015625)"/>
     </defs>
     <use xlink:href="#DejaVuSans-55"/>
     <use x="73.193359" xlink:href="#DejaVuSans-4e"/>
     <use x="147.998047" xlink:href="#DejaVuSans-53"/>
     <use x="211.474609" xlink:href="#DejaVuSans-50"/>
     <use x="271.777344" xlink:href="#DejaVuSans-45"/>
     <use x="334.960938" xlink:href="#DejaVuSans-43"/>
     <use x="404.785156" xlink:href="#DejaVuSans-49"/>
     <use x="434.277344" xlink:href="#DejaVuSans-46"/>
     <use x="491.796875" xlink:href="#DejaVuSans-49"/>
     <use x="521.289062" xlink:href="#DejaVuSans-45"/>
     <use x="584.472656" xlink:href="#DejaVuSans-44"/>
     <use x="661.474609" xlink:href="#DejaVuSans-2c"/>
     <use x="693.261719" xlink:href="#DejaVuSans-20"/>
     <use x="725.048828" xlink:href="#DejaVuSans-4e"/>
     <use x="799.853516" xlink:href="#DejaVuSans-20"/>
     <use x="831.640625" xlink:href="#DejaVuSans-3d"/>
     <use x="915.429688" xlink:href="#DejaVuSans-20"/>
     <use x="947.216797" xlink:href="#DejaVuSans-32"/>
     <use x="1010.839844" xlink:href="#DejaVuSans-31"/>
     <use x="1074.462891" xlink:href="#DejaVuSans-39"/>
     <use x="1138.085938" xlink:href="#DejaVuSans-32"/>
    </g>
   </g>
   <g id="text_27">
    <!-- MC, N = 247 -->
    <g transform="translate(126.314784 342.948848)scale(0.1 -0.1)">
     <use xlink:href="#DejaVuSans-4d"/>
     <use x="86.279297" xlink:href="#DejaVuSans-43"/>
     <use x="156.103516" xlink:href="#DejaVuSans-2c"/>
     <use x="187.890625" xlink:href="#DejaVuSans-20"/>
     <use x="219.677734" xlink:href="#DejaVuSans-4e"/>
     <use x="294.482422" xlink:href="#DejaVuSans-20"/>
     <use x="326.269531" xlink:href="#DejaVuSans-3d"/>
     <use x="410.058594" xlink:href="#DejaVuSans-20"/>
     <use x="441.845703" xlink:href="#DejaVuSans-32"/>
     <use x="505.46875" xlink:href="#DejaVuSans-34"/>
     <use x="569.091797" xlink:href="#DejaVuSans-37"/>
    </g>
   </g>
   <g id="text_28">
    <!-- WC, N = 68 -->
    <g transform="translate(128.866347 318.376981)scale(0.1 -0.1)">
     <defs>
      <path d="M 213 4666 
L 850 4666 
L 1831 722 
L 2809 4666 
L 3519 4666 
L 4500 722 
L 5478 4666 
L 6119 4666 
L 4947 0 
L 4153 0 
L 3169 4050 
L 2175 0 
L 1381 0 
L 213 4666 
z
" id="DejaVuSans-57" transform="scale(0.015625)"/>
     </defs>
     <use xlink:href="#DejaVuSans-57"/>
     <use x="98.876953" xlink:href="#DejaVuSans-43"/>
     <use x="168.701172" xlink:href="#DejaVuSans-2c"/>
     <use x="200.488281" xlink:href="#DejaVuSans-20"/>
     <use x="232.275391" xlink:href="#DejaVuSans-4e"/>
     <use x="307.080078" xlink:href="#DejaVuSans-20"/>
     <use x="338.867188" xlink:href="#DejaVuSans-3d"/>
     <use x="422.65625" xlink:href="#DejaVuSans-20"/>
     <use x="454.443359" xlink:href="#DejaVuSans-36"/>
     <use x="518.066406" xlink:href="#DejaVuSans-38"/>
    </g>
   </g>
   <g id="text_29">
    <!-- UC, N = 47 -->
    <g transform="translate(130.150722 309.406299)scale(0.1 -0.1)">
     <use xlink:href="#DejaVuSans-55"/>
     <use x="73.193359" xlink:href="#DejaVuSans-43"/>
     <use x="143.017578" xlink:href="#DejaVuSans-2c"/>
     <use x="174.804688" xlink:href="#DejaVuSans-20"/>
     <use x="206.591797" xlink:href="#DejaVuSans-4e"/>
     <use x="281.396484" xlink:href="#DejaVuSans-20"/>
     <use x="313.183594" xlink:href="#DejaVuSans-3d"/>
     <use x="396.972656" xlink:href="#DejaVuSans-20"/>
     <use x="428.759766" xlink:href="#DejaVuSans-34"/>
     <use x="492.382812" xlink:href="#DejaVuSans-37"/>
    </g>
   </g>
   <g id="text_30">
    <!-- *Categories &lt;1% not shown -->
    <g transform="translate(73.207284 718.699992)scale(0.12 -0.12)">
     <defs>
      <path d="M 3009 3897 
L 1888 3291 
L 3009 2681 
L 2828 2375 
L 1778 3009 
L 1778 1831 
L 1422 1831 
L 1422 3009 
L 372 2375 
L 191 2681 
L 1313 3291 
L 191 3897 
L 372 4206 
L 1422 3572 
L 1422 4750 
L 1778 4750 
L 1778 3572 
L 2828 4206 
L 3009 3897 
z
" id="DejaVuSans-2a" transform="scale(0.015625)"/>
      <path d="M 4684 3150 
L 1459 2003 
L 4684 863 
L 4684 294 
L 678 1747 
L 678 2266 
L 4684 3719 
L 4684 3150 
z
" id="DejaVuSans-3c" transform="scale(0.015625)"/>
      <path d="M 269 3500 
L 844 3500 
L 1563 769 
L 2278 3500 
L 2956 3500 
L 3675 769 
L 4391 3500 
L 4966 3500 
L 4050 0 
L 3372 0 
L 2619 2869 
L 1863 0 
L 1184 0 
L 269 3500 
z
" id="DejaVuSans-77" transform="scale(0.015625)"/>
     </defs>
     <use xlink:href="#DejaVuSans-2a"/>
     <use x="50" xlink:href="#DejaVuSans-43"/>
     <use x="119.824219" xlink:href="#DejaVuSans-61"/>
     <use x="181.103516" xlink:href="#DejaVuSans-74"/>
     <use x="220.3125" xlink:href="#DejaVuSans-65"/>
     <use x="281.835938" xlink:href="#DejaVuSans-67"/>
     <use x="345.3125" xlink:href="#DejaVuSans-6f"/>
     <use x="406.494141" xlink:href="#DejaVuSans-72"/>
     <use x="447.607422" xlink:href="#DejaVuSans-69"/>
     <use x="475.390625" xlink:href="#DejaVuSans-65"/>
     <use x="536.914062" xlink:href="#DejaVuSans-73"/>
     <use x="589.013672" xlink:href="#DejaVuSans-20"/>
     <use x="620.800781" xlink:href="#DejaVuSans-3c"/>
     <use x="704.589844" xlink:href="#DejaVuSans-31"/>
     <use x="768.212891" xlink:href="#DejaVuSans-25"/>
     <use x="863.232422" xlink:href="#DejaVuSans-20"/>
     <use x="895.019531" xlink:href="#DejaVuSans-6e"/>
     <use x="958.398438" xlink:href="#DejaVuSans-6f"/>
     <use x="1019.580078" xlink:href="#DejaVuSans-74"/>
     <use x="1058.789062" xlink:href="#DejaVuSans-20"/>
     <use x="1090.576172" xlink:href="#DejaVuSans-73"/>
     <use x="1142.675781" xlink:href="#DejaVuSans-68"/>
     <use x="1206.054688" xlink:href="#DejaVuSans-6f"/>
     <use x="1267.236328" xlink:href="#DejaVuSans-77"/>
     <use x="1349.023438" xlink:href="#DejaVuSans-6e"/>
    </g>
   </g>
   <g id="text_31">
    <!--  -->
    <g transform="translate(48.90125 254.494532)scale(0.15 -0.15)"/>
    <!-- C. Socioeconomic status* -->
    <g transform="translate(48.90125 271.291251)scale(0.15 -0.15)">
     <use xlink:href="#DejaVuSans-43"/>
     <use x="69.824219" xlink:href="#DejaVuSans-2e"/>
     <use x="101.611328" xlink:href="#DejaVuSans-20"/>
     <use x="133.398438" xlink:href="#DejaVuSans-53"/>
     <use x="196.875" xlink:href="#DejaVuSans-6f"/>
     <use x="258.056641" xlink:href="#DejaVuSans-63"/>
     <use x="313.037109" xlink:href="#DejaVuSans-69"/>
     <use x="340.820312" xlink:href="#DejaVuSans-6f"/>
     <use x="402.001953" xlink:href="#DejaVuSans-65"/>
     <use x="463.525391" xlink:href="#DejaVuSans-63"/>
     <use x="518.505859" xlink:href="#DejaVuSans-6f"/>
     <use x="579.6875" xlink:href="#DejaVuSans-6e"/>
     <use x="643.066406" xlink:href="#DejaVuSans-6f"/>
     <use x="704.248047" xlink:href="#DejaVuSans-6d"/>
     <use x="801.660156" xlink:href="#DejaVuSans-69"/>
     <use x="829.443359" xlink:href="#DejaVuSans-63"/>
     <use x="884.423828" xlink:href="#DejaVuSans-20"/>
     <use x="916.210938" xlink:href="#DejaVuSans-73"/>
     <use x="968.310547" xlink:href="#DejaVuSans-74"/>
     <use x="1007.519531" xlink:href="#DejaVuSans-61"/>
     <use x="1068.798828" xlink:href="#DejaVuSans-74"/>
     <use x="1108.007812" xlink:href="#DejaVuSans-75"/>
     <use x="1171.386719" xlink:href="#DejaVuSans-73"/>
     <use x="1223.486328" xlink:href="#DejaVuSans-2a"/>
    </g>
    <!--  -->
    <g transform="translate(48.90125 288.08797)scale(0.15 -0.15)"/>
   </g>
  </g>
  <g id="axes_4">
   <g id="patch_21">
    <path d="M 279.001153 701.434928 
L 497.100097 701.434928 
L 497.100097 294.08797 
L 279.001153 294.08797 
z
" style="fill:#ffffff;"/>
   </g>
   <g id="patch_22">
    <path clip-path="url(#pf136a61072)" d="M 288.914742 701.434928 
L 487.186508 701.434928 
L 487.186508 553.847711 
L 288.914742 553.847711 
z
" style="fill:#e5f5ac;stroke:#ffffff;stroke-linejoin:miter;stroke-width:0.5;"/>
   </g>
   <g id="patch_23">
    <path clip-path="url(#pf136a61072)" d="M 288.914742 553.847711 
L 487.186508 553.847711 
L 487.186508 493.315111 
L 288.914742 493.315111 
z
" style="fill:#e0f3a8;stroke:#ffffff;stroke-linejoin:miter;stroke-width:0.5;"/>
   </g>
   <g id="patch_24">
    <path clip-path="url(#pf136a61072)" d="M 288.914742 493.315111 
L 487.186508 493.315111 
L 487.186508 439.335008 
L 288.914742 439.335008 
z
" style="fill:#dcf1a5;stroke:#ffffff;stroke-linejoin:miter;stroke-width:0.5;"/>
   </g>
   <g id="patch_25">
    <path clip-path="url(#pf136a61072)" d="M 288.914742 439.335008 
L 487.186508 439.335008 
L 487.186508 388.787167 
L 288.914742 388.787167 
z
" style="fill:#d6efa2;stroke:#ffffff;stroke-linejoin:miter;stroke-width:0.5;"/>
   </g>
   <g id="patch_26">
    <path clip-path="url(#pf136a61072)" d="M 288.914742 388.787167 
L 487.186508 388.787167 
L 487.186508 373.498005 
L 288.914742 373.498005 
z
" style="fill:#cfec9e;stroke:#ffffff;stroke-linejoin:miter;stroke-width:0.5;"/>
   </g>
   <g id="patch_27">
    <path clip-path="url(#pf136a61072)" d="M 288.914742 373.498005 
L 487.186508 373.498005 
L 487.186508 359.144914 
L 288.914742 359.144914 
z
" style="fill:#c8e99b;stroke:#ffffff;stroke-linejoin:miter;stroke-width:0.5;"/>
   </g>
   <g id="patch_28">
    <path clip-path="url(#pf136a61072)" d="M 288.914742 359.144914 
L 487.186508 359.144914 
L 487.186508 347.756048 
L 288.914742 347.756048 
z
" style="fill:#c1e698;stroke:#ffffff;stroke-linejoin:miter;stroke-width:0.5;"/>
   </g>
   <g id="patch_29">
    <path clip-path="url(#pf136a61072)" d="M 288.914742 347.756048 
L 487.186508 347.756048 
L 487.186508 337.615278 
L 288.914742 337.615278 
z
" style="fill:#b9e294;stroke:#ffffff;stroke-linejoin:miter;stroke-width:0.5;"/>
   </g>
   <g id="patch_30">
    <path clip-path="url(#pf136a61072)" d="M 288.914742 337.615278 
L 487.186508 337.615278 
L 487.186508 332.154863 
L 288.914742 332.154863 
z
" style="fill:#b2df90;stroke:#ffffff;stroke-linejoin:miter;stroke-width:0.5;"/>
   </g>
   <g id="patch_31">
    <path clip-path="url(#pf136a61072)" d="M 288.914742 332.154863 
L 487.186508 332.154863 
L 487.186508 326.85046 
L 288.914742 326.85046 
z
" style="fill:#abdc8d;stroke:#ffffff;stroke-linejoin:miter;stroke-width:0.5;"/>
   </g>
   <g id="patch_32">
    <path clip-path="url(#pf136a61072)" d="M 288.914742 326.85046 
L 487.186508 326.85046 
L 487.186508 321.85808 
L 288.914742 321.85808 
z
" style="fill:#a2d88a;stroke:#ffffff;stroke-linejoin:miter;stroke-width:0.5;"/>
   </g>
   <g id="patch_33">
    <path clip-path="url(#pf136a61072)" d="M 288.914742 321.85808 
L 487.186508 321.85808 
L 487.186508 317.333736 
L 288.914742 317.333736 
z
" style="fill:#9ad587;stroke:#ffffff;stroke-linejoin:miter;stroke-width:0.5;"/>
   </g>
   <g id="patch_34">
    <path clip-path="url(#pf136a61072)" d="M 288.914742 317.333736 
L 487.186508 317.333736 
L 487.186508 313.589452 
L 288.914742 313.589452 
z
" style="fill:#92d183;stroke:#ffffff;stroke-linejoin:miter;stroke-width:0.5;"/>
   </g>
   <g id="patch_35">
    <path clip-path="url(#pf136a61072)" d="M 288.914742 313.589452 
L 487.186508 313.589452 
L 487.186508 310.625226 
L 288.914742 310.625226 
z
" style="fill:#89ce80;stroke:#ffffff;stroke-linejoin:miter;stroke-width:0.5;"/>
   </g>
   <g id="patch_36">
    <path clip-path="url(#pf136a61072)" d="M 288.914742 310.625226 
L 487.186508 310.625226 
L 487.186508 308.597072 
L 288.914742 308.597072 
z
" style="fill:#81ca7d;stroke:#ffffff;stroke-linejoin:miter;stroke-width:0.5;"/>
   </g>
   <g id="patch_37">
    <path clip-path="url(#pf136a61072)" d="M 288.914742 308.597072 
L 487.186508 308.597072 
L 487.186508 306.568918 
L 288.914742 306.568918 
z
" style="fill:#77c679;stroke:#ffffff;stroke-linejoin:miter;stroke-width:0.5;"/>
   </g>
   <g id="patch_38">
    <path clip-path="url(#pf136a61072)" d="M 288.914742 306.568918 
L 487.186508 306.568918 
L 487.186508 304.540764 
L 288.914742 304.540764 
z
" style="fill:#6fc174;stroke:#ffffff;stroke-linejoin:miter;stroke-width:0.5;"/>
   </g>
   <g id="patch_39">
    <path clip-path="url(#pf136a61072)" d="M 288.914742 304.540764 
L 487.186508 304.540764 
L 487.186508 302.668622 
L 288.914742 302.668622 
z
" style="fill:#66bd70;stroke:#ffffff;stroke-linejoin:miter;stroke-width:0.5;"/>
   </g>
   <g id="patch_40">
    <path clip-path="url(#pf136a61072)" d="M 288.914742 302.668622 
L 487.186508 302.668622 
L 487.186508 300.952491 
L 288.914742 300.952491 
z
" style="fill:#5db96b;stroke:#ffffff;stroke-linejoin:miter;stroke-width:0.5;"/>
   </g>
   <g id="patch_41">
    <path clip-path="url(#pf136a61072)" d="M 288.914742 300.952491 
L 487.186508 300.952491 
L 487.186508 299.392373 
L 288.914742 299.392373 
z
" style="fill:#55b567;stroke:#ffffff;stroke-linejoin:miter;stroke-width:0.5;"/>
   </g>
   <g id="patch_42">
    <path clip-path="url(#pf136a61072)" d="M 288.914742 299.392373 
L 487.186508 299.392373 
L 487.186508 297.988266 
L 288.914742 297.988266 
z
" style="fill:#4cb063;stroke:#ffffff;stroke-linejoin:miter;stroke-width:0.5;"/>
   </g>
   <g id="patch_43">
    <path clip-path="url(#pf136a61072)" d="M 288.914742 297.988266 
L 487.186508 297.988266 
L 487.186508 297.364219 
L 288.914742 297.364219 
z
" style="fill:#43ac5e;stroke:#ffffff;stroke-linejoin:miter;stroke-width:0.5;"/>
   </g>
   <g id="patch_44">
    <path clip-path="url(#pf136a61072)" d="M 288.914742 297.364219 
L 487.186508 297.364219 
L 487.186508 296.740171 
L 288.914742 296.740171 
z
" style="fill:#3ea75a;stroke:#ffffff;stroke-linejoin:miter;stroke-width:0.5;"/>
   </g>
   <g id="patch_45">
    <path clip-path="url(#pf136a61072)" d="M 288.914742 296.740171 
L 487.186508 296.740171 
L 487.186508 296.272136 
L 288.914742 296.272136 
z
" style="fill:#39a056;stroke:#ffffff;stroke-linejoin:miter;stroke-width:0.5;"/>
   </g>
   <g id="patch_46">
    <path clip-path="url(#pf136a61072)" d="M 288.914742 296.272136 
L 487.186508 296.272136 
L 487.186508 295.8041 
L 288.914742 295.8041 
z
" style="fill:#339951;stroke:#ffffff;stroke-linejoin:miter;stroke-width:0.5;"/>
   </g>
   <g id="patch_47">
    <path clip-path="url(#pf136a61072)" d="M 288.914742 295.8041 
L 487.186508 295.8041 
L 487.186508 295.336064 
L 288.914742 295.336064 
z
" style="fill:#2f934d;stroke:#ffffff;stroke-linejoin:miter;stroke-width:0.5;"/>
   </g>
   <g id="patch_48">
    <path clip-path="url(#pf136a61072)" d="M 288.914742 295.336064 
L 487.186508 295.336064 
L 487.186508 294.868029 
L 288.914742 294.868029 
z
" style="fill:#2a8d49;stroke:#ffffff;stroke-linejoin:miter;stroke-width:0.5;"/>
   </g>
   <g id="patch_49">
    <path clip-path="url(#pf136a61072)" d="M 288.914742 294.868029 
L 487.186508 294.868029 
L 487.186508 294.556005 
L 288.914742 294.556005 
z
" style="fill:#258745;stroke:#ffffff;stroke-linejoin:miter;stroke-width:0.5;"/>
   </g>
   <g id="patch_50">
    <path clip-path="url(#pf136a61072)" d="M 288.914742 294.556005 
L 487.186508 294.556005 
L 487.186508 294.399993 
L 288.914742 294.399993 
z
" style="fill:#208242;stroke:#ffffff;stroke-linejoin:miter;stroke-width:0.5;"/>
   </g>
   <g id="patch_51">
    <path clip-path="url(#pf136a61072)" d="M 288.914742 294.399993 
L 487.186508 294.399993 
L 487.186508 294.243981 
L 288.914742 294.243981 
z
" style="fill:#1a7d40;stroke:#ffffff;stroke-linejoin:miter;stroke-width:0.5;"/>
   </g>
   <g id="patch_52">
    <path clip-path="url(#pf136a61072)" d="M 288.914742 294.243981 
L 487.186508 294.243981 
L 487.186508 294.08797 
L 288.914742 294.08797 
z
" style="fill:#15793e;stroke:#ffffff;stroke-linejoin:miter;stroke-width:0.5;"/>
   </g>
   <g id="text_32">
    <!-- UNSPECIFIED, N = 946 -->
    <g transform="translate(331.145156 630.400695)scale(0.1 -0.1)">
     <use xlink:href="#DejaVuSans-55"/>
     <use x="73.193359" xlink:href="#DejaVuSans-4e"/>
     <use x="147.998047" xlink:href="#DejaVuSans-53"/>
     <use x="211.474609" xlink:href="#DejaVuSans-50"/>
     <use x="271.777344" xlink:href="#DejaVuSans-45"/>
     <use x="334.960938" xlink:href="#DejaVuSans-43"/>
     <use x="404.785156" xlink:href="#DejaVuSans-49"/>
     <use x="434.277344" xlink:href="#DejaVuSans-46"/>
     <use x="491.796875" xlink:href="#DejaVuSans-49"/>
     <use x="521.289062" xlink:href="#DejaVuSans-45"/>
     <use x="584.472656" xlink:href="#DejaVuSans-44"/>
     <use x="661.474609" xlink:href="#DejaVuSans-2c"/>
     <use x="693.261719" xlink:href="#DejaVuSans-20"/>
     <use x="725.048828" xlink:href="#DejaVuSans-4e"/>
     <use x="799.853516" xlink:href="#DejaVuSans-20"/>
     <use x="831.640625" xlink:href="#DejaVuSans-3d"/>
     <use x="915.429688" xlink:href="#DejaVuSans-20"/>
     <use x="947.216797" xlink:href="#DejaVuSans-39"/>
     <use x="1010.839844" xlink:href="#DejaVuSans-34"/>
     <use x="1074.462891" xlink:href="#DejaVuSans-36"/>
    </g>
   </g>
   <g id="text_33">
    <!-- 12, N = 388 -->
    <g transform="translate(357.857656 526.340786)scale(0.1 -0.1)">
     <use xlink:href="#DejaVuSans-31"/>
     <use x="63.623047" xlink:href="#DejaVuSans-32"/>
     <use x="127.246094" xlink:href="#DejaVuSans-2c"/>
     <use x="159.033203" xlink:href="#DejaVuSans-20"/>
     <use x="190.820312" xlink:href="#DejaVuSans-4e"/>
     <use x="265.625" xlink:href="#DejaVuSans-20"/>
     <use x="297.412109" xlink:href="#DejaVuSans-3d"/>
     <use x="381.201172" xlink:href="#DejaVuSans-20"/>
     <use x="412.988281" xlink:href="#DejaVuSans-33"/>
     <use x="476.611328" xlink:href="#DejaVuSans-38"/>
     <use x="540.234375" xlink:href="#DejaVuSans-38"/>
    </g>
   </g>
   <g id="text_34">
    <!-- COLLEGE_MASTER'S, N = 346 -->
    <g transform="translate(313.383437 468.857091)scale(0.1 -0.1)">
     <defs>
      <path d="M 2522 4238 
Q 1834 4238 1429 3725 
Q 1025 3213 1025 2328 
Q 1025 1447 1429 934 
Q 1834 422 2522 422 
Q 3209 422 3611 934 
Q 4013 1447 4013 2328 
Q 4013 3213 3611 3725 
Q 3209 4238 2522 4238 
z
M 2522 4750 
Q 3503 4750 4090 4092 
Q 4678 3434 4678 2328 
Q 4678 1225 4090 567 
Q 3503 -91 2522 -91 
Q 1538 -91 948 565 
Q 359 1222 359 2328 
Q 359 3434 948 4092 
Q 1538 4750 2522 4750 
z
" id="DejaVuSans-4f" transform="scale(0.015625)"/>
      <path d="M 3809 666 
L 3809 1919 
L 2778 1919 
L 2778 2438 
L 4434 2438 
L 4434 434 
Q 4069 175 3628 42 
Q 3188 -91 2688 -91 
Q 1594 -91 976 548 
Q 359 1188 359 2328 
Q 359 3472 976 4111 
Q 1594 4750 2688 4750 
Q 3144 4750 3555 4637 
Q 3966 4525 4313 4306 
L 4313 3634 
Q 3963 3931 3569 4081 
Q 3175 4231 2741 4231 
Q 1884 4231 1454 3753 
Q 1025 3275 1025 2328 
Q 1025 1384 1454 906 
Q 1884 428 2741 428 
Q 3075 428 3337 486 
Q 3600 544 3809 666 
z
" id="DejaVuSans-47" transform="scale(0.015625)"/>
      <path d="M 3263 -1063 
L 3263 -1509 
L -63 -1509 
L -63 -1063 
L 3263 -1063 
z
" id="DejaVuSans-5f" transform="scale(0.015625)"/>
      <path d="M -19 4666 
L 3928 4666 
L 3928 4134 
L 2272 4134 
L 2272 0 
L 1638 0 
L 1638 4134 
L -19 4134 
L -19 4666 
z
" id="DejaVuSans-54" transform="scale(0.015625)"/>
      <path d="M 2841 2188 
Q 3044 2119 3236 1894 
Q 3428 1669 3622 1275 
L 4263 0 
L 3584 0 
L 2988 1197 
Q 2756 1666 2539 1819 
Q 2322 1972 1947 1972 
L 1259 1972 
L 1259 0 
L 628 0 
L 628 4666 
L 2053 4666 
Q 2853 4666 3247 4331 
Q 3641 3997 3641 3322 
Q 3641 2881 3436 2590 
Q 3231 2300 2841 2188 
z
M 1259 4147 
L 1259 2491 
L 2053 2491 
Q 2509 2491 2742 2702 
Q 2975 2913 2975 3322 
Q 2975 3731 2742 3939 
Q 2509 4147 2053 4147 
L 1259 4147 
z
" id="DejaVuSans-52" transform="scale(0.015625)"/>
      <path d="M 1147 4666 
L 1147 2931 
L 616 2931 
L 616 4666 
L 1147 4666 
z
" id="DejaVuSans-27" transform="scale(0.015625)"/>
     </defs>
     <use xlink:href="#DejaVuSans-43"/>
     <use x="69.824219" xlink:href="#DejaVuSans-4f"/>
     <use x="148.535156" xlink:href="#DejaVuSans-4c"/>
     <use x="204.248047" xlink:href="#DejaVuSans-4c"/>
     <use x="259.960938" xlink:href="#DejaVuSans-45"/>
     <use x="323.144531" xlink:href="#DejaVuSans-47"/>
     <use x="400.634766" xlink:href="#DejaVuSans-45"/>
     <use x="463.818359" xlink:href="#DejaVuSans-5f"/>
     <use x="513.818359" xlink:href="#DejaVuSans-4d"/>
     <use x="600.097656" xlink:href="#DejaVuSans-41"/>
     <use x="668.505859" xlink:href="#DejaVuSans-53"/>
     <use x="731.982422" xlink:href="#DejaVuSans-54"/>
     <use x="793.066406" xlink:href="#DejaVuSans-45"/>
     <use x="856.25" xlink:href="#DejaVuSans-52"/>
     <use x="925.732422" xlink:href="#DejaVuSans-27"/>
     <use x="953.222656" xlink:href="#DejaVuSans-53"/>
     <use x="1016.699219" xlink:href="#DejaVuSans-2c"/>
     <use x="1048.486328" xlink:href="#DejaVuSans-20"/>
     <use x="1080.273438" xlink:href="#DejaVuSans-4e"/>
     <use x="1155.078125" xlink:href="#DejaVuSans-20"/>
     <use x="1186.865234" xlink:href="#DejaVuSans-3d"/>
     <use x="1270.654297" xlink:href="#DejaVuSans-20"/>
     <use x="1302.441406" xlink:href="#DejaVuSans-33"/>
     <use x="1366.064453" xlink:href="#DejaVuSans-34"/>
     <use x="1429.6875" xlink:href="#DejaVuSans-36"/>
    </g>
   </g>
   <g id="text_35">
    <!-- COLLEGE, N = 324 -->
    <g transform="translate(341.027969 416.820463)scale(0.1 -0.1)">
     <use xlink:href="#DejaVuSans-43"/>
     <use x="69.824219" xlink:href="#DejaVuSans-4f"/>
     <use x="148.535156" xlink:href="#DejaVuSans-4c"/>
     <use x="204.248047" xlink:href="#DejaVuSans-4c"/>
     <use x="259.960938" xlink:href="#DejaVuSans-45"/>
     <use x="323.144531" xlink:href="#DejaVuSans-47"/>
     <use x="400.634766" xlink:href="#DejaVuSans-45"/>
     <use x="463.818359" xlink:href="#DejaVuSans-2c"/>
     <use x="495.605469" xlink:href="#DejaVuSans-20"/>
     <use x="527.392578" xlink:href="#DejaVuSans-4e"/>
     <use x="602.197266" xlink:href="#DejaVuSans-20"/>
     <use x="633.984375" xlink:href="#DejaVuSans-3d"/>
     <use x="717.773438" xlink:href="#DejaVuSans-20"/>
     <use x="749.560547" xlink:href="#DejaVuSans-33"/>
     <use x="813.183594" xlink:href="#DejaVuSans-32"/>
     <use x="876.806641" xlink:href="#DejaVuSans-34"/>
    </g>
   </g>
   <g id="text_36">
    <!-- 10, N = 98 -->
    <g transform="translate(361.038906 383.901961)scale(0.1 -0.1)">
     <use xlink:href="#DejaVuSans-31"/>
     <use x="63.623047" xlink:href="#DejaVuSans-30"/>
     <use x="127.246094" xlink:href="#DejaVuSans-2c"/>
     <use x="159.033203" xlink:href="#DejaVuSans-20"/>
     <use x="190.820312" xlink:href="#DejaVuSans-4e"/>
     <use x="265.625" xlink:href="#DejaVuSans-20"/>
     <use x="297.412109" xlink:href="#DejaVuSans-3d"/>
     <use x="381.201172" xlink:href="#DejaVuSans-20"/>
     <use x="412.988281" xlink:href="#DejaVuSans-39"/>
     <use x="476.611328" xlink:href="#DejaVuSans-38"/>
    </g>
   </g>
   <g id="text_37">
    <!-- 14, N = 92 -->
    <g transform="translate(361.038906 369.080834)scale(0.1 -0.1)">
     <use xlink:href="#DejaVuSans-31"/>
     <use x="63.623047" xlink:href="#DejaVuSans-34"/>
     <use x="127.246094" xlink:href="#DejaVuSans-2c"/>
     <use x="159.033203" xlink:href="#DejaVuSans-20"/>
     <use x="190.820312" xlink:href="#DejaVuSans-4e"/>
     <use x="265.625" xlink:href="#DejaVuSans-20"/>
     <use x="297.412109" xlink:href="#DejaVuSans-3d"/>
     <use x="381.201172" xlink:href="#DejaVuSans-20"/>
     <use x="412.988281" xlink:href="#DejaVuSans-39"/>
     <use x="476.611328" xlink:href="#DejaVuSans-32"/>
    </g>
   </g>
   <g id="text_38">
    <!-- 13, N = 73 -->
    <g transform="translate(361.038906 356.209856)scale(0.1 -0.1)">
     <use xlink:href="#DejaVuSans-31"/>
     <use x="63.623047" xlink:href="#DejaVuSans-33"/>
     <use x="127.246094" xlink:href="#DejaVuSans-2c"/>
     <use x="159.033203" xlink:href="#DejaVuSans-20"/>
     <use x="190.820312" xlink:href="#DejaVuSans-4e"/>
     <use x="265.625" xlink:href="#DejaVuSans-20"/>
     <use x="297.412109" xlink:href="#DejaVuSans-3d"/>
     <use x="381.201172" xlink:href="#DejaVuSans-20"/>
     <use x="412.988281" xlink:href="#DejaVuSans-37"/>
     <use x="476.611328" xlink:href="#DejaVuSans-33"/>
    </g>
   </g>
   <g id="text_39">
    <!-- COLLEGE_DOCTORAL, N = 65 -->
    <g transform="translate(313.961562 345.217694)scale(0.1 -0.1)">
     <use xlink:href="#DejaVuSans-43"/>
     <use x="69.824219" xlink:href="#DejaVuSans-4f"/>
     <use x="148.535156" xlink:href="#DejaVuSans-4c"/>
     <use x="204.248047" xlink:href="#DejaVuSans-4c"/>
     <use x="259.960938" xlink:href="#DejaVuSans-45"/>
     <use x="323.144531" xlink:href="#DejaVuSans-47"/>
     <use x="400.634766" xlink:href="#DejaVuSans-45"/>
     <use x="463.818359" xlink:href="#DejaVuSans-5f"/>
     <use x="513.818359" xlink:href="#DejaVuSans-44"/>
     <use x="590.820312" xlink:href="#DejaVuSans-4f"/>
     <use x="669.53125" xlink:href="#DejaVuSans-43"/>
     <use x="739.355469" xlink:href="#DejaVuSans-54"/>
     <use x="800.439453" xlink:href="#DejaVuSans-4f"/>
     <use x="879.150391" xlink:href="#DejaVuSans-52"/>
     <use x="944.632812" xlink:href="#DejaVuSans-41"/>
     <use x="1013.041016" xlink:href="#DejaVuSans-4c"/>
     <use x="1068.753906" xlink:href="#DejaVuSans-2c"/>
     <use x="1100.541016" xlink:href="#DejaVuSans-20"/>
     <use x="1132.328125" xlink:href="#DejaVuSans-4e"/>
     <use x="1207.132812" xlink:href="#DejaVuSans-20"/>
     <use x="1238.919922" xlink:href="#DejaVuSans-3d"/>
     <use x="1322.708984" xlink:href="#DejaVuSans-20"/>
     <use x="1354.496094" xlink:href="#DejaVuSans-36"/>
     <use x="1418.119141" xlink:href="#DejaVuSans-35"/>
    </g>
   </g>
   <g id="text_40">
    <!-- *Categories &lt;2% not shown -->
    <g transform="translate(303.307187 718.699992)scale(0.12 -0.12)">
     <use xlink:href="#DejaVuSans-2a"/>
     <use x="50" xlink:href="#DejaVuSans-43"/>
     <use x="119.824219" xlink:href="#DejaVuSans-61"/>
     <use x="181.103516" xlink:href="#DejaVuSans-74"/>
     <use x="220.3125" xlink:href="#DejaVuSans-65"/>
     <use x="281.835938" xlink:href="#DejaVuSans-67"/>
     <use x="345.3125" xlink:href="#DejaVuSans-6f"/>
     <use x="406.494141" xlink:href="#DejaVuSans-72"/>
     <use x="447.607422" xlink:href="#DejaVuSans-69"/>
     <use x="475.390625" xlink:href="#DejaVuSans-65"/>
     <use x="536.914062" xlink:href="#DejaVuSans-73"/>
     <use x="589.013672" xlink:href="#DejaVuSans-20"/>
     <use x="620.800781" xlink:href="#DejaVuSans-3c"/>
     <use x="704.589844" xlink:href="#DejaVuSans-32"/>
     <use x="768.212891" xlink:href="#DejaVuSans-25"/>
     <use x="863.232422" xlink:href="#DejaVuSans-20"/>
     <use x="895.019531" xlink:href="#DejaVuSans-6e"/>
     <use x="958.398438" xlink:href="#DejaVuSans-6f"/>
     <use x="1019.580078" xlink:href="#DejaVuSans-74"/>
     <use x="1058.789062" xlink:href="#DejaVuSans-20"/>
     <use x="1090.576172" xlink:href="#DejaVuSans-73"/>
     <use x="1142.675781" xlink:href="#DejaVuSans-68"/>
     <use x="1206.054688" xlink:href="#DejaVuSans-6f"/>
     <use x="1267.236328" xlink:href="#DejaVuSans-77"/>
     <use x="1349.023438" xlink:href="#DejaVuSans-6e"/>
    </g>
   </g>
   <g id="text_41">
    <!--  -->
    <g transform="translate(279.001153 254.494532)scale(0.15 -0.15)"/>
    <!-- D. Mother's education* -->
    <g transform="translate(279.001153 271.291251)scale(0.15 -0.15)">
     <defs>
      <path d="M 2906 2969 
L 2906 4863 
L 3481 4863 
L 3481 0 
L 2906 0 
L 2906 525 
Q 2725 213 2448 61 
Q 2172 -91 1784 -91 
Q 1150 -91 751 415 
Q 353 922 353 1747 
Q 353 2572 751 3078 
Q 1150 3584 1784 3584 
Q 2172 3584 2448 3432 
Q 2725 3281 2906 2969 
z
M 947 1747 
Q 947 1113 1208 752 
Q 1469 391 1925 391 
Q 2381 391 2643 752 
Q 2906 1113 2906 1747 
Q 2906 2381 2643 2742 
Q 2381 3103 1925 3103 
Q 1469 3103 1208 2742 
Q 947 2381 947 1747 
z
" id="DejaVuSans-64" transform="scale(0.015625)"/>
     </defs>
     <use xlink:href="#DejaVuSans-44"/>
     <use x="77.001953" xlink:href="#DejaVuSans-2e"/>
     <use x="108.789062" xlink:href="#DejaVuSans-20"/>
     <use x="140.576172" xlink:href="#DejaVuSans-4d"/>
     <use x="226.855469" xlink:href="#DejaVuSans-6f"/>
     <use x="288.037109" xlink:href="#DejaVuSans-74"/>
     <use x="327.246094" xlink:href="#DejaVuSans-68"/>
     <use x="390.625" xlink:href="#DejaVuSans-65"/>
     <use x="452.148438" xlink:href="#DejaVuSans-72"/>
     <use x="493.261719" xlink:href="#DejaVuSans-27"/>
     <use x="520.751953" xlink:href="#DejaVuSans-73"/>
     <use x="572.851562" xlink:href="#DejaVuSans-20"/>
     <use x="604.638672" xlink:href="#DejaVuSans-65"/>
     <use x="666.162109" xlink:href="#DejaVuSans-64"/>
     <use x="729.638672" xlink:href="#DejaVuSans-75"/>
     <use x="793.017578" xlink:href="#DejaVuSans-63"/>
     <use x="847.998047" xlink:href="#DejaVuSans-61"/>
     <use x="909.277344" xlink:href="#DejaVuSans-74"/>
     <use x="948.486328" xlink:href="#DejaVuSans-69"/>
     <use x="976.269531" xlink:href="#DejaVuSans-6f"/>
     <use x="1037.451172" xlink:href="#DejaVuSans-6e"/>
     <use x="1100.830078" xlink:href="#DejaVuSans-2a"/>
    </g>
    <!--  -->
    <g transform="translate(279.001153 288.08797)scale(0.15 -0.15)"/>
   </g>
  </g>
  <g id="axes_5">
   <g id="patch_53">
    <path d="M 503.100577 701.434928 
L 721.19952 701.434928 
L 721.19952 294.08797 
L 503.100577 294.08797 
z
" style="fill:#ffffff;"/>
   </g>
   <g id="patch_54">
    <path clip-path="url(#p22e51b7546)" d="M 513.014165 701.434928 
L 711.285932 701.434928 
L 711.285932 499.399573 
L 513.014165 499.399573 
z
" style="fill:#e5f5ac;stroke:#ffffff;stroke-linejoin:miter;stroke-width:0.5;"/>
   </g>
   <g id="patch_55">
    <path clip-path="url(#p22e51b7546)" d="M 513.014165 499.399573 
L 711.285932 499.399573 
L 711.285932 310.625226 
L 513.014165 310.625226 
z
" style="fill:#d6efa2;stroke:#ffffff;stroke-linejoin:miter;stroke-width:0.5;"/>
   </g>
   <g id="patch_56">
    <path clip-path="url(#p22e51b7546)" d="M 513.014165 310.625226 
L 711.285932 310.625226 
L 711.285932 306.880942 
L 513.014165 306.880942 
z
" style="fill:#c1e698;stroke:#ffffff;stroke-linejoin:miter;stroke-width:0.5;"/>
   </g>
   <g id="patch_57">
    <path clip-path="url(#p22e51b7546)" d="M 513.014165 306.880942 
L 711.285932 306.880942 
L 711.285932 303.136657 
L 513.014165 303.136657 
z
" style="fill:#abdc8d;stroke:#ffffff;stroke-linejoin:miter;stroke-width:0.5;"/>
   </g>
   <g id="patch_58">
    <path clip-path="url(#p22e51b7546)" d="M 513.014165 303.136657 
L 711.285932 303.136657 
L 711.285932 300.01642 
L 513.014165 300.01642 
z
" style="fill:#92d183;stroke:#ffffff;stroke-linejoin:miter;stroke-width:0.5;"/>
   </g>
   <g id="patch_59">
    <path clip-path="url(#p22e51b7546)" d="M 513.014165 300.01642 
L 711.285932 300.01642 
L 711.285932 297.208207 
L 513.014165 297.208207 
z
" style="fill:#77c679;stroke:#ffffff;stroke-linejoin:miter;stroke-width:0.5;"/>
   </g>
   <g id="patch_60">
    <path clip-path="url(#p22e51b7546)" d="M 513.014165 297.208207 
L 711.285932 297.208207 
L 711.285932 295.492076 
L 513.014165 295.492076 
z
" style="fill:#5db96b;stroke:#ffffff;stroke-linejoin:miter;stroke-width:0.5;"/>
   </g>
   <g id="patch_61">
    <path clip-path="url(#p22e51b7546)" d="M 513.014165 295.492076 
L 711.285932 295.492076 
L 711.285932 294.712017 
L 513.014165 294.712017 
z
" style="fill:#43ac5e;stroke:#ffffff;stroke-linejoin:miter;stroke-width:0.5;"/>
   </g>
   <g id="patch_62">
    <path clip-path="url(#p22e51b7546)" d="M 513.014165 294.712017 
L 711.285932 294.712017 
L 711.285932 294.399993 
L 513.014165 294.399993 
z
" style="fill:#339951;stroke:#ffffff;stroke-linejoin:miter;stroke-width:0.5;"/>
   </g>
   <g id="patch_63">
    <path clip-path="url(#p22e51b7546)" d="M 513.014165 294.399993 
L 711.285932 294.399993 
L 711.285932 294.243981 
L 513.014165 294.243981 
z
" style="fill:#258745;stroke:#ffffff;stroke-linejoin:miter;stroke-width:0.5;"/>
   </g>
   <g id="patch_64">
    <path clip-path="url(#p22e51b7546)" d="M 513.014165 294.243981 
L 711.285932 294.243981 
L 711.285932 294.08797 
L 513.014165 294.08797 
z
" style="fill:#15793e;stroke:#ffffff;stroke-linejoin:miter;stroke-width:0.5;"/>
   </g>
   <g id="text_42">
    <!-- UNSPECIFIED, N = 1295 -->
    <g transform="translate(552.06333 603.176626)scale(0.1 -0.1)">
     <use xlink:href="#DejaVuSans-55"/>
     <use x="73.193359" xlink:href="#DejaVuSans-4e"/>
     <use x="147.998047" xlink:href="#DejaVuSans-53"/>
     <use x="211.474609" xlink:href="#DejaVuSans-50"/>
     <use x="271.777344" xlink:href="#DejaVuSans-45"/>
     <use x="334.960938" xlink:href="#DejaVuSans-43"/>
     <use x="404.785156" xlink:href="#DejaVuSans-49"/>
     <use x="434.277344" xlink:href="#DejaVuSans-46"/>
     <use x="491.796875" xlink:href="#DejaVuSans-49"/>
     <use x="521.289062" xlink:href="#DejaVuSans-45"/>
     <use x="584.472656" xlink:href="#DejaVuSans-44"/>
     <use x="661.474609" xlink:href="#DejaVuSans-2c"/>
     <use x="693.261719" xlink:href="#DejaVuSans-20"/>
     <use x="725.048828" xlink:href="#DejaVuSans-4e"/>
     <use x="799.853516" xlink:href="#DejaVuSans-20"/>
     <use x="831.640625" xlink:href="#DejaVuSans-3d"/>
     <use x="915.429688" xlink:href="#DejaVuSans-20"/>
     <use x="947.216797" xlink:href="#DejaVuSans-31"/>
     <use x="1010.839844" xlink:href="#DejaVuSans-32"/>
     <use x="1074.462891" xlink:href="#DejaVuSans-39"/>
     <use x="1138.085938" xlink:href="#DejaVuSans-35"/>
    </g>
   </g>
   <g id="text_43">
    <!-- TD, N = 1210 -->
    <g transform="translate(578.234423 407.771775)scale(0.1 -0.1)">
     <use xlink:href="#DejaVuSans-54"/>
     <use x="61.083984" xlink:href="#DejaVuSans-44"/>
     <use x="138.085938" xlink:href="#DejaVuSans-2c"/>
     <use x="169.873047" xlink:href="#DejaVuSans-20"/>
     <use x="201.660156" xlink:href="#DejaVuSans-4e"/>
     <use x="276.464844" xlink:href="#DejaVuSans-20"/>
     <use x="308.251953" xlink:href="#DejaVuSans-3d"/>
     <use x="392.041016" xlink:href="#DejaVuSans-20"/>
     <use x="423.828125" xlink:href="#DejaVuSans-31"/>
     <use x="487.451172" xlink:href="#DejaVuSans-32"/>
     <use x="551.074219" xlink:href="#DejaVuSans-31"/>
     <use x="614.697266" xlink:href="#DejaVuSans-30"/>
    </g>
   </g>
   <g id="text_44">
    <!-- *Categories &lt;1% not shown -->
    <g transform="translate(527.406611 718.699992)scale(0.12 -0.12)">
     <use xlink:href="#DejaVuSans-2a"/>
     <use x="50" xlink:href="#DejaVuSans-43"/>
     <use x="119.824219" xlink:href="#DejaVuSans-61"/>
     <use x="181.103516" xlink:href="#DejaVuSans-74"/>
     <use x="220.3125" xlink:href="#DejaVuSans-65"/>
     <use x="281.835938" xlink:href="#DejaVuSans-67"/>
     <use x="345.3125" xlink:href="#DejaVuSans-6f"/>
     <use x="406.494141" xlink:href="#DejaVuSans-72"/>
     <use x="447.607422" xlink:href="#DejaVuSans-69"/>
     <use x="475.390625" xlink:href="#DejaVuSans-65"/>
     <use x="536.914062" xlink:href="#DejaVuSans-73"/>
     <use x="589.013672" xlink:href="#DejaVuSans-20"/>
     <use x="620.800781" xlink:href="#DejaVuSans-3c"/>
     <use x="704.589844" xlink:href="#DejaVuSans-31"/>
     <use x="768.212891" xlink:href="#DejaVuSans-25"/>
     <use x="863.232422" xlink:href="#DejaVuSans-20"/>
     <use x="895.019531" xlink:href="#DejaVuSans-6e"/>
     <use x="958.398438" xlink:href="#DejaVuSans-6f"/>
     <use x="1019.580078" xlink:href="#DejaVuSans-74"/>
     <use x="1058.789062" xlink:href="#DejaVuSans-20"/>
     <use x="1090.576172" xlink:href="#DejaVuSans-73"/>
     <use x="1142.675781" xlink:href="#DejaVuSans-68"/>
     <use x="1206.054688" xlink:href="#DejaVuSans-6f"/>
     <use x="1267.236328" xlink:href="#DejaVuSans-77"/>
     <use x="1349.023438" xlink:href="#DejaVuSans-6e"/>
    </g>
   </g>
   <g id="text_45">
    <!--  -->
    <g transform="translate(503.100577 254.494532)scale(0.15 -0.15)"/>
    <!-- E. Group* -->
    <g transform="translate(503.100577 271.291251)scale(0.15 -0.15)">
     <defs>
      <path d="M 1159 525 
L 1159 -1331 
L 581 -1331 
L 581 3500 
L 1159 3500 
L 1159 2969 
Q 1341 3281 1617 3432 
Q 1894 3584 2278 3584 
Q 2916 3584 3314 3078 
Q 3713 2572 3713 1747 
Q 3713 922 3314 415 
Q 2916 -91 2278 -91 
Q 1894 -91 1617 61 
Q 1341 213 1159 525 
z
M 3116 1747 
Q 3116 2381 2855 2742 
Q 2594 3103 2138 3103 
Q 1681 3103 1420 2742 
Q 1159 2381 1159 1747 
Q 1159 1113 1420 752 
Q 1681 391 2138 391 
Q 2594 391 2855 752 
Q 3116 1113 3116 1747 
z
" id="DejaVuSans-70" transform="scale(0.015625)"/>
     </defs>
     <use xlink:href="#DejaVuSans-45"/>
     <use x="63.183594" xlink:href="#DejaVuSans-2e"/>
     <use x="94.970703" xlink:href="#DejaVuSans-20"/>
     <use x="126.757812" xlink:href="#DejaVuSans-47"/>
     <use x="204.248047" xlink:href="#DejaVuSans-72"/>
     <use x="243.111328" xlink:href="#DejaVuSans-6f"/>
     <use x="304.292969" xlink:href="#DejaVuSans-75"/>
     <use x="367.671875" xlink:href="#DejaVuSans-70"/>
     <use x="431.148438" xlink:href="#DejaVuSans-2a"/>
    </g>
    <!--  -->
    <g transform="translate(503.100577 288.08797)scale(0.15 -0.15)"/>
   </g>
  </g>
  <g id="text_46">
   <!-- Demographics of child participants -->
   <g transform="translate(206.796791 20.877187)scale(0.18 -0.18)">
    <use xlink:href="#DejaVuSans-44"/>
    <use x="77.001953" xlink:href="#DejaVuSans-65"/>
    <use x="138.525391" xlink:href="#DejaVuSans-6d"/>
    <use x="235.9375" xlink:href="#DejaVuSans-6f"/>
    <use x="297.119141" xlink:href="#DejaVuSans-67"/>
    <use x="360.595703" xlink:href="#DejaVuSans-72"/>
    <use x="401.708984" xlink:href="#DejaVuSans-61"/>
    <use x="462.988281" xlink:href="#DejaVuSans-70"/>
    <use x="526.464844" xlink:href="#DejaVuSans-68"/>
    <use x="589.84375" xlink:href="#DejaVuSans-69"/>
    <use x="617.626953" xlink:href="#DejaVuSans-63"/>
    <use x="672.607422" xlink:href="#DejaVuSans-73"/>
    <use x="724.707031" xlink:href="#DejaVuSans-20"/>
    <use x="756.494141" xlink:href="#DejaVuSans-6f"/>
    <use x="817.675781" xlink:href="#DejaVuSans-66"/>
    <use x="852.880859" xlink:href="#DejaVuSans-20"/>
    <use x="884.667969" xlink:href="#DejaVuSans-63"/>
    <use x="939.648438" xlink:href="#DejaVuSans-68"/>
    <use x="1003.027344" xlink:href="#DejaVuSans-69"/>
    <use x="1030.810547" xlink:href="#DejaVuSans-6c"/>
    <use x="1058.59375" xlink:href="#DejaVuSans-64"/>
    <use x="1122.070312" xlink:href="#DejaVuSans-20"/>
    <use x="1153.857422" xlink:href="#DejaVuSans-70"/>
    <use x="1217.333984" xlink:href="#DejaVuSans-61"/>
    <use x="1278.613281" xlink:href="#DejaVuSans-72"/>
    <use x="1319.726562" xlink:href="#DejaVuSans-74"/>
    <use x="1358.935547" xlink:href="#DejaVuSans-69"/>
    <use x="1386.71875" xlink:href="#DejaVuSans-63"/>
    <use x="1441.699219" xlink:href="#DejaVuSans-69"/>
    <use x="1469.482422" xlink:href="#DejaVuSans-70"/>
    <use x="1532.958984" xlink:href="#DejaVuSans-61"/>
    <use x="1594.238281" xlink:href="#DejaVuSans-6e"/>
    <use x="1657.617188" xlink:href="#DejaVuSans-74"/>
    <use x="1696.826172" xlink:href="#DejaVuSans-73"/>
   </g>
   <!-- (Note: some children have multiple files) -->
   <g transform="translate(180.702416 41.03325)scale(0.18 -0.18)">
    <defs>
     <path d="M 750 794 
L 1409 794 
L 1409 0 
L 750 0 
L 750 794 
z
M 750 3309 
L 1409 3309 
L 1409 2516 
L 750 2516 
L 750 3309 
z
" id="DejaVuSans-3a" transform="scale(0.015625)"/>
     <path d="M 191 3500 
L 800 3500 
L 1894 563 
L 2988 3500 
L 3597 3500 
L 2284 0 
L 1503 0 
L 191 3500 
z
" id="DejaVuSans-76" transform="scale(0.015625)"/>
    </defs>
    <use xlink:href="#DejaVuSans-28"/>
    <use x="39.013672" xlink:href="#DejaVuSans-4e"/>
    <use x="113.818359" xlink:href="#DejaVuSans-6f"/>
    <use x="175" xlink:href="#DejaVuSans-74"/>
    <use x="214.208984" xlink:href="#DejaVuSans-65"/>
    <use x="275.732422" xlink:href="#DejaVuSans-3a"/>
    <use x="309.423828" xlink:href="#DejaVuSans-20"/>
    <use x="341.210938" xlink:href="#DejaVuSans-73"/>
    <use x="393.310547" xlink:href="#DejaVuSans-6f"/>
    <use x="454.492188" xlink:href="#DejaVuSans-6d"/>
    <use x="551.904297" xlink:href="#DejaVuSans-65"/>
    <use x="613.427734" xlink:href="#DejaVuSans-20"/>
    <use x="645.214844" xlink:href="#DejaVuSans-63"/>
    <use x="700.195312" xlink:href="#DejaVuSans-68"/>
    <use x="763.574219" xlink:href="#DejaVuSans-69"/>
    <use x="791.357422" xlink:href="#DejaVuSans-6c"/>
    <use x="819.140625" xlink:href="#DejaVuSans-64"/>
    <use x="882.617188" xlink:href="#DejaVuSans-72"/>
    <use x="921.480469" xlink:href="#DejaVuSans-65"/>
    <use x="983.003906" xlink:href="#DejaVuSans-6e"/>
    <use x="1046.382812" xlink:href="#DejaVuSans-20"/>
    <use x="1078.169922" xlink:href="#DejaVuSans-68"/>
    <use x="1141.548828" xlink:href="#DejaVuSans-61"/>
    <use x="1202.828125" xlink:href="#DejaVuSans-76"/>
    <use x="1262.007812" xlink:href="#DejaVuSans-65"/>
    <use x="1323.53125" xlink:href="#DejaVuSans-20"/>
    <use x="1355.318359" xlink:href="#DejaVuSans-6d"/>
    <use x="1452.730469" xlink:href="#DejaVuSans-75"/>
    <use x="1516.109375" xlink:href="#DejaVuSans-6c"/>
    <use x="1543.892578" xlink:href="#DejaVuSans-74"/>
    <use x="1583.101562" xlink:href="#DejaVuSans-69"/>
    <use x="1610.884766" xlink:href="#DejaVuSans-70"/>
    <use x="1674.361328" xlink:href="#DejaVuSans-6c"/>
    <use x="1702.144531" xlink:href="#DejaVuSans-65"/>
    <use x="1763.667969" xlink:href="#DejaVuSans-20"/>
    <use x="1795.455078" xlink:href="#DejaVuSans-66"/>
    <use x="1830.660156" xlink:href="#DejaVuSans-69"/>
    <use x="1858.443359" xlink:href="#DejaVuSans-6c"/>
    <use x="1886.226562" xlink:href="#DejaVuSans-65"/>
    <use x="1947.75" xlink:href="#DejaVuSans-73"/>
    <use x="1999.849609" xlink:href="#DejaVuSans-29"/>
   </g>
  </g>
 </g>
 <defs>
  <clipPath id="pfdd93cab14">
   <rect height="101.83674" width="448.198847" x="48.90125" y="101.768261"/>
  </clipPath>
  <clipPath id="pb2a7b1d79f">
   <rect height="101.83674" width="218.098943" x="503.100577" y="101.768261"/>
  </clipPath>
  <clipPath id="p7990f9aea0">
   <rect height="407.346958" width="218.098943" x="48.90125" y="294.08797"/>
  </clipPath>
  <clipPath id="pf136a61072">
   <rect height="407.346958" width="218.098943" x="279.001153" y="294.08797"/>
  </clipPath>
  <clipPath id="p22e51b7546">
   <rect height="407.346958" width="218.098943" x="503.100577" y="294.08797"/>
  </clipPath>
 </defs>
</svg>
