<?xml version="1.0" encoding="utf-8" standalone="no"?>
<!DOCTYPE svg PUBLIC "-//W3C//DTD SVG 1.1//EN"
  "http://www.w3.org/Graphics/SVG/1.1/DTD/svg11.dtd">
<svg height="728.39952pt" version="1.1" viewBox="0 0 728.39952 728.39952" width="728.39952pt" xmlns="http://www.w3.org/2000/svg" xmlns:xlink="http://www.w3.org/1999/xlink">
 <metadata>
  <rdf:RDF xmlns:cc="http://creativecommons.org/ns#" xmlns:dc="http://purl.org/dc/elements/1.1/" xmlns:rdf="http://www.w3.org/1999/02/22-rdf-syntax-ns#">
   <cc:Work>
    <dc:type rdf:resource="http://purl.org/dc/dcmitype/StillImage"/>
    <dc:date>2022-04-24T08:41:56.769892</dc:date>
    <dc:format>image/svg+xml</dc:format>
    <dc:creator>
     <cc:Agent>
      <dc:title>Matplotlib v3.4.3, https://matplotlib.org/</dc:title>
     </cc:Agent>
    </dc:creator>
   </cc:Work>
  </rdf:RDF>
 </metadata>
 <defs>
  <style type="text/css">*{stroke-linecap:butt;stroke-linejoin:round;}</style>
 </defs>
 <g id="figure_1">
  <g id="patch_1">
   <path d="M 0 728.39952 
L 728.39952 728.39952 
L 728.39952 0 
L 0 0 
z
" style="fill:none;"/>
  </g>
  <g id="axes_1">
   <g id="patch_2">
    <path d="M 48.90125 184.974694 
L 713.247957 184.974694 
L 713.247957 81.612199 
L 48.90125 81.612199 
z
" style="fill:#e6e6e6;"/>
   </g>
   <g id="matplotlib.axis_1">
    <g id="xtick_1">
     <g id="line2d_1">
      <path clip-path="url(#p3907078358)" d="M 137.545752 184.974694 
L 137.545752 81.612199 
" style="fill:none;stroke:#ffffff;stroke-linecap:square;stroke-width:0.8;"/>
     </g>
     <g id="line2d_2">
      <defs>
       <path d="M 0 0 
L 0 3.5 
" id="mf1246a2800" style="stroke:#000000;stroke-width:0.8;"/>
      </defs>
      <g>
       <use style="stroke:#000000;stroke-width:0.8;" x="137.545752" xlink:href="#mf1246a2800" y="184.974694"/>
      </g>
     </g>
     <g id="text_1">
      <!-- 1965 -->
      <g transform="translate(124.820752 199.573132)scale(0.1 -0.1)">
       <defs>
        <path d="M 794 531 
L 1825 531 
L 1825 4091 
L 703 3866 
L 703 4441 
L 1819 4666 
L 2450 4666 
L 2450 531 
L 3481 531 
L 3481 0 
L 794 0 
L 794 531 
z
" id="DejaVuSans-31" transform="scale(0.015625)"/>
        <path d="M 703 97 
L 703 672 
Q 941 559 1184 500 
Q 1428 441 1663 441 
Q 2288 441 2617 861 
Q 2947 1281 2994 2138 
Q 2813 1869 2534 1725 
Q 2256 1581 1919 1581 
Q 1219 1581 811 2004 
Q 403 2428 403 3163 
Q 403 3881 828 4315 
Q 1253 4750 1959 4750 
Q 2769 4750 3195 4129 
Q 3622 3509 3622 2328 
Q 3622 1225 3098 567 
Q 2575 -91 1691 -91 
Q 1453 -91 1209 -44 
Q 966 3 703 97 
z
M 1959 2075 
Q 2384 2075 2632 2365 
Q 2881 2656 2881 3163 
Q 2881 3666 2632 3958 
Q 2384 4250 1959 4250 
Q 1534 4250 1286 3958 
Q 1038 3666 1038 3163 
Q 1038 2656 1286 2365 
Q 1534 2075 1959 2075 
z
" id="DejaVuSans-39" transform="scale(0.015625)"/>
        <path d="M 2113 2584 
Q 1688 2584 1439 2293 
Q 1191 2003 1191 1497 
Q 1191 994 1439 701 
Q 1688 409 2113 409 
Q 2538 409 2786 701 
Q 3034 994 3034 1497 
Q 3034 2003 2786 2293 
Q 2538 2584 2113 2584 
z
M 3366 4563 
L 3366 3988 
Q 3128 4100 2886 4159 
Q 2644 4219 2406 4219 
Q 1781 4219 1451 3797 
Q 1122 3375 1075 2522 
Q 1259 2794 1537 2939 
Q 1816 3084 2150 3084 
Q 2853 3084 3261 2657 
Q 3669 2231 3669 1497 
Q 3669 778 3244 343 
Q 2819 -91 2113 -91 
Q 1303 -91 875 529 
Q 447 1150 447 2328 
Q 447 3434 972 4092 
Q 1497 4750 2381 4750 
Q 2619 4750 2861 4703 
Q 3103 4656 3366 4563 
z
" id="DejaVuSans-36" transform="scale(0.015625)"/>
        <path d="M 691 4666 
L 3169 4666 
L 3169 4134 
L 1269 4134 
L 1269 2991 
Q 1406 3038 1543 3061 
Q 1681 3084 1819 3084 
Q 2600 3084 3056 2656 
Q 3513 2228 3513 1497 
Q 3513 744 3044 326 
Q 2575 -91 1722 -91 
Q 1428 -91 1123 -41 
Q 819 9 494 109 
L 494 744 
Q 775 591 1075 516 
Q 1375 441 1709 441 
Q 2250 441 2565 725 
Q 2881 1009 2881 1497 
Q 2881 1984 2565 2268 
Q 2250 2553 1709 2553 
Q 1456 2553 1204 2497 
Q 953 2441 691 2322 
L 691 4666 
z
" id="DejaVuSans-35" transform="scale(0.015625)"/>
       </defs>
       <use xlink:href="#DejaVuSans-31"/>
       <use x="63.623047" xlink:href="#DejaVuSans-39"/>
       <use x="127.246094" xlink:href="#DejaVuSans-36"/>
       <use x="190.869141" xlink:href="#DejaVuSans-35"/>
      </g>
     </g>
    </g>
    <g id="xtick_2">
     <g id="line2d_3">
      <path clip-path="url(#p3907078358)" d="M 234.957293 184.974694 
L 234.957293 81.612199 
" style="fill:none;stroke:#ffffff;stroke-linecap:square;stroke-width:0.8;"/>
     </g>
     <g id="line2d_4">
      <g>
       <use style="stroke:#000000;stroke-width:0.8;" x="234.957293" xlink:href="#mf1246a2800" y="184.974694"/>
      </g>
     </g>
     <g id="text_2">
      <!-- 1970 -->
      <g transform="translate(222.232293 199.573132)scale(0.1 -0.1)">
       <defs>
        <path d="M 525 4666 
L 3525 4666 
L 3525 4397 
L 1831 0 
L 1172 0 
L 2766 4134 
L 525 4134 
L 525 4666 
z
" id="DejaVuSans-37" transform="scale(0.015625)"/>
        <path d="M 2034 4250 
Q 1547 4250 1301 3770 
Q 1056 3291 1056 2328 
Q 1056 1369 1301 889 
Q 1547 409 2034 409 
Q 2525 409 2770 889 
Q 3016 1369 3016 2328 
Q 3016 3291 2770 3770 
Q 2525 4250 2034 4250 
z
M 2034 4750 
Q 2819 4750 3233 4129 
Q 3647 3509 3647 2328 
Q 3647 1150 3233 529 
Q 2819 -91 2034 -91 
Q 1250 -91 836 529 
Q 422 1150 422 2328 
Q 422 3509 836 4129 
Q 1250 4750 2034 4750 
z
" id="DejaVuSans-30" transform="scale(0.015625)"/>
       </defs>
       <use xlink:href="#DejaVuSans-31"/>
       <use x="63.623047" xlink:href="#DejaVuSans-39"/>
       <use x="127.246094" xlink:href="#DejaVuSans-37"/>
       <use x="190.869141" xlink:href="#DejaVuSans-30"/>
      </g>
     </g>
    </g>
    <g id="xtick_3">
     <g id="line2d_5">
      <path clip-path="url(#p3907078358)" d="M 332.368833 184.974694 
L 332.368833 81.612199 
" style="fill:none;stroke:#ffffff;stroke-linecap:square;stroke-width:0.8;"/>
     </g>
     <g id="line2d_6">
      <g>
       <use style="stroke:#000000;stroke-width:0.8;" x="332.368833" xlink:href="#mf1246a2800" y="184.974694"/>
      </g>
     </g>
     <g id="text_3">
      <!-- 1975 -->
      <g transform="translate(319.643833 199.573132)scale(0.1 -0.1)">
       <use xlink:href="#DejaVuSans-31"/>
       <use x="63.623047" xlink:href="#DejaVuSans-39"/>
       <use x="127.246094" xlink:href="#DejaVuSans-37"/>
       <use x="190.869141" xlink:href="#DejaVuSans-35"/>
      </g>
     </g>
    </g>
    <g id="xtick_4">
     <g id="line2d_7">
      <path clip-path="url(#p3907078358)" d="M 429.780374 184.974694 
L 429.780374 81.612199 
" style="fill:none;stroke:#ffffff;stroke-linecap:square;stroke-width:0.8;"/>
     </g>
     <g id="line2d_8">
      <g>
       <use style="stroke:#000000;stroke-width:0.8;" x="429.780374" xlink:href="#mf1246a2800" y="184.974694"/>
      </g>
     </g>
     <g id="text_4">
      <!-- 1980 -->
      <g transform="translate(417.055374 199.573132)scale(0.1 -0.1)">
       <defs>
        <path d="M 2034 2216 
Q 1584 2216 1326 1975 
Q 1069 1734 1069 1313 
Q 1069 891 1326 650 
Q 1584 409 2034 409 
Q 2484 409 2743 651 
Q 3003 894 3003 1313 
Q 3003 1734 2745 1975 
Q 2488 2216 2034 2216 
z
M 1403 2484 
Q 997 2584 770 2862 
Q 544 3141 544 3541 
Q 544 4100 942 4425 
Q 1341 4750 2034 4750 
Q 2731 4750 3128 4425 
Q 3525 4100 3525 3541 
Q 3525 3141 3298 2862 
Q 3072 2584 2669 2484 
Q 3125 2378 3379 2068 
Q 3634 1759 3634 1313 
Q 3634 634 3220 271 
Q 2806 -91 2034 -91 
Q 1263 -91 848 271 
Q 434 634 434 1313 
Q 434 1759 690 2068 
Q 947 2378 1403 2484 
z
M 1172 3481 
Q 1172 3119 1398 2916 
Q 1625 2713 2034 2713 
Q 2441 2713 2670 2916 
Q 2900 3119 2900 3481 
Q 2900 3844 2670 4047 
Q 2441 4250 2034 4250 
Q 1625 4250 1398 4047 
Q 1172 3844 1172 3481 
z
" id="DejaVuSans-38" transform="scale(0.015625)"/>
       </defs>
       <use xlink:href="#DejaVuSans-31"/>
       <use x="63.623047" xlink:href="#DejaVuSans-39"/>
       <use x="127.246094" xlink:href="#DejaVuSans-38"/>
       <use x="190.869141" xlink:href="#DejaVuSans-30"/>
      </g>
     </g>
    </g>
    <g id="xtick_5">
     <g id="line2d_9">
      <path clip-path="url(#p3907078358)" d="M 527.191915 184.974694 
L 527.191915 81.612199 
" style="fill:none;stroke:#ffffff;stroke-linecap:square;stroke-width:0.8;"/>
     </g>
     <g id="line2d_10">
      <g>
       <use style="stroke:#000000;stroke-width:0.8;" x="527.191915" xlink:href="#mf1246a2800" y="184.974694"/>
      </g>
     </g>
     <g id="text_5">
      <!-- 1985 -->
      <g transform="translate(514.466915 199.573132)scale(0.1 -0.1)">
       <use xlink:href="#DejaVuSans-31"/>
       <use x="63.623047" xlink:href="#DejaVuSans-39"/>
       <use x="127.246094" xlink:href="#DejaVuSans-38"/>
       <use x="190.869141" xlink:href="#DejaVuSans-35"/>
      </g>
     </g>
    </g>
    <g id="xtick_6">
     <g id="line2d_11">
      <path clip-path="url(#p3907078358)" d="M 624.603455 184.974694 
L 624.603455 81.612199 
" style="fill:none;stroke:#ffffff;stroke-linecap:square;stroke-width:0.8;"/>
     </g>
     <g id="line2d_12">
      <g>
       <use style="stroke:#000000;stroke-width:0.8;" x="624.603455" xlink:href="#mf1246a2800" y="184.974694"/>
      </g>
     </g>
     <g id="text_6">
      <!-- 1990 -->
      <g transform="translate(611.878455 199.573132)scale(0.1 -0.1)">
       <use xlink:href="#DejaVuSans-31"/>
       <use x="63.623047" xlink:href="#DejaVuSans-39"/>
       <use x="127.246094" xlink:href="#DejaVuSans-39"/>
       <use x="190.869141" xlink:href="#DejaVuSans-30"/>
      </g>
     </g>
    </g>
    <g id="text_7">
     <!-- Year -->
     <g transform="translate(368.369604 214.770944)scale(0.12 -0.12)">
      <defs>
       <path d="M -13 4666 
L 666 4666 
L 1959 2747 
L 3244 4666 
L 3922 4666 
L 2272 2222 
L 2272 0 
L 1638 0 
L 1638 2222 
L -13 4666 
z
" id="DejaVuSans-59" transform="scale(0.015625)"/>
       <path d="M 3597 1894 
L 3597 1613 
L 953 1613 
Q 991 1019 1311 708 
Q 1631 397 2203 397 
Q 2534 397 2845 478 
Q 3156 559 3463 722 
L 3463 178 
Q 3153 47 2828 -22 
Q 2503 -91 2169 -91 
Q 1331 -91 842 396 
Q 353 884 353 1716 
Q 353 2575 817 3079 
Q 1281 3584 2069 3584 
Q 2775 3584 3186 3129 
Q 3597 2675 3597 1894 
z
M 3022 2063 
Q 3016 2534 2758 2815 
Q 2500 3097 2075 3097 
Q 1594 3097 1305 2825 
Q 1016 2553 972 2059 
L 3022 2063 
z
" id="DejaVuSans-65" transform="scale(0.015625)"/>
       <path d="M 2194 1759 
Q 1497 1759 1228 1600 
Q 959 1441 959 1056 
Q 959 750 1161 570 
Q 1363 391 1709 391 
Q 2188 391 2477 730 
Q 2766 1069 2766 1631 
L 2766 1759 
L 2194 1759 
z
M 3341 1997 
L 3341 0 
L 2766 0 
L 2766 531 
Q 2569 213 2275 61 
Q 1981 -91 1556 -91 
Q 1019 -91 701 211 
Q 384 513 384 1019 
Q 384 1609 779 1909 
Q 1175 2209 1959 2209 
L 2766 2209 
L 2766 2266 
Q 2766 2663 2505 2880 
Q 2244 3097 1772 3097 
Q 1472 3097 1187 3025 
Q 903 2953 641 2809 
L 641 3341 
Q 956 3463 1253 3523 
Q 1550 3584 1831 3584 
Q 2591 3584 2966 3190 
Q 3341 2797 3341 1997 
z
" id="DejaVuSans-61" transform="scale(0.015625)"/>
       <path d="M 2631 2963 
Q 2534 3019 2420 3045 
Q 2306 3072 2169 3072 
Q 1681 3072 1420 2755 
Q 1159 2438 1159 1844 
L 1159 0 
L 581 0 
L 581 3500 
L 1159 3500 
L 1159 2956 
Q 1341 3275 1631 3429 
Q 1922 3584 2338 3584 
Q 2397 3584 2469 3576 
Q 2541 3569 2628 3553 
L 2631 2963 
z
" id="DejaVuSans-72" transform="scale(0.015625)"/>
      </defs>
      <use xlink:href="#DejaVuSans-59"/>
      <use x="47.833984" xlink:href="#DejaVuSans-65"/>
      <use x="109.357422" xlink:href="#DejaVuSans-61"/>
      <use x="170.636719" xlink:href="#DejaVuSans-72"/>
     </g>
    </g>
   </g>
   <g id="matplotlib.axis_2">
    <g id="ytick_1">
     <g id="line2d_13">
      <path clip-path="url(#p3907078358)" d="M 48.90125 173.489973 
L 713.247957 173.489973 
" style="fill:none;stroke:#ffffff;stroke-linecap:square;stroke-width:0.8;"/>
     </g>
     <g id="line2d_14">
      <defs>
       <path d="M 0 0 
L -3.5 0 
" id="m189839e545" style="stroke:#000000;stroke-width:0.8;"/>
      </defs>
      <g>
       <use style="stroke:#000000;stroke-width:0.8;" x="48.90125" xlink:href="#m189839e545" y="173.489973"/>
      </g>
     </g>
     <g id="text_8">
      <!-- 0 -->
      <g transform="translate(35.53875 177.289191)scale(0.1 -0.1)">
       <use xlink:href="#DejaVuSans-30"/>
      </g>
     </g>
    </g>
    <g id="ytick_2">
     <g id="line2d_15">
      <path clip-path="url(#p3907078358)" d="M 48.90125 150.520529 
L 713.247957 150.520529 
" style="fill:none;stroke:#ffffff;stroke-linecap:square;stroke-width:0.8;"/>
     </g>
     <g id="line2d_16">
      <g>
       <use style="stroke:#000000;stroke-width:0.8;" x="48.90125" xlink:href="#m189839e545" y="150.520529"/>
      </g>
     </g>
     <g id="text_9">
      <!-- 100 -->
      <g transform="translate(22.81375 154.319748)scale(0.1 -0.1)">
       <use xlink:href="#DejaVuSans-31"/>
       <use x="63.623047" xlink:href="#DejaVuSans-30"/>
       <use x="127.246094" xlink:href="#DejaVuSans-30"/>
      </g>
     </g>
    </g>
    <g id="ytick_3">
     <g id="line2d_17">
      <path clip-path="url(#p3907078358)" d="M 48.90125 127.551086 
L 713.247957 127.551086 
" style="fill:none;stroke:#ffffff;stroke-linecap:square;stroke-width:0.8;"/>
     </g>
     <g id="line2d_18">
      <g>
       <use style="stroke:#000000;stroke-width:0.8;" x="48.90125" xlink:href="#m189839e545" y="127.551086"/>
      </g>
     </g>
     <g id="text_10">
      <!-- 200 -->
      <g transform="translate(22.81375 131.350304)scale(0.1 -0.1)">
       <defs>
        <path d="M 1228 531 
L 3431 531 
L 3431 0 
L 469 0 
L 469 531 
Q 828 903 1448 1529 
Q 2069 2156 2228 2338 
Q 2531 2678 2651 2914 
Q 2772 3150 2772 3378 
Q 2772 3750 2511 3984 
Q 2250 4219 1831 4219 
Q 1534 4219 1204 4116 
Q 875 4013 500 3803 
L 500 4441 
Q 881 4594 1212 4672 
Q 1544 4750 1819 4750 
Q 2544 4750 2975 4387 
Q 3406 4025 3406 3419 
Q 3406 3131 3298 2873 
Q 3191 2616 2906 2266 
Q 2828 2175 2409 1742 
Q 1991 1309 1228 531 
z
" id="DejaVuSans-32" transform="scale(0.015625)"/>
       </defs>
       <use xlink:href="#DejaVuSans-32"/>
       <use x="63.623047" xlink:href="#DejaVuSans-30"/>
       <use x="127.246094" xlink:href="#DejaVuSans-30"/>
      </g>
     </g>
    </g>
    <g id="ytick_4">
     <g id="line2d_19">
      <path clip-path="url(#p3907078358)" d="M 48.90125 104.581642 
L 713.247957 104.581642 
" style="fill:none;stroke:#ffffff;stroke-linecap:square;stroke-width:0.8;"/>
     </g>
     <g id="line2d_20">
      <g>
       <use style="stroke:#000000;stroke-width:0.8;" x="48.90125" xlink:href="#m189839e545" y="104.581642"/>
      </g>
     </g>
     <g id="text_11">
      <!-- 300 -->
      <g transform="translate(22.81375 108.380861)scale(0.1 -0.1)">
       <defs>
        <path d="M 2597 2516 
Q 3050 2419 3304 2112 
Q 3559 1806 3559 1356 
Q 3559 666 3084 287 
Q 2609 -91 1734 -91 
Q 1441 -91 1130 -33 
Q 819 25 488 141 
L 488 750 
Q 750 597 1062 519 
Q 1375 441 1716 441 
Q 2309 441 2620 675 
Q 2931 909 2931 1356 
Q 2931 1769 2642 2001 
Q 2353 2234 1838 2234 
L 1294 2234 
L 1294 2753 
L 1863 2753 
Q 2328 2753 2575 2939 
Q 2822 3125 2822 3475 
Q 2822 3834 2567 4026 
Q 2313 4219 1838 4219 
Q 1578 4219 1281 4162 
Q 984 4106 628 3988 
L 628 4550 
Q 988 4650 1302 4700 
Q 1616 4750 1894 4750 
Q 2613 4750 3031 4423 
Q 3450 4097 3450 3541 
Q 3450 3153 3228 2886 
Q 3006 2619 2597 2516 
z
" id="DejaVuSans-33" transform="scale(0.015625)"/>
       </defs>
       <use xlink:href="#DejaVuSans-33"/>
       <use x="63.623047" xlink:href="#DejaVuSans-30"/>
       <use x="127.246094" xlink:href="#DejaVuSans-30"/>
      </g>
     </g>
    </g>
    <g id="ytick_5">
     <g id="line2d_21">
      <path clip-path="url(#p3907078358)" d="M 48.90125 81.612199 
L 713.247957 81.612199 
" style="fill:none;stroke:#ffffff;stroke-linecap:square;stroke-width:0.8;"/>
     </g>
     <g id="line2d_22">
      <g>
       <use style="stroke:#000000;stroke-width:0.8;" x="48.90125" xlink:href="#m189839e545" y="81.612199"/>
      </g>
     </g>
     <g id="text_12">
      <!-- 400 -->
      <g transform="translate(22.81375 85.411417)scale(0.1 -0.1)">
       <defs>
        <path d="M 2419 4116 
L 825 1625 
L 2419 1625 
L 2419 4116 
z
M 2253 4666 
L 3047 4666 
L 3047 1625 
L 3713 1625 
L 3713 1100 
L 3047 1100 
L 3047 0 
L 2419 0 
L 2419 1100 
L 313 1100 
L 313 1709 
L 2253 4666 
z
" id="DejaVuSans-34" transform="scale(0.015625)"/>
       </defs>
       <use xlink:href="#DejaVuSans-34"/>
       <use x="63.623047" xlink:href="#DejaVuSans-30"/>
       <use x="127.246094" xlink:href="#DejaVuSans-30"/>
      </g>
     </g>
    </g>
    <g id="text_13">
     <!-- Number of files -->
     <g transform="translate(16.318125 179.257196)rotate(-90)scale(0.12 -0.12)">
      <defs>
       <path d="M 628 4666 
L 1478 4666 
L 3547 763 
L 3547 4666 
L 4159 4666 
L 4159 0 
L 3309 0 
L 1241 3903 
L 1241 0 
L 628 0 
L 628 4666 
z
" id="DejaVuSans-4e" transform="scale(0.015625)"/>
       <path d="M 544 1381 
L 544 3500 
L 1119 3500 
L 1119 1403 
Q 1119 906 1312 657 
Q 1506 409 1894 409 
Q 2359 409 2629 706 
Q 2900 1003 2900 1516 
L 2900 3500 
L 3475 3500 
L 3475 0 
L 2900 0 
L 2900 538 
Q 2691 219 2414 64 
Q 2138 -91 1772 -91 
Q 1169 -91 856 284 
Q 544 659 544 1381 
z
M 1991 3584 
L 1991 3584 
z
" id="DejaVuSans-75" transform="scale(0.015625)"/>
       <path d="M 3328 2828 
Q 3544 3216 3844 3400 
Q 4144 3584 4550 3584 
Q 5097 3584 5394 3201 
Q 5691 2819 5691 2113 
L 5691 0 
L 5113 0 
L 5113 2094 
Q 5113 2597 4934 2840 
Q 4756 3084 4391 3084 
Q 3944 3084 3684 2787 
Q 3425 2491 3425 1978 
L 3425 0 
L 2847 0 
L 2847 2094 
Q 2847 2600 2669 2842 
Q 2491 3084 2119 3084 
Q 1678 3084 1418 2786 
Q 1159 2488 1159 1978 
L 1159 0 
L 581 0 
L 581 3500 
L 1159 3500 
L 1159 2956 
Q 1356 3278 1631 3431 
Q 1906 3584 2284 3584 
Q 2666 3584 2933 3390 
Q 3200 3197 3328 2828 
z
" id="DejaVuSans-6d" transform="scale(0.015625)"/>
       <path d="M 3116 1747 
Q 3116 2381 2855 2742 
Q 2594 3103 2138 3103 
Q 1681 3103 1420 2742 
Q 1159 2381 1159 1747 
Q 1159 1113 1420 752 
Q 1681 391 2138 391 
Q 2594 391 2855 752 
Q 3116 1113 3116 1747 
z
M 1159 2969 
Q 1341 3281 1617 3432 
Q 1894 3584 2278 3584 
Q 2916 3584 3314 3078 
Q 3713 2572 3713 1747 
Q 3713 922 3314 415 
Q 2916 -91 2278 -91 
Q 1894 -91 1617 61 
Q 1341 213 1159 525 
L 1159 0 
L 581 0 
L 581 4863 
L 1159 4863 
L 1159 2969 
z
" id="DejaVuSans-62" transform="scale(0.015625)"/>
       <path id="DejaVuSans-20" transform="scale(0.015625)"/>
       <path d="M 1959 3097 
Q 1497 3097 1228 2736 
Q 959 2375 959 1747 
Q 959 1119 1226 758 
Q 1494 397 1959 397 
Q 2419 397 2687 759 
Q 2956 1122 2956 1747 
Q 2956 2369 2687 2733 
Q 2419 3097 1959 3097 
z
M 1959 3584 
Q 2709 3584 3137 3096 
Q 3566 2609 3566 1747 
Q 3566 888 3137 398 
Q 2709 -91 1959 -91 
Q 1206 -91 779 398 
Q 353 888 353 1747 
Q 353 2609 779 3096 
Q 1206 3584 1959 3584 
z
" id="DejaVuSans-6f" transform="scale(0.015625)"/>
       <path d="M 2375 4863 
L 2375 4384 
L 1825 4384 
Q 1516 4384 1395 4259 
Q 1275 4134 1275 3809 
L 1275 3500 
L 2222 3500 
L 2222 3053 
L 1275 3053 
L 1275 0 
L 697 0 
L 697 3053 
L 147 3053 
L 147 3500 
L 697 3500 
L 697 3744 
Q 697 4328 969 4595 
Q 1241 4863 1831 4863 
L 2375 4863 
z
" id="DejaVuSans-66" transform="scale(0.015625)"/>
       <path d="M 603 3500 
L 1178 3500 
L 1178 0 
L 603 0 
L 603 3500 
z
M 603 4863 
L 1178 4863 
L 1178 4134 
L 603 4134 
L 603 4863 
z
" id="DejaVuSans-69" transform="scale(0.015625)"/>
       <path d="M 603 4863 
L 1178 4863 
L 1178 0 
L 603 0 
L 603 4863 
z
" id="DejaVuSans-6c" transform="scale(0.015625)"/>
       <path d="M 2834 3397 
L 2834 2853 
Q 2591 2978 2328 3040 
Q 2066 3103 1784 3103 
Q 1356 3103 1142 2972 
Q 928 2841 928 2578 
Q 928 2378 1081 2264 
Q 1234 2150 1697 2047 
L 1894 2003 
Q 2506 1872 2764 1633 
Q 3022 1394 3022 966 
Q 3022 478 2636 193 
Q 2250 -91 1575 -91 
Q 1294 -91 989 -36 
Q 684 19 347 128 
L 347 722 
Q 666 556 975 473 
Q 1284 391 1588 391 
Q 1994 391 2212 530 
Q 2431 669 2431 922 
Q 2431 1156 2273 1281 
Q 2116 1406 1581 1522 
L 1381 1569 
Q 847 1681 609 1914 
Q 372 2147 372 2553 
Q 372 3047 722 3315 
Q 1072 3584 1716 3584 
Q 2034 3584 2315 3537 
Q 2597 3491 2834 3397 
z
" id="DejaVuSans-73" transform="scale(0.015625)"/>
      </defs>
      <use xlink:href="#DejaVuSans-4e"/>
      <use x="74.804688" xlink:href="#DejaVuSans-75"/>
      <use x="138.183594" xlink:href="#DejaVuSans-6d"/>
      <use x="235.595703" xlink:href="#DejaVuSans-62"/>
      <use x="299.072266" xlink:href="#DejaVuSans-65"/>
      <use x="360.595703" xlink:href="#DejaVuSans-72"/>
      <use x="401.708984" xlink:href="#DejaVuSans-20"/>
      <use x="433.496094" xlink:href="#DejaVuSans-6f"/>
      <use x="494.677734" xlink:href="#DejaVuSans-66"/>
      <use x="529.882812" xlink:href="#DejaVuSans-20"/>
      <use x="561.669922" xlink:href="#DejaVuSans-66"/>
      <use x="596.875" xlink:href="#DejaVuSans-69"/>
      <use x="624.658203" xlink:href="#DejaVuSans-6c"/>
      <use x="652.441406" xlink:href="#DejaVuSans-65"/>
      <use x="713.964844" xlink:href="#DejaVuSans-73"/>
     </g>
    </g>
   </g>
   <g id="patch_3">
    <path clip-path="url(#p3907078358)" d="M 79.098828 173.489973 
L 79.098828 171.193028 
L 98.581136 171.193028 
L 98.581136 161.316168 
L 118.063444 161.316168 
L 118.063444 160.167695 
L 137.545752 160.167695 
L 137.545752 162.694334 
L 157.02806 162.694334 
L 157.02806 168.436695 
L 176.510368 168.436695 
L 176.510368 173.489973 
L 195.992676 173.489973 
L 195.992676 173.489973 
L 215.474985 173.489973 
L 215.474985 173.489973 
L 234.957293 173.489973 
L 234.957293 173.489973 
L 254.439601 173.489973 
L 254.439601 173.489973 
L 273.921909 173.489973 
L 273.921909 173.489973 
L 293.404217 173.489973 
L 293.404217 173.489973 
L 312.886525 173.489973 
L 312.886525 173.489973 
L 332.368833 173.489973 
L 332.368833 173.489973 
L 351.851142 173.489973 
L 351.851142 164.53189 
L 371.33345 164.53189 
L 371.33345 170.733639 
L 390.815758 170.733639 
L 390.815758 173.489973 
L 410.298066 173.489973 
L 410.298066 173.489973 
L 429.780374 173.489973 
L 429.780374 173.260278 
L 449.262682 173.260278 
L 449.262682 170.733639 
L 468.74499 170.733639 
L 468.74499 168.207001 
L 488.227299 168.207001 
L 488.227299 173.489973 
L 507.709607 173.489973 
L 507.709607 173.489973 
L 527.191915 173.489973 
L 527.191915 172.111806 
L 546.674223 172.111806 
L 546.674223 166.139751 
L 566.156531 166.139751 
L 566.156531 159.708306 
L 585.638839 159.708306 
L 585.638839 139.724891 
L 605.121147 139.724891 
L 605.121147 94.704782 
L 624.603455 94.704782 
L 624.603455 135.820085 
L 644.085764 135.820085 
L 644.085764 131.91528 
L 663.568072 131.91528 
L 663.568072 173.260278 
L 683.05038 173.260278 
L 683.05038 173.489973 
" style="fill:none;stroke:#2f934d;stroke-linejoin:miter;stroke-width:1.3;"/>
   </g>
   <g id="patch_4">
    <path d="M 48.90125 184.974694 
L 48.90125 81.612199 
" style="fill:none;stroke:#000000;stroke-linecap:square;stroke-linejoin:miter;stroke-width:0.8;"/>
   </g>
   <g id="patch_5">
    <path d="M 48.90125 184.974694 
L 713.247958 184.974694 
" style="fill:none;stroke:#000000;stroke-linecap:square;stroke-linejoin:miter;stroke-width:0.8;"/>
   </g>
   <g id="text_14">
    <!--  -->
    <g transform="translate(48.90125 42.018761)scale(0.15 -0.15)"/>
    <!-- A. File count by year of recording -->
    <g transform="translate(48.90125 58.81548)scale(0.15 -0.15)">
     <defs>
      <path d="M 2188 4044 
L 1331 1722 
L 3047 1722 
L 2188 4044 
z
M 1831 4666 
L 2547 4666 
L 4325 0 
L 3669 0 
L 3244 1197 
L 1141 1197 
L 716 0 
L 50 0 
L 1831 4666 
z
" id="DejaVuSans-41" transform="scale(0.015625)"/>
      <path d="M 684 794 
L 1344 794 
L 1344 0 
L 684 0 
L 684 794 
z
" id="DejaVuSans-2e" transform="scale(0.015625)"/>
      <path d="M 628 4666 
L 3309 4666 
L 3309 4134 
L 1259 4134 
L 1259 2759 
L 3109 2759 
L 3109 2228 
L 1259 2228 
L 1259 0 
L 628 0 
L 628 4666 
z
" id="DejaVuSans-46" transform="scale(0.015625)"/>
      <path d="M 3122 3366 
L 3122 2828 
Q 2878 2963 2633 3030 
Q 2388 3097 2138 3097 
Q 1578 3097 1268 2742 
Q 959 2388 959 1747 
Q 959 1106 1268 751 
Q 1578 397 2138 397 
Q 2388 397 2633 464 
Q 2878 531 3122 666 
L 3122 134 
Q 2881 22 2623 -34 
Q 2366 -91 2075 -91 
Q 1284 -91 818 406 
Q 353 903 353 1747 
Q 353 2603 823 3093 
Q 1294 3584 2113 3584 
Q 2378 3584 2631 3529 
Q 2884 3475 3122 3366 
z
" id="DejaVuSans-63" transform="scale(0.015625)"/>
      <path d="M 3513 2113 
L 3513 0 
L 2938 0 
L 2938 2094 
Q 2938 2591 2744 2837 
Q 2550 3084 2163 3084 
Q 1697 3084 1428 2787 
Q 1159 2491 1159 1978 
L 1159 0 
L 581 0 
L 581 3500 
L 1159 3500 
L 1159 2956 
Q 1366 3272 1645 3428 
Q 1925 3584 2291 3584 
Q 2894 3584 3203 3211 
Q 3513 2838 3513 2113 
z
" id="DejaVuSans-6e" transform="scale(0.015625)"/>
      <path d="M 1172 4494 
L 1172 3500 
L 2356 3500 
L 2356 3053 
L 1172 3053 
L 1172 1153 
Q 1172 725 1289 603 
Q 1406 481 1766 481 
L 2356 481 
L 2356 0 
L 1766 0 
Q 1100 0 847 248 
Q 594 497 594 1153 
L 594 3053 
L 172 3053 
L 172 3500 
L 594 3500 
L 594 4494 
L 1172 4494 
z
" id="DejaVuSans-74" transform="scale(0.015625)"/>
      <path d="M 2059 -325 
Q 1816 -950 1584 -1140 
Q 1353 -1331 966 -1331 
L 506 -1331 
L 506 -850 
L 844 -850 
Q 1081 -850 1212 -737 
Q 1344 -625 1503 -206 
L 1606 56 
L 191 3500 
L 800 3500 
L 1894 763 
L 2988 3500 
L 3597 3500 
L 2059 -325 
z
" id="DejaVuSans-79" transform="scale(0.015625)"/>
      <path d="M 2906 2969 
L 2906 4863 
L 3481 4863 
L 3481 0 
L 2906 0 
L 2906 525 
Q 2725 213 2448 61 
Q 2172 -91 1784 -91 
Q 1150 -91 751 415 
Q 353 922 353 1747 
Q 353 2572 751 3078 
Q 1150 3584 1784 3584 
Q 2172 3584 2448 3432 
Q 2725 3281 2906 2969 
z
M 947 1747 
Q 947 1113 1208 752 
Q 1469 391 1925 391 
Q 2381 391 2643 752 
Q 2906 1113 2906 1747 
Q 2906 2381 2643 2742 
Q 2381 3103 1925 3103 
Q 1469 3103 1208 2742 
Q 947 2381 947 1747 
z
" id="DejaVuSans-64" transform="scale(0.015625)"/>
      <path d="M 2906 1791 
Q 2906 2416 2648 2759 
Q 2391 3103 1925 3103 
Q 1463 3103 1205 2759 
Q 947 2416 947 1791 
Q 947 1169 1205 825 
Q 1463 481 1925 481 
Q 2391 481 2648 825 
Q 2906 1169 2906 1791 
z
M 3481 434 
Q 3481 -459 3084 -895 
Q 2688 -1331 1869 -1331 
Q 1566 -1331 1297 -1286 
Q 1028 -1241 775 -1147 
L 775 -588 
Q 1028 -725 1275 -790 
Q 1522 -856 1778 -856 
Q 2344 -856 2625 -561 
Q 2906 -266 2906 331 
L 2906 616 
Q 2728 306 2450 153 
Q 2172 0 1784 0 
Q 1141 0 747 490 
Q 353 981 353 1791 
Q 353 2603 747 3093 
Q 1141 3584 1784 3584 
Q 2172 3584 2450 3431 
Q 2728 3278 2906 2969 
L 2906 3500 
L 3481 3500 
L 3481 434 
z
" id="DejaVuSans-67" transform="scale(0.015625)"/>
     </defs>
     <use xlink:href="#DejaVuSans-41"/>
     <use x="66.658203" xlink:href="#DejaVuSans-2e"/>
     <use x="98.445312" xlink:href="#DejaVuSans-20"/>
     <use x="130.232422" xlink:href="#DejaVuSans-46"/>
     <use x="180.501953" xlink:href="#DejaVuSans-69"/>
     <use x="208.285156" xlink:href="#DejaVuSans-6c"/>
     <use x="236.068359" xlink:href="#DejaVuSans-65"/>
     <use x="297.591797" xlink:href="#DejaVuSans-20"/>
     <use x="329.378906" xlink:href="#DejaVuSans-63"/>
     <use x="384.359375" xlink:href="#DejaVuSans-6f"/>
     <use x="445.541016" xlink:href="#DejaVuSans-75"/>
     <use x="508.919922" xlink:href="#DejaVuSans-6e"/>
     <use x="572.298828" xlink:href="#DejaVuSans-74"/>
     <use x="611.507812" xlink:href="#DejaVuSans-20"/>
     <use x="643.294922" xlink:href="#DejaVuSans-62"/>
     <use x="706.771484" xlink:href="#DejaVuSans-79"/>
     <use x="765.951172" xlink:href="#DejaVuSans-20"/>
     <use x="797.738281" xlink:href="#DejaVuSans-79"/>
     <use x="856.917969" xlink:href="#DejaVuSans-65"/>
     <use x="918.441406" xlink:href="#DejaVuSans-61"/>
     <use x="979.720703" xlink:href="#DejaVuSans-72"/>
     <use x="1020.833984" xlink:href="#DejaVuSans-20"/>
     <use x="1052.621094" xlink:href="#DejaVuSans-6f"/>
     <use x="1113.802734" xlink:href="#DejaVuSans-66"/>
     <use x="1149.007812" xlink:href="#DejaVuSans-20"/>
     <use x="1180.794922" xlink:href="#DejaVuSans-72"/>
     <use x="1219.658203" xlink:href="#DejaVuSans-65"/>
     <use x="1281.181641" xlink:href="#DejaVuSans-63"/>
     <use x="1336.162109" xlink:href="#DejaVuSans-6f"/>
     <use x="1397.34375" xlink:href="#DejaVuSans-72"/>
     <use x="1436.707031" xlink:href="#DejaVuSans-64"/>
     <use x="1500.183594" xlink:href="#DejaVuSans-69"/>
     <use x="1527.966797" xlink:href="#DejaVuSans-6e"/>
     <use x="1591.345703" xlink:href="#DejaVuSans-67"/>
    </g>
    <!--  -->
    <g transform="translate(48.90125 75.612199)scale(0.15 -0.15)"/>
   </g>
  </g>
  <g id="axes_2">
   <g id="patch_6">
    <path d="M 48.90125 688.907645 
L 275.123058 688.907645 
L 275.123058 275.457663 
L 48.90125 275.457663 
z
" style="fill:#ffffff;"/>
   </g>
   <g id="patch_7">
    <path clip-path="url(#pb5c433153c)" d="M 59.184059 688.907645 
L 264.840249 688.907645 
L 264.840249 400.870296 
L 59.184059 400.870296 
z
" style="fill:#e5f5ac;stroke:#ffffff;stroke-linejoin:miter;stroke-width:0.5;"/>
   </g>
   <g id="patch_8">
    <path clip-path="url(#pb5c433153c)" d="M 59.184059 400.870296 
L 264.840249 400.870296 
L 264.840249 344.6563 
L 59.184059 344.6563 
z
" style="fill:#c8e99b;stroke:#ffffff;stroke-linejoin:miter;stroke-width:0.5;"/>
   </g>
   <g id="patch_9">
    <path clip-path="url(#pb5c433153c)" d="M 59.184059 344.6563 
L 264.840249 344.6563 
L 264.840249 309.34441 
L 59.184059 309.34441 
z
" style="fill:#a2d88a;stroke:#ffffff;stroke-linejoin:miter;stroke-width:0.5;"/>
   </g>
   <g id="patch_10">
    <path clip-path="url(#pb5c433153c)" d="M 59.184059 309.34441 
L 264.840249 309.34441 
L 264.840249 292.242687 
L 59.184059 292.242687 
z
" style="fill:#77c679;stroke:#ffffff;stroke-linejoin:miter;stroke-width:0.5;"/>
   </g>
   <g id="patch_11">
    <path clip-path="url(#pb5c433153c)" d="M 59.184059 292.242687 
L 264.840249 292.242687 
L 264.840249 276.566108 
L 59.184059 276.566108 
z
" style="fill:#4cb063;stroke:#ffffff;stroke-linejoin:miter;stroke-width:0.5;"/>
   </g>
   <g id="patch_12">
    <path clip-path="url(#pb5c433153c)" d="M 59.184059 276.566108 
L 264.840249 276.566108 
L 264.840249 275.774362 
L 59.184059 275.774362 
z
" style="fill:#2f934d;stroke:#ffffff;stroke-linejoin:miter;stroke-width:0.5;"/>
   </g>
   <g id="patch_13">
    <path clip-path="url(#pb5c433153c)" d="M 59.184059 275.774362 
L 264.840249 275.774362 
L 264.840249 275.457663 
L 59.184059 275.457663 
z
" style="fill:#15793e;stroke:#ffffff;stroke-linejoin:miter;stroke-width:0.5;"/>
   </g>
   <g id="matplotlib.axis_3">
    <g id="ytick_6">
     <g id="line2d_23">
      <g>
       <use style="stroke:#000000;stroke-width:0.8;" x="48.90125" xlink:href="#m189839e545" y="688.907645"/>
      </g>
     </g>
     <g id="text_15">
      <!-- 0 -->
      <g transform="translate(35.53875 692.706864)scale(0.1 -0.1)">
       <use xlink:href="#DejaVuSans-30"/>
      </g>
     </g>
    </g>
    <g id="ytick_7">
     <g id="line2d_24">
      <g>
       <use style="stroke:#000000;stroke-width:0.8;" x="48.90125" xlink:href="#m189839e545" y="606.217649"/>
      </g>
     </g>
     <g id="text_16">
      <!-- 20 -->
      <g transform="translate(29.17625 610.016867)scale(0.1 -0.1)">
       <use xlink:href="#DejaVuSans-32"/>
       <use x="63.623047" xlink:href="#DejaVuSans-30"/>
      </g>
     </g>
    </g>
    <g id="ytick_8">
     <g id="line2d_25">
      <g>
       <use style="stroke:#000000;stroke-width:0.8;" x="48.90125" xlink:href="#m189839e545" y="523.527652"/>
      </g>
     </g>
     <g id="text_17">
      <!-- 40 -->
      <g transform="translate(29.17625 527.326871)scale(0.1 -0.1)">
       <use xlink:href="#DejaVuSans-34"/>
       <use x="63.623047" xlink:href="#DejaVuSans-30"/>
      </g>
     </g>
    </g>
    <g id="ytick_9">
     <g id="line2d_26">
      <g>
       <use style="stroke:#000000;stroke-width:0.8;" x="48.90125" xlink:href="#m189839e545" y="440.837656"/>
      </g>
     </g>
     <g id="text_18">
      <!-- 60 -->
      <g transform="translate(29.17625 444.636875)scale(0.1 -0.1)">
       <use xlink:href="#DejaVuSans-36"/>
       <use x="63.623047" xlink:href="#DejaVuSans-30"/>
      </g>
     </g>
    </g>
    <g id="ytick_10">
     <g id="line2d_27">
      <g>
       <use style="stroke:#000000;stroke-width:0.8;" x="48.90125" xlink:href="#m189839e545" y="358.147659"/>
      </g>
     </g>
     <g id="text_19">
      <!-- 80 -->
      <g transform="translate(29.17625 361.946878)scale(0.1 -0.1)">
       <use xlink:href="#DejaVuSans-38"/>
       <use x="63.623047" xlink:href="#DejaVuSans-30"/>
      </g>
     </g>
    </g>
    <g id="ytick_11">
     <g id="line2d_28">
      <g>
       <use style="stroke:#000000;stroke-width:0.8;" x="48.90125" xlink:href="#m189839e545" y="275.457663"/>
      </g>
     </g>
     <g id="text_20">
      <!-- 100 -->
      <g transform="translate(22.81375 279.256882)scale(0.1 -0.1)">
       <use xlink:href="#DejaVuSans-31"/>
       <use x="63.623047" xlink:href="#DejaVuSans-30"/>
       <use x="127.246094" xlink:href="#DejaVuSans-30"/>
      </g>
     </g>
    </g>
    <g id="text_21">
     <!-- Percentage total, % -->
     <g transform="translate(16.318125 541.070779)rotate(-90)scale(0.12 -0.12)">
      <defs>
       <path d="M 1259 4147 
L 1259 2394 
L 2053 2394 
Q 2494 2394 2734 2622 
Q 2975 2850 2975 3272 
Q 2975 3691 2734 3919 
Q 2494 4147 2053 4147 
L 1259 4147 
z
M 628 4666 
L 2053 4666 
Q 2838 4666 3239 4311 
Q 3641 3956 3641 3272 
Q 3641 2581 3239 2228 
Q 2838 1875 2053 1875 
L 1259 1875 
L 1259 0 
L 628 0 
L 628 4666 
z
" id="DejaVuSans-50" transform="scale(0.015625)"/>
       <path d="M 750 794 
L 1409 794 
L 1409 256 
L 897 -744 
L 494 -744 
L 750 256 
L 750 794 
z
" id="DejaVuSans-2c" transform="scale(0.015625)"/>
       <path d="M 4653 2053 
Q 4381 2053 4226 1822 
Q 4072 1591 4072 1178 
Q 4072 772 4226 539 
Q 4381 306 4653 306 
Q 4919 306 5073 539 
Q 5228 772 5228 1178 
Q 5228 1588 5073 1820 
Q 4919 2053 4653 2053 
z
M 4653 2450 
Q 5147 2450 5437 2106 
Q 5728 1763 5728 1178 
Q 5728 594 5436 251 
Q 5144 -91 4653 -91 
Q 4153 -91 3862 251 
Q 3572 594 3572 1178 
Q 3572 1766 3864 2108 
Q 4156 2450 4653 2450 
z
M 1428 4353 
Q 1159 4353 1004 4120 
Q 850 3888 850 3481 
Q 850 3069 1003 2837 
Q 1156 2606 1428 2606 
Q 1700 2606 1854 2837 
Q 2009 3069 2009 3481 
Q 2009 3884 1853 4118 
Q 1697 4353 1428 4353 
z
M 4250 4750 
L 4750 4750 
L 1831 -91 
L 1331 -91 
L 4250 4750 
z
M 1428 4750 
Q 1922 4750 2215 4408 
Q 2509 4066 2509 3481 
Q 2509 2891 2217 2550 
Q 1925 2209 1428 2209 
Q 931 2209 642 2551 
Q 353 2894 353 3481 
Q 353 4063 643 4406 
Q 934 4750 1428 4750 
z
" id="DejaVuSans-25" transform="scale(0.015625)"/>
      </defs>
      <use xlink:href="#DejaVuSans-50"/>
      <use x="56.677734" xlink:href="#DejaVuSans-65"/>
      <use x="118.201172" xlink:href="#DejaVuSans-72"/>
      <use x="157.064453" xlink:href="#DejaVuSans-63"/>
      <use x="212.044922" xlink:href="#DejaVuSans-65"/>
      <use x="273.568359" xlink:href="#DejaVuSans-6e"/>
      <use x="336.947266" xlink:href="#DejaVuSans-74"/>
      <use x="376.15625" xlink:href="#DejaVuSans-61"/>
      <use x="437.435547" xlink:href="#DejaVuSans-67"/>
      <use x="500.912109" xlink:href="#DejaVuSans-65"/>
      <use x="562.435547" xlink:href="#DejaVuSans-20"/>
      <use x="594.222656" xlink:href="#DejaVuSans-74"/>
      <use x="633.431641" xlink:href="#DejaVuSans-6f"/>
      <use x="694.613281" xlink:href="#DejaVuSans-74"/>
      <use x="733.822266" xlink:href="#DejaVuSans-61"/>
      <use x="795.101562" xlink:href="#DejaVuSans-6c"/>
      <use x="822.884766" xlink:href="#DejaVuSans-2c"/>
      <use x="854.671875" xlink:href="#DejaVuSans-20"/>
      <use x="886.458984" xlink:href="#DejaVuSans-25"/>
     </g>
    </g>
   </g>
   <g id="patch_14">
    <path d="M 48.90125 688.907645 
L 48.90125 275.457663 
" style="fill:none;stroke:#000000;stroke-linecap:square;stroke-linejoin:miter;stroke-width:0.8;"/>
   </g>
   <g id="text_22">
    <!-- CHI + OTHERS + MOT (1819) -->
    <g transform="translate(88.47231 547.648346)scale(0.1 -0.1)">
     <defs>
      <path d="M 4122 4306 
L 4122 3641 
Q 3803 3938 3442 4084 
Q 3081 4231 2675 4231 
Q 1875 4231 1450 3742 
Q 1025 3253 1025 2328 
Q 1025 1406 1450 917 
Q 1875 428 2675 428 
Q 3081 428 3442 575 
Q 3803 722 4122 1019 
L 4122 359 
Q 3791 134 3420 21 
Q 3050 -91 2638 -91 
Q 1578 -91 968 557 
Q 359 1206 359 2328 
Q 359 3453 968 4101 
Q 1578 4750 2638 4750 
Q 3056 4750 3426 4639 
Q 3797 4528 4122 4306 
z
" id="DejaVuSans-43" transform="scale(0.015625)"/>
      <path d="M 628 4666 
L 1259 4666 
L 1259 2753 
L 3553 2753 
L 3553 4666 
L 4184 4666 
L 4184 0 
L 3553 0 
L 3553 2222 
L 1259 2222 
L 1259 0 
L 628 0 
L 628 4666 
z
" id="DejaVuSans-48" transform="scale(0.015625)"/>
      <path d="M 628 4666 
L 1259 4666 
L 1259 0 
L 628 0 
L 628 4666 
z
" id="DejaVuSans-49" transform="scale(0.015625)"/>
      <path d="M 2944 4013 
L 2944 2272 
L 4684 2272 
L 4684 1741 
L 2944 1741 
L 2944 0 
L 2419 0 
L 2419 1741 
L 678 1741 
L 678 2272 
L 2419 2272 
L 2419 4013 
L 2944 4013 
z
" id="DejaVuSans-2b" transform="scale(0.015625)"/>
      <path d="M 2522 4238 
Q 1834 4238 1429 3725 
Q 1025 3213 1025 2328 
Q 1025 1447 1429 934 
Q 1834 422 2522 422 
Q 3209 422 3611 934 
Q 4013 1447 4013 2328 
Q 4013 3213 3611 3725 
Q 3209 4238 2522 4238 
z
M 2522 4750 
Q 3503 4750 4090 4092 
Q 4678 3434 4678 2328 
Q 4678 1225 4090 567 
Q 3503 -91 2522 -91 
Q 1538 -91 948 565 
Q 359 1222 359 2328 
Q 359 3434 948 4092 
Q 1538 4750 2522 4750 
z
" id="DejaVuSans-4f" transform="scale(0.015625)"/>
      <path d="M -19 4666 
L 3928 4666 
L 3928 4134 
L 2272 4134 
L 2272 0 
L 1638 0 
L 1638 4134 
L -19 4134 
L -19 4666 
z
" id="DejaVuSans-54" transform="scale(0.015625)"/>
      <path d="M 628 4666 
L 3578 4666 
L 3578 4134 
L 1259 4134 
L 1259 2753 
L 3481 2753 
L 3481 2222 
L 1259 2222 
L 1259 531 
L 3634 531 
L 3634 0 
L 628 0 
L 628 4666 
z
" id="DejaVuSans-45" transform="scale(0.015625)"/>
      <path d="M 2841 2188 
Q 3044 2119 3236 1894 
Q 3428 1669 3622 1275 
L 4263 0 
L 3584 0 
L 2988 1197 
Q 2756 1666 2539 1819 
Q 2322 1972 1947 1972 
L 1259 1972 
L 1259 0 
L 628 0 
L 628 4666 
L 2053 4666 
Q 2853 4666 3247 4331 
Q 3641 3997 3641 3322 
Q 3641 2881 3436 2590 
Q 3231 2300 2841 2188 
z
M 1259 4147 
L 1259 2491 
L 2053 2491 
Q 2509 2491 2742 2702 
Q 2975 2913 2975 3322 
Q 2975 3731 2742 3939 
Q 2509 4147 2053 4147 
L 1259 4147 
z
" id="DejaVuSans-52" transform="scale(0.015625)"/>
      <path d="M 3425 4513 
L 3425 3897 
Q 3066 4069 2747 4153 
Q 2428 4238 2131 4238 
Q 1616 4238 1336 4038 
Q 1056 3838 1056 3469 
Q 1056 3159 1242 3001 
Q 1428 2844 1947 2747 
L 2328 2669 
Q 3034 2534 3370 2195 
Q 3706 1856 3706 1288 
Q 3706 609 3251 259 
Q 2797 -91 1919 -91 
Q 1588 -91 1214 -16 
Q 841 59 441 206 
L 441 856 
Q 825 641 1194 531 
Q 1563 422 1919 422 
Q 2459 422 2753 634 
Q 3047 847 3047 1241 
Q 3047 1584 2836 1778 
Q 2625 1972 2144 2069 
L 1759 2144 
Q 1053 2284 737 2584 
Q 422 2884 422 3419 
Q 422 4038 858 4394 
Q 1294 4750 2059 4750 
Q 2388 4750 2728 4690 
Q 3069 4631 3425 4513 
z
" id="DejaVuSans-53" transform="scale(0.015625)"/>
      <path d="M 628 4666 
L 1569 4666 
L 2759 1491 
L 3956 4666 
L 4897 4666 
L 4897 0 
L 4281 0 
L 4281 4097 
L 3078 897 
L 2444 897 
L 1241 4097 
L 1241 0 
L 628 0 
L 628 4666 
z
" id="DejaVuSans-4d" transform="scale(0.015625)"/>
      <path d="M 1984 4856 
Q 1566 4138 1362 3434 
Q 1159 2731 1159 2009 
Q 1159 1288 1364 580 
Q 1569 -128 1984 -844 
L 1484 -844 
Q 1016 -109 783 600 
Q 550 1309 550 2009 
Q 550 2706 781 3412 
Q 1013 4119 1484 4856 
L 1984 4856 
z
" id="DejaVuSans-28" transform="scale(0.015625)"/>
      <path d="M 513 4856 
L 1013 4856 
Q 1481 4119 1714 3412 
Q 1947 2706 1947 2009 
Q 1947 1309 1714 600 
Q 1481 -109 1013 -844 
L 513 -844 
Q 928 -128 1133 580 
Q 1338 1288 1338 2009 
Q 1338 2731 1133 3434 
Q 928 4138 513 4856 
z
" id="DejaVuSans-29" transform="scale(0.015625)"/>
     </defs>
     <use xlink:href="#DejaVuSans-43"/>
     <use x="69.824219" xlink:href="#DejaVuSans-48"/>
     <use x="145.019531" xlink:href="#DejaVuSans-49"/>
     <use x="174.511719" xlink:href="#DejaVuSans-20"/>
     <use x="206.298828" xlink:href="#DejaVuSans-2b"/>
     <use x="290.087891" xlink:href="#DejaVuSans-20"/>
     <use x="321.875" xlink:href="#DejaVuSans-4f"/>
     <use x="400.585938" xlink:href="#DejaVuSans-54"/>
     <use x="461.669922" xlink:href="#DejaVuSans-48"/>
     <use x="536.865234" xlink:href="#DejaVuSans-45"/>
     <use x="600.048828" xlink:href="#DejaVuSans-52"/>
     <use x="669.53125" xlink:href="#DejaVuSans-53"/>
     <use x="733.007812" xlink:href="#DejaVuSans-20"/>
     <use x="764.794922" xlink:href="#DejaVuSans-2b"/>
     <use x="848.583984" xlink:href="#DejaVuSans-20"/>
     <use x="880.371094" xlink:href="#DejaVuSans-4d"/>
     <use x="966.650391" xlink:href="#DejaVuSans-4f"/>
     <use x="1045.361328" xlink:href="#DejaVuSans-54"/>
     <use x="1106.445312" xlink:href="#DejaVuSans-20"/>
     <use x="1138.232422" xlink:href="#DejaVuSans-28"/>
     <use x="1177.246094" xlink:href="#DejaVuSans-31"/>
     <use x="1240.869141" xlink:href="#DejaVuSans-38"/>
     <use x="1304.492188" xlink:href="#DejaVuSans-31"/>
     <use x="1368.115234" xlink:href="#DejaVuSans-39"/>
     <use x="1431.738281" xlink:href="#DejaVuSans-29"/>
    </g>
   </g>
   <g id="text_23">
    <!-- CHI + MOT (355) -->
    <g transform="translate(119.579341 375.522673)scale(0.1 -0.1)">
     <use xlink:href="#DejaVuSans-43"/>
     <use x="69.824219" xlink:href="#DejaVuSans-48"/>
     <use x="145.019531" xlink:href="#DejaVuSans-49"/>
     <use x="174.511719" xlink:href="#DejaVuSans-20"/>
     <use x="206.298828" xlink:href="#DejaVuSans-2b"/>
     <use x="290.087891" xlink:href="#DejaVuSans-20"/>
     <use x="321.875" xlink:href="#DejaVuSans-4d"/>
     <use x="408.154297" xlink:href="#DejaVuSans-4f"/>
     <use x="486.865234" xlink:href="#DejaVuSans-54"/>
     <use x="547.949219" xlink:href="#DejaVuSans-20"/>
     <use x="579.736328" xlink:href="#DejaVuSans-28"/>
     <use x="618.75" xlink:href="#DejaVuSans-33"/>
     <use x="682.373047" xlink:href="#DejaVuSans-35"/>
     <use x="745.996094" xlink:href="#DejaVuSans-35"/>
     <use x="809.619141" xlink:href="#DejaVuSans-29"/>
    </g>
   </g>
   <g id="text_24">
    <!-- CHI + OTHERS (223) -->
    <g transform="translate(110.325435 329.75973)scale(0.1 -0.1)">
     <use xlink:href="#DejaVuSans-43"/>
     <use x="69.824219" xlink:href="#DejaVuSans-48"/>
     <use x="145.019531" xlink:href="#DejaVuSans-49"/>
     <use x="174.511719" xlink:href="#DejaVuSans-20"/>
     <use x="206.298828" xlink:href="#DejaVuSans-2b"/>
     <use x="290.087891" xlink:href="#DejaVuSans-20"/>
     <use x="321.875" xlink:href="#DejaVuSans-4f"/>
     <use x="400.585938" xlink:href="#DejaVuSans-54"/>
     <use x="461.669922" xlink:href="#DejaVuSans-48"/>
     <use x="536.865234" xlink:href="#DejaVuSans-45"/>
     <use x="600.048828" xlink:href="#DejaVuSans-52"/>
     <use x="669.53125" xlink:href="#DejaVuSans-53"/>
     <use x="733.007812" xlink:href="#DejaVuSans-20"/>
     <use x="764.794922" xlink:href="#DejaVuSans-28"/>
     <use x="803.808594" xlink:href="#DejaVuSans-32"/>
     <use x="867.431641" xlink:href="#DejaVuSans-32"/>
     <use x="931.054688" xlink:href="#DejaVuSans-33"/>
     <use x="994.677734" xlink:href="#DejaVuSans-29"/>
    </g>
   </g>
   <g id="text_25">
    <!-- UNSPECIFIED (108) -->
    <g transform="translate(113.902779 303.552924)scale(0.1 -0.1)">
     <defs>
      <path d="M 556 4666 
L 1191 4666 
L 1191 1831 
Q 1191 1081 1462 751 
Q 1734 422 2344 422 
Q 2950 422 3222 751 
Q 3494 1081 3494 1831 
L 3494 4666 
L 4128 4666 
L 4128 1753 
Q 4128 841 3676 375 
Q 3225 -91 2344 -91 
Q 1459 -91 1007 375 
Q 556 841 556 1753 
L 556 4666 
z
" id="DejaVuSans-55" transform="scale(0.015625)"/>
      <path d="M 1259 4147 
L 1259 519 
L 2022 519 
Q 2988 519 3436 956 
Q 3884 1394 3884 2338 
Q 3884 3275 3436 3711 
Q 2988 4147 2022 4147 
L 1259 4147 
z
M 628 4666 
L 1925 4666 
Q 3281 4666 3915 4102 
Q 4550 3538 4550 2338 
Q 4550 1131 3912 565 
Q 3275 0 1925 0 
L 628 0 
L 628 4666 
z
" id="DejaVuSans-44" transform="scale(0.015625)"/>
     </defs>
     <use xlink:href="#DejaVuSans-55"/>
     <use x="73.193359" xlink:href="#DejaVuSans-4e"/>
     <use x="147.998047" xlink:href="#DejaVuSans-53"/>
     <use x="211.474609" xlink:href="#DejaVuSans-50"/>
     <use x="271.777344" xlink:href="#DejaVuSans-45"/>
     <use x="334.960938" xlink:href="#DejaVuSans-43"/>
     <use x="404.785156" xlink:href="#DejaVuSans-49"/>
     <use x="434.277344" xlink:href="#DejaVuSans-46"/>
     <use x="491.796875" xlink:href="#DejaVuSans-49"/>
     <use x="521.289062" xlink:href="#DejaVuSans-45"/>
     <use x="584.472656" xlink:href="#DejaVuSans-44"/>
     <use x="661.474609" xlink:href="#DejaVuSans-20"/>
     <use x="693.261719" xlink:href="#DejaVuSans-28"/>
     <use x="732.275391" xlink:href="#DejaVuSans-31"/>
     <use x="795.898438" xlink:href="#DejaVuSans-30"/>
     <use x="859.521484" xlink:href="#DejaVuSans-38"/>
     <use x="923.144531" xlink:href="#DejaVuSans-29"/>
    </g>
   </g>
   <g id="text_26">
    <!-- OTHERS + MOT (99) -->
    <g transform="translate(110.929342 287.163773)scale(0.1 -0.1)">
     <use xlink:href="#DejaVuSans-4f"/>
     <use x="78.710938" xlink:href="#DejaVuSans-54"/>
     <use x="139.794922" xlink:href="#DejaVuSans-48"/>
     <use x="214.990234" xlink:href="#DejaVuSans-45"/>
     <use x="278.173828" xlink:href="#DejaVuSans-52"/>
     <use x="347.65625" xlink:href="#DejaVuSans-53"/>
     <use x="411.132812" xlink:href="#DejaVuSans-20"/>
     <use x="442.919922" xlink:href="#DejaVuSans-2b"/>
     <use x="526.708984" xlink:href="#DejaVuSans-20"/>
     <use x="558.496094" xlink:href="#DejaVuSans-4d"/>
     <use x="644.775391" xlink:href="#DejaVuSans-4f"/>
     <use x="723.486328" xlink:href="#DejaVuSans-54"/>
     <use x="784.570312" xlink:href="#DejaVuSans-20"/>
     <use x="816.357422" xlink:href="#DejaVuSans-28"/>
     <use x="855.371094" xlink:href="#DejaVuSans-39"/>
     <use x="918.994141" xlink:href="#DejaVuSans-39"/>
     <use x="982.617188" xlink:href="#DejaVuSans-29"/>
    </g>
   </g>
   <g id="text_27">
    <!-- *Categories &lt;3% not shown -->
    <g transform="translate(77.268717 710.429269)scale(0.12 -0.12)">
     <defs>
      <path d="M 3009 3897 
L 1888 3291 
L 3009 2681 
L 2828 2375 
L 1778 3009 
L 1778 1831 
L 1422 1831 
L 1422 3009 
L 372 2375 
L 191 2681 
L 1313 3291 
L 191 3897 
L 372 4206 
L 1422 3572 
L 1422 4750 
L 1778 4750 
L 1778 3572 
L 2828 4206 
L 3009 3897 
z
" id="DejaVuSans-2a" transform="scale(0.015625)"/>
      <path d="M 4684 3150 
L 1459 2003 
L 4684 863 
L 4684 294 
L 678 1747 
L 678 2266 
L 4684 3719 
L 4684 3150 
z
" id="DejaVuSans-3c" transform="scale(0.015625)"/>
      <path d="M 3513 2113 
L 3513 0 
L 2938 0 
L 2938 2094 
Q 2938 2591 2744 2837 
Q 2550 3084 2163 3084 
Q 1697 3084 1428 2787 
Q 1159 2491 1159 1978 
L 1159 0 
L 581 0 
L 581 4863 
L 1159 4863 
L 1159 2956 
Q 1366 3272 1645 3428 
Q 1925 3584 2291 3584 
Q 2894 3584 3203 3211 
Q 3513 2838 3513 2113 
z
" id="DejaVuSans-68" transform="scale(0.015625)"/>
      <path d="M 269 3500 
L 844 3500 
L 1563 769 
L 2278 3500 
L 2956 3500 
L 3675 769 
L 4391 3500 
L 4966 3500 
L 4050 0 
L 3372 0 
L 2619 2869 
L 1863 0 
L 1184 0 
L 269 3500 
z
" id="DejaVuSans-77" transform="scale(0.015625)"/>
     </defs>
     <use xlink:href="#DejaVuSans-2a"/>
     <use x="50" xlink:href="#DejaVuSans-43"/>
     <use x="119.824219" xlink:href="#DejaVuSans-61"/>
     <use x="181.103516" xlink:href="#DejaVuSans-74"/>
     <use x="220.3125" xlink:href="#DejaVuSans-65"/>
     <use x="281.835938" xlink:href="#DejaVuSans-67"/>
     <use x="345.3125" xlink:href="#DejaVuSans-6f"/>
     <use x="406.494141" xlink:href="#DejaVuSans-72"/>
     <use x="447.607422" xlink:href="#DejaVuSans-69"/>
     <use x="475.390625" xlink:href="#DejaVuSans-65"/>
     <use x="536.914062" xlink:href="#DejaVuSans-73"/>
     <use x="589.013672" xlink:href="#DejaVuSans-20"/>
     <use x="620.800781" xlink:href="#DejaVuSans-3c"/>
     <use x="704.589844" xlink:href="#DejaVuSans-33"/>
     <use x="768.212891" xlink:href="#DejaVuSans-25"/>
     <use x="863.232422" xlink:href="#DejaVuSans-20"/>
     <use x="895.019531" xlink:href="#DejaVuSans-6e"/>
     <use x="958.398438" xlink:href="#DejaVuSans-6f"/>
     <use x="1019.580078" xlink:href="#DejaVuSans-74"/>
     <use x="1058.789062" xlink:href="#DejaVuSans-20"/>
     <use x="1090.576172" xlink:href="#DejaVuSans-73"/>
     <use x="1142.675781" xlink:href="#DejaVuSans-68"/>
     <use x="1206.054688" xlink:href="#DejaVuSans-6f"/>
     <use x="1267.236328" xlink:href="#DejaVuSans-77"/>
     <use x="1349.023438" xlink:href="#DejaVuSans-6e"/>
    </g>
   </g>
   <g id="text_28">
    <!--  -->
    <g transform="translate(48.90125 235.864225)scale(0.15 -0.15)"/>
    <!-- B. File count by participant roles* -->
    <g transform="translate(48.90125 252.660944)scale(0.15 -0.15)">
     <defs>
      <path d="M 1259 2228 
L 1259 519 
L 2272 519 
Q 2781 519 3026 730 
Q 3272 941 3272 1375 
Q 3272 1813 3026 2020 
Q 2781 2228 2272 2228 
L 1259 2228 
z
M 1259 4147 
L 1259 2741 
L 2194 2741 
Q 2656 2741 2882 2914 
Q 3109 3088 3109 3444 
Q 3109 3797 2882 3972 
Q 2656 4147 2194 4147 
L 1259 4147 
z
M 628 4666 
L 2241 4666 
Q 2963 4666 3353 4366 
Q 3744 4066 3744 3513 
Q 3744 3084 3544 2831 
Q 3344 2578 2956 2516 
Q 3422 2416 3680 2098 
Q 3938 1781 3938 1306 
Q 3938 681 3513 340 
Q 3088 0 2303 0 
L 628 0 
L 628 4666 
z
" id="DejaVuSans-42" transform="scale(0.015625)"/>
      <path d="M 1159 525 
L 1159 -1331 
L 581 -1331 
L 581 3500 
L 1159 3500 
L 1159 2969 
Q 1341 3281 1617 3432 
Q 1894 3584 2278 3584 
Q 2916 3584 3314 3078 
Q 3713 2572 3713 1747 
Q 3713 922 3314 415 
Q 2916 -91 2278 -91 
Q 1894 -91 1617 61 
Q 1341 213 1159 525 
z
M 3116 1747 
Q 3116 2381 2855 2742 
Q 2594 3103 2138 3103 
Q 1681 3103 1420 2742 
Q 1159 2381 1159 1747 
Q 1159 1113 1420 752 
Q 1681 391 2138 391 
Q 2594 391 2855 752 
Q 3116 1113 3116 1747 
z
" id="DejaVuSans-70" transform="scale(0.015625)"/>
     </defs>
     <use xlink:href="#DejaVuSans-42"/>
     <use x="68.603516" xlink:href="#DejaVuSans-2e"/>
     <use x="100.390625" xlink:href="#DejaVuSans-20"/>
     <use x="132.177734" xlink:href="#DejaVuSans-46"/>
     <use x="182.447266" xlink:href="#DejaVuSans-69"/>
     <use x="210.230469" xlink:href="#DejaVuSans-6c"/>
     <use x="238.013672" xlink:href="#DejaVuSans-65"/>
     <use x="299.537109" xlink:href="#DejaVuSans-20"/>
     <use x="331.324219" xlink:href="#DejaVuSans-63"/>
     <use x="386.304688" xlink:href="#DejaVuSans-6f"/>
     <use x="447.486328" xlink:href="#DejaVuSans-75"/>
     <use x="510.865234" xlink:href="#DejaVuSans-6e"/>
     <use x="574.244141" xlink:href="#DejaVuSans-74"/>
     <use x="613.453125" xlink:href="#DejaVuSans-20"/>
     <use x="645.240234" xlink:href="#DejaVuSans-62"/>
     <use x="708.716797" xlink:href="#DejaVuSans-79"/>
     <use x="767.896484" xlink:href="#DejaVuSans-20"/>
     <use x="799.683594" xlink:href="#DejaVuSans-70"/>
     <use x="863.160156" xlink:href="#DejaVuSans-61"/>
     <use x="924.439453" xlink:href="#DejaVuSans-72"/>
     <use x="965.552734" xlink:href="#DejaVuSans-74"/>
     <use x="1004.761719" xlink:href="#DejaVuSans-69"/>
     <use x="1032.544922" xlink:href="#DejaVuSans-63"/>
     <use x="1087.525391" xlink:href="#DejaVuSans-69"/>
     <use x="1115.308594" xlink:href="#DejaVuSans-70"/>
     <use x="1178.785156" xlink:href="#DejaVuSans-61"/>
     <use x="1240.064453" xlink:href="#DejaVuSans-6e"/>
     <use x="1303.443359" xlink:href="#DejaVuSans-74"/>
     <use x="1342.652344" xlink:href="#DejaVuSans-20"/>
     <use x="1374.439453" xlink:href="#DejaVuSans-72"/>
     <use x="1413.302734" xlink:href="#DejaVuSans-6f"/>
     <use x="1474.484375" xlink:href="#DejaVuSans-6c"/>
     <use x="1502.267578" xlink:href="#DejaVuSans-65"/>
     <use x="1563.791016" xlink:href="#DejaVuSans-73"/>
     <use x="1615.890625" xlink:href="#DejaVuSans-2a"/>
    </g>
    <!--  -->
    <g transform="translate(48.90125 269.457663)scale(0.15 -0.15)"/>
   </g>
  </g>
  <g id="axes_3">
   <g id="patch_15">
    <path d="M 373.915245 688.907645 
L 713.247957 688.907645 
L 713.247957 275.457663 
L 373.915245 275.457663 
z
" style="fill:#e6e6e6;"/>
   </g>
   <g id="matplotlib.axis_4">
    <g id="xtick_7">
     <g id="line2d_29">
      <path clip-path="url(#p28355e770f)" d="M 373.915245 688.907645 
L 373.915245 275.457663 
" style="fill:none;stroke:#ffffff;stroke-linecap:square;stroke-width:0.8;"/>
     </g>
     <g id="line2d_30">
      <g>
       <use style="stroke:#000000;stroke-width:0.8;" x="373.915245" xlink:href="#mf1246a2800" y="688.907645"/>
      </g>
     </g>
     <g id="text_29">
      <!-- 0.0 -->
      <g transform="translate(365.963683 703.506082)scale(0.1 -0.1)">
       <use xlink:href="#DejaVuSans-30"/>
       <use x="63.623047" xlink:href="#DejaVuSans-2e"/>
       <use x="95.410156" xlink:href="#DejaVuSans-30"/>
      </g>
     </g>
    </g>
    <g id="xtick_8">
     <g id="line2d_31">
      <path clip-path="url(#p28355e770f)" d="M 416.331834 688.907645 
L 416.331834 275.457663 
" style="fill:none;stroke:#ffffff;stroke-linecap:square;stroke-width:0.8;"/>
     </g>
     <g id="line2d_32">
      <g>
       <use style="stroke:#000000;stroke-width:0.8;" x="416.331834" xlink:href="#mf1246a2800" y="688.907645"/>
      </g>
     </g>
     <g id="text_30">
      <!-- 0.2 -->
      <g transform="translate(408.380272 703.506082)scale(0.1 -0.1)">
       <use xlink:href="#DejaVuSans-30"/>
       <use x="63.623047" xlink:href="#DejaVuSans-2e"/>
       <use x="95.410156" xlink:href="#DejaVuSans-32"/>
      </g>
     </g>
    </g>
    <g id="xtick_9">
     <g id="line2d_33">
      <path clip-path="url(#p28355e770f)" d="M 458.748423 688.907645 
L 458.748423 275.457663 
" style="fill:none;stroke:#ffffff;stroke-linecap:square;stroke-width:0.8;"/>
     </g>
     <g id="line2d_34">
      <g>
       <use style="stroke:#000000;stroke-width:0.8;" x="458.748423" xlink:href="#mf1246a2800" y="688.907645"/>
      </g>
     </g>
     <g id="text_31">
      <!-- 0.4 -->
      <g transform="translate(450.796861 703.506082)scale(0.1 -0.1)">
       <use xlink:href="#DejaVuSans-30"/>
       <use x="63.623047" xlink:href="#DejaVuSans-2e"/>
       <use x="95.410156" xlink:href="#DejaVuSans-34"/>
      </g>
     </g>
    </g>
    <g id="xtick_10">
     <g id="line2d_35">
      <path clip-path="url(#p28355e770f)" d="M 501.165012 688.907645 
L 501.165012 275.457663 
" style="fill:none;stroke:#ffffff;stroke-linecap:square;stroke-width:0.8;"/>
     </g>
     <g id="line2d_36">
      <g>
       <use style="stroke:#000000;stroke-width:0.8;" x="501.165012" xlink:href="#mf1246a2800" y="688.907645"/>
      </g>
     </g>
     <g id="text_32">
      <!-- 0.6 -->
      <g transform="translate(493.21345 703.506082)scale(0.1 -0.1)">
       <use xlink:href="#DejaVuSans-30"/>
       <use x="63.623047" xlink:href="#DejaVuSans-2e"/>
       <use x="95.410156" xlink:href="#DejaVuSans-36"/>
      </g>
     </g>
    </g>
    <g id="xtick_11">
     <g id="line2d_37">
      <path clip-path="url(#p28355e770f)" d="M 543.581601 688.907645 
L 543.581601 275.457663 
" style="fill:none;stroke:#ffffff;stroke-linecap:square;stroke-width:0.8;"/>
     </g>
     <g id="line2d_38">
      <g>
       <use style="stroke:#000000;stroke-width:0.8;" x="543.581601" xlink:href="#mf1246a2800" y="688.907645"/>
      </g>
     </g>
     <g id="text_33">
      <!-- 0.8 -->
      <g transform="translate(535.630039 703.506082)scale(0.1 -0.1)">
       <use xlink:href="#DejaVuSans-30"/>
       <use x="63.623047" xlink:href="#DejaVuSans-2e"/>
       <use x="95.410156" xlink:href="#DejaVuSans-38"/>
      </g>
     </g>
    </g>
    <g id="xtick_12">
     <g id="line2d_39">
      <path clip-path="url(#p28355e770f)" d="M 585.99819 688.907645 
L 585.99819 275.457663 
" style="fill:none;stroke:#ffffff;stroke-linecap:square;stroke-width:0.8;"/>
     </g>
     <g id="line2d_40">
      <g>
       <use style="stroke:#000000;stroke-width:0.8;" x="585.99819" xlink:href="#mf1246a2800" y="688.907645"/>
      </g>
     </g>
     <g id="text_34">
      <!-- 1.0 -->
      <g transform="translate(578.046628 703.506082)scale(0.1 -0.1)">
       <use xlink:href="#DejaVuSans-31"/>
       <use x="63.623047" xlink:href="#DejaVuSans-2e"/>
       <use x="95.410156" xlink:href="#DejaVuSans-30"/>
      </g>
     </g>
    </g>
    <g id="xtick_13">
     <g id="line2d_41">
      <path clip-path="url(#p28355e770f)" d="M 628.414779 688.907645 
L 628.414779 275.457663 
" style="fill:none;stroke:#ffffff;stroke-linecap:square;stroke-width:0.8;"/>
     </g>
     <g id="line2d_42">
      <g>
       <use style="stroke:#000000;stroke-width:0.8;" x="628.414779" xlink:href="#mf1246a2800" y="688.907645"/>
      </g>
     </g>
     <g id="text_35">
      <!-- 1.2 -->
      <g transform="translate(620.463217 703.506082)scale(0.1 -0.1)">
       <use xlink:href="#DejaVuSans-31"/>
       <use x="63.623047" xlink:href="#DejaVuSans-2e"/>
       <use x="95.410156" xlink:href="#DejaVuSans-32"/>
      </g>
     </g>
    </g>
    <g id="xtick_14">
     <g id="line2d_43">
      <path clip-path="url(#p28355e770f)" d="M 670.831368 688.907645 
L 670.831368 275.457663 
" style="fill:none;stroke:#ffffff;stroke-linecap:square;stroke-width:0.8;"/>
     </g>
     <g id="line2d_44">
      <g>
       <use style="stroke:#000000;stroke-width:0.8;" x="670.831368" xlink:href="#mf1246a2800" y="688.907645"/>
      </g>
     </g>
     <g id="text_36">
      <!-- 1.4 -->
      <g transform="translate(662.879806 703.506082)scale(0.1 -0.1)">
       <use xlink:href="#DejaVuSans-31"/>
       <use x="63.623047" xlink:href="#DejaVuSans-2e"/>
       <use x="95.410156" xlink:href="#DejaVuSans-34"/>
      </g>
     </g>
    </g>
    <g id="xtick_15">
     <g id="line2d_45">
      <path clip-path="url(#p28355e770f)" d="M 713.247957 688.907645 
L 713.247957 275.457663 
" style="fill:none;stroke:#ffffff;stroke-linecap:square;stroke-width:0.8;"/>
     </g>
     <g id="line2d_46">
      <g>
       <use style="stroke:#000000;stroke-width:0.8;" x="713.247957" xlink:href="#mf1246a2800" y="688.907645"/>
      </g>
     </g>
     <g id="text_37">
      <!-- 1.6 -->
      <g transform="translate(705.296395 703.506082)scale(0.1 -0.1)">
       <use xlink:href="#DejaVuSans-31"/>
       <use x="63.623047" xlink:href="#DejaVuSans-2e"/>
       <use x="95.410156" xlink:href="#DejaVuSans-36"/>
      </g>
     </g>
    </g>
    <g id="text_38">
     <!-- Token count, million -->
     <g transform="translate(483.880664 718.703895)scale(0.12 -0.12)">
      <defs>
       <path d="M 581 4863 
L 1159 4863 
L 1159 1991 
L 2875 3500 
L 3609 3500 
L 1753 1863 
L 3688 0 
L 2938 0 
L 1159 1709 
L 1159 0 
L 581 0 
L 581 4863 
z
" id="DejaVuSans-6b" transform="scale(0.015625)"/>
      </defs>
      <use xlink:href="#DejaVuSans-54"/>
      <use x="44.083984" xlink:href="#DejaVuSans-6f"/>
      <use x="105.265625" xlink:href="#DejaVuSans-6b"/>
      <use x="159.550781" xlink:href="#DejaVuSans-65"/>
      <use x="221.074219" xlink:href="#DejaVuSans-6e"/>
      <use x="284.453125" xlink:href="#DejaVuSans-20"/>
      <use x="316.240234" xlink:href="#DejaVuSans-63"/>
      <use x="371.220703" xlink:href="#DejaVuSans-6f"/>
      <use x="432.402344" xlink:href="#DejaVuSans-75"/>
      <use x="495.78125" xlink:href="#DejaVuSans-6e"/>
      <use x="559.160156" xlink:href="#DejaVuSans-74"/>
      <use x="598.369141" xlink:href="#DejaVuSans-2c"/>
      <use x="630.15625" xlink:href="#DejaVuSans-20"/>
      <use x="661.943359" xlink:href="#DejaVuSans-6d"/>
      <use x="759.355469" xlink:href="#DejaVuSans-69"/>
      <use x="787.138672" xlink:href="#DejaVuSans-6c"/>
      <use x="814.921875" xlink:href="#DejaVuSans-6c"/>
      <use x="842.705078" xlink:href="#DejaVuSans-69"/>
      <use x="870.488281" xlink:href="#DejaVuSans-6f"/>
      <use x="931.669922" xlink:href="#DejaVuSans-6e"/>
     </g>
    </g>
   </g>
   <g id="matplotlib.axis_5">
    <g id="ytick_12">
     <g id="text_39">
      <!-- Nelson -->
      <g transform="translate(332.83712 673.913683)scale(0.1 -0.1)">
       <use xlink:href="#DejaVuSans-4e"/>
       <use x="74.804688" xlink:href="#DejaVuSans-65"/>
       <use x="136.328125" xlink:href="#DejaVuSans-6c"/>
       <use x="164.111328" xlink:href="#DejaVuSans-73"/>
       <use x="216.210938" xlink:href="#DejaVuSans-6f"/>
       <use x="277.392578" xlink:href="#DejaVuSans-6e"/>
      </g>
     </g>
    </g>
    <g id="ytick_13">
     <g id="text_40">
      <!-- Hicks -->
      <g transform="translate(340.11837 642.591714)scale(0.1 -0.1)">
       <use xlink:href="#DejaVuSans-48"/>
       <use x="75.195312" xlink:href="#DejaVuSans-69"/>
       <use x="102.978516" xlink:href="#DejaVuSans-63"/>
       <use x="157.958984" xlink:href="#DejaVuSans-6b"/>
       <use x="215.869141" xlink:href="#DejaVuSans-73"/>
      </g>
     </g>
    </g>
    <g id="ytick_14">
     <g id="text_41">
      <!-- Bates -->
      <g transform="translate(338.64337 611.269746)scale(0.1 -0.1)">
       <use xlink:href="#DejaVuSans-42"/>
       <use x="68.603516" xlink:href="#DejaVuSans-61"/>
       <use x="129.882812" xlink:href="#DejaVuSans-74"/>
       <use x="169.091797" xlink:href="#DejaVuSans-65"/>
       <use x="230.615234" xlink:href="#DejaVuSans-73"/>
      </g>
     </g>
    </g>
    <g id="ytick_15">
     <g id="text_42">
      <!-- VanHouten -->
      <g transform="translate(311.996495 579.947778)scale(0.1 -0.1)">
       <defs>
        <path d="M 1831 0 
L 50 4666 
L 709 4666 
L 2188 738 
L 3669 4666 
L 4325 4666 
L 2547 0 
L 1831 0 
z
" id="DejaVuSans-56" transform="scale(0.015625)"/>
       </defs>
       <use xlink:href="#DejaVuSans-56"/>
       <use x="60.658203" xlink:href="#DejaVuSans-61"/>
       <use x="121.9375" xlink:href="#DejaVuSans-6e"/>
       <use x="185.316406" xlink:href="#DejaVuSans-48"/>
       <use x="260.511719" xlink:href="#DejaVuSans-6f"/>
       <use x="321.693359" xlink:href="#DejaVuSans-75"/>
       <use x="385.072266" xlink:href="#DejaVuSans-74"/>
       <use x="424.28125" xlink:href="#DejaVuSans-65"/>
       <use x="485.804688" xlink:href="#DejaVuSans-6e"/>
      </g>
     </g>
    </g>
    <g id="ytick_16">
     <g id="text_43">
      <!-- Bernstein -->
      <g transform="translate(319.229308 548.625809)scale(0.1 -0.1)">
       <use xlink:href="#DejaVuSans-42"/>
       <use x="68.603516" xlink:href="#DejaVuSans-65"/>
       <use x="130.126953" xlink:href="#DejaVuSans-72"/>
       <use x="169.490234" xlink:href="#DejaVuSans-6e"/>
       <use x="232.869141" xlink:href="#DejaVuSans-73"/>
       <use x="284.96875" xlink:href="#DejaVuSans-74"/>
       <use x="324.177734" xlink:href="#DejaVuSans-65"/>
       <use x="385.701172" xlink:href="#DejaVuSans-69"/>
       <use x="413.484375" xlink:href="#DejaVuSans-6e"/>
      </g>
     </g>
    </g>
    <g id="ytick_17">
     <g id="text_44">
      <!-- Demetras2 -->
      <g transform="translate(311.43712 517.303841)scale(0.1 -0.1)">
       <use xlink:href="#DejaVuSans-44"/>
       <use x="77.001953" xlink:href="#DejaVuSans-65"/>
       <use x="138.525391" xlink:href="#DejaVuSans-6d"/>
       <use x="235.9375" xlink:href="#DejaVuSans-65"/>
       <use x="297.460938" xlink:href="#DejaVuSans-74"/>
       <use x="336.669922" xlink:href="#DejaVuSans-72"/>
       <use x="377.783203" xlink:href="#DejaVuSans-61"/>
       <use x="439.0625" xlink:href="#DejaVuSans-73"/>
       <use x="491.162109" xlink:href="#DejaVuSans-32"/>
      </g>
     </g>
    </g>
    <g id="ytick_18">
     <g id="text_45">
      <!-- Post -->
      <g transform="translate(345.99962 485.981873)scale(0.1 -0.1)">
       <use xlink:href="#DejaVuSans-50"/>
       <use x="56.677734" xlink:href="#DejaVuSans-6f"/>
       <use x="117.859375" xlink:href="#DejaVuSans-73"/>
       <use x="169.958984" xlink:href="#DejaVuSans-74"/>
      </g>
     </g>
    </g>
    <g id="ytick_19">
     <g id="text_46">
      <!-- Clark -->
      <g transform="translate(341.12462 454.659904)scale(0.1 -0.1)">
       <use xlink:href="#DejaVuSans-43"/>
       <use x="69.824219" xlink:href="#DejaVuSans-6c"/>
       <use x="97.607422" xlink:href="#DejaVuSans-61"/>
       <use x="158.886719" xlink:href="#DejaVuSans-72"/>
       <use x="200" xlink:href="#DejaVuSans-6b"/>
      </g>
     </g>
    </g>
    <g id="ytick_20">
     <g id="text_47">
      <!-- Gleason -->
      <g transform="translate(326.441808 423.337936)scale(0.1 -0.1)">
       <defs>
        <path d="M 3809 666 
L 3809 1919 
L 2778 1919 
L 2778 2438 
L 4434 2438 
L 4434 434 
Q 4069 175 3628 42 
Q 3188 -91 2688 -91 
Q 1594 -91 976 548 
Q 359 1188 359 2328 
Q 359 3472 976 4111 
Q 1594 4750 2688 4750 
Q 3144 4750 3555 4637 
Q 3966 4525 4313 4306 
L 4313 3634 
Q 3963 3931 3569 4081 
Q 3175 4231 2741 4231 
Q 1884 4231 1454 3753 
Q 1025 3275 1025 2328 
Q 1025 1384 1454 906 
Q 1884 428 2741 428 
Q 3075 428 3337 486 
Q 3600 544 3809 666 
z
" id="DejaVuSans-47" transform="scale(0.015625)"/>
       </defs>
       <use xlink:href="#DejaVuSans-47"/>
       <use x="77.490234" xlink:href="#DejaVuSans-6c"/>
       <use x="105.273438" xlink:href="#DejaVuSans-65"/>
       <use x="166.796875" xlink:href="#DejaVuSans-61"/>
       <use x="228.076172" xlink:href="#DejaVuSans-73"/>
       <use x="280.175781" xlink:href="#DejaVuSans-6f"/>
       <use x="341.357422" xlink:href="#DejaVuSans-6e"/>
      </g>
     </g>
    </g>
    <g id="ytick_21">
     <g id="text_48">
      <!-- Brown -->
      <g transform="translate(335.533995 392.015968)scale(0.1 -0.1)">
       <use xlink:href="#DejaVuSans-42"/>
       <use x="68.603516" xlink:href="#DejaVuSans-72"/>
       <use x="107.466797" xlink:href="#DejaVuSans-6f"/>
       <use x="168.648438" xlink:href="#DejaVuSans-77"/>
       <use x="250.435547" xlink:href="#DejaVuSans-6e"/>
      </g>
     </g>
    </g>
    <g id="ytick_22">
     <g id="text_49">
      <!-- NewmanRatner -->
      <g transform="translate(289.523058 360.693999)scale(0.1 -0.1)">
       <use xlink:href="#DejaVuSans-4e"/>
       <use x="74.804688" xlink:href="#DejaVuSans-65"/>
       <use x="136.328125" xlink:href="#DejaVuSans-77"/>
       <use x="218.115234" xlink:href="#DejaVuSans-6d"/>
       <use x="315.527344" xlink:href="#DejaVuSans-61"/>
       <use x="376.806641" xlink:href="#DejaVuSans-6e"/>
       <use x="440.185547" xlink:href="#DejaVuSans-52"/>
       <use x="507.417969" xlink:href="#DejaVuSans-61"/>
       <use x="568.697266" xlink:href="#DejaVuSans-74"/>
       <use x="607.90625" xlink:href="#DejaVuSans-6e"/>
       <use x="671.285156" xlink:href="#DejaVuSans-65"/>
       <use x="732.808594" xlink:href="#DejaVuSans-72"/>
      </g>
     </g>
    </g>
    <g id="ytick_23">
     <g id="text_50">
      <!-- HSLLD -->
      <g transform="translate(334.202745 329.372031)scale(0.1 -0.1)">
       <defs>
        <path d="M 628 4666 
L 1259 4666 
L 1259 531 
L 3531 531 
L 3531 0 
L 628 0 
L 628 4666 
z
" id="DejaVuSans-4c" transform="scale(0.015625)"/>
       </defs>
       <use xlink:href="#DejaVuSans-48"/>
       <use x="75.195312" xlink:href="#DejaVuSans-53"/>
       <use x="138.671875" xlink:href="#DejaVuSans-4c"/>
       <use x="194.384766" xlink:href="#DejaVuSans-4c"/>
       <use x="250.097656" xlink:href="#DejaVuSans-44"/>
      </g>
     </g>
    </g>
    <g id="ytick_24">
     <g id="text_51">
      <!-- Hall -->
      <g transform="translate(347.710558 298.050063)scale(0.1 -0.1)">
       <use xlink:href="#DejaVuSans-48"/>
       <use x="75.195312" xlink:href="#DejaVuSans-61"/>
       <use x="136.474609" xlink:href="#DejaVuSans-6c"/>
       <use x="164.257812" xlink:href="#DejaVuSans-6c"/>
      </g>
     </g>
    </g>
   </g>
   <g id="LineCollection_1">
    <path clip-path="url(#p28355e770f)" d="M 373.915245 670.114464 
L 381.619795 670.114464 
" style="fill:none;stroke:#2f934d;stroke-width:1.5;"/>
    <path clip-path="url(#p28355e770f)" d="M 373.915245 638.792496 
L 382.271101 638.792496 
" style="fill:none;stroke:#2f934d;stroke-width:1.5;"/>
    <path clip-path="url(#p28355e770f)" d="M 373.915245 607.470527 
L 385.856364 607.470527 
" style="fill:none;stroke:#2f934d;stroke-width:1.5;"/>
    <path clip-path="url(#p28355e770f)" d="M 373.915245 576.148559 
L 387.463952 576.148559 
" style="fill:none;stroke:#2f934d;stroke-width:1.5;"/>
    <path clip-path="url(#p28355e770f)" d="M 373.915245 544.826591 
L 389.509917 544.826591 
" style="fill:none;stroke:#2f934d;stroke-width:1.5;"/>
    <path clip-path="url(#p28355e770f)" d="M 373.915245 513.504622 
L 394.988443 513.504622 
" style="fill:none;stroke:#2f934d;stroke-width:1.5;"/>
    <path clip-path="url(#p28355e770f)" d="M 373.915245 482.182654 
L 413.202763 482.182654 
" style="fill:none;stroke:#2f934d;stroke-width:1.5;"/>
    <path clip-path="url(#p28355e770f)" d="M 373.915245 450.860686 
L 428.780891 450.860686 
" style="fill:none;stroke:#2f934d;stroke-width:1.5;"/>
    <path clip-path="url(#p28355e770f)" d="M 373.915245 419.538717 
L 441.210436 419.538717 
" style="fill:none;stroke:#2f934d;stroke-width:1.5;"/>
    <path clip-path="url(#p28355e770f)" d="M 373.915245 388.216749 
L 560.616528 388.216749 
" style="fill:none;stroke:#2f934d;stroke-width:1.5;"/>
    <path clip-path="url(#p28355e770f)" d="M 373.915245 356.894781 
L 595.939579 356.894781 
" style="fill:none;stroke:#2f934d;stroke-width:1.5;"/>
    <path clip-path="url(#p28355e770f)" d="M 373.915245 325.572812 
L 624.834395 325.572812 
" style="fill:none;stroke:#2f934d;stroke-width:1.5;"/>
    <path clip-path="url(#p28355e770f)" d="M 373.915245 294.250844 
L 658.106392 294.250844 
" style="fill:none;stroke:#2f934d;stroke-width:1.5;"/>
   </g>
   <g id="line2d_47">
    <defs>
     <path d="M 0 3 
C 0.795609 3 1.55874 2.683901 2.12132 2.12132 
C 2.683901 1.55874 3 0.795609 3 0 
C 3 -0.795609 2.683901 -1.55874 2.12132 -2.12132 
C 1.55874 -2.683901 0.795609 -3 0 -3 
C -0.795609 -3 -1.55874 -2.683901 -2.12132 -2.12132 
C -2.683901 -1.55874 -3 -0.795609 -3 0 
C -3 0.795609 -2.683901 1.55874 -2.12132 2.12132 
C -1.55874 2.683901 -0.795609 3 0 3 
z
" id="m5b7a06e6a2" style="stroke:#2f934d;"/>
    </defs>
    <g clip-path="url(#p28355e770f)">
     <use style="fill:#2f934d;stroke:#2f934d;" x="381.619795" xlink:href="#m5b7a06e6a2" y="670.114464"/>
     <use style="fill:#2f934d;stroke:#2f934d;" x="382.271101" xlink:href="#m5b7a06e6a2" y="638.792496"/>
     <use style="fill:#2f934d;stroke:#2f934d;" x="385.856364" xlink:href="#m5b7a06e6a2" y="607.470527"/>
     <use style="fill:#2f934d;stroke:#2f934d;" x="387.463952" xlink:href="#m5b7a06e6a2" y="576.148559"/>
     <use style="fill:#2f934d;stroke:#2f934d;" x="389.509917" xlink:href="#m5b7a06e6a2" y="544.826591"/>
     <use style="fill:#2f934d;stroke:#2f934d;" x="394.988443" xlink:href="#m5b7a06e6a2" y="513.504622"/>
     <use style="fill:#2f934d;stroke:#2f934d;" x="413.202763" xlink:href="#m5b7a06e6a2" y="482.182654"/>
     <use style="fill:#2f934d;stroke:#2f934d;" x="428.780891" xlink:href="#m5b7a06e6a2" y="450.860686"/>
     <use style="fill:#2f934d;stroke:#2f934d;" x="441.210436" xlink:href="#m5b7a06e6a2" y="419.538717"/>
     <use style="fill:#2f934d;stroke:#2f934d;" x="560.616528" xlink:href="#m5b7a06e6a2" y="388.216749"/>
     <use style="fill:#2f934d;stroke:#2f934d;" x="595.939579" xlink:href="#m5b7a06e6a2" y="356.894781"/>
     <use style="fill:#2f934d;stroke:#2f934d;" x="624.834395" xlink:href="#m5b7a06e6a2" y="325.572812"/>
     <use style="fill:#2f934d;stroke:#2f934d;" x="658.106392" xlink:href="#m5b7a06e6a2" y="294.250844"/>
    </g>
   </g>
   <g id="line2d_48">
    <path clip-path="url(#p28355e770f)" d="M 373.915245 670.114464 
L 373.915245 294.250844 
" style="fill:none;stroke:#000000;stroke-linecap:square;stroke-opacity:0;stroke-width:1.5;"/>
   </g>
   <g id="patch_16">
    <path d="M 373.915245 688.907645 
L 713.247957 688.907645 
" style="fill:none;stroke:#000000;stroke-linecap:square;stroke-linejoin:miter;stroke-width:0.8;"/>
   </g>
   <g id="text_52">
    <!--  -->
    <g transform="translate(373.915245 235.864225)scale(0.15 -0.15)"/>
    <!-- C. Corpus size by token count -->
    <g transform="translate(373.915245 252.660944)scale(0.15 -0.15)">
     <defs>
      <path d="M 353 3500 
L 3084 3500 
L 3084 2975 
L 922 459 
L 3084 459 
L 3084 0 
L 275 0 
L 275 525 
L 2438 3041 
L 353 3041 
L 353 3500 
z
" id="DejaVuSans-7a" transform="scale(0.015625)"/>
     </defs>
     <use xlink:href="#DejaVuSans-43"/>
     <use x="69.824219" xlink:href="#DejaVuSans-2e"/>
     <use x="101.611328" xlink:href="#DejaVuSans-20"/>
     <use x="133.398438" xlink:href="#DejaVuSans-43"/>
     <use x="203.222656" xlink:href="#DejaVuSans-6f"/>
     <use x="264.404297" xlink:href="#DejaVuSans-72"/>
     <use x="305.517578" xlink:href="#DejaVuSans-70"/>
     <use x="368.994141" xlink:href="#DejaVuSans-75"/>
     <use x="432.373047" xlink:href="#DejaVuSans-73"/>
     <use x="484.472656" xlink:href="#DejaVuSans-20"/>
     <use x="516.259766" xlink:href="#DejaVuSans-73"/>
     <use x="568.359375" xlink:href="#DejaVuSans-69"/>
     <use x="596.142578" xlink:href="#DejaVuSans-7a"/>
     <use x="648.632812" xlink:href="#DejaVuSans-65"/>
     <use x="710.15625" xlink:href="#DejaVuSans-20"/>
     <use x="741.943359" xlink:href="#DejaVuSans-62"/>
     <use x="805.419922" xlink:href="#DejaVuSans-79"/>
     <use x="864.599609" xlink:href="#DejaVuSans-20"/>
     <use x="896.386719" xlink:href="#DejaVuSans-74"/>
     <use x="935.595703" xlink:href="#DejaVuSans-6f"/>
     <use x="996.777344" xlink:href="#DejaVuSans-6b"/>
     <use x="1051.0625" xlink:href="#DejaVuSans-65"/>
     <use x="1112.585938" xlink:href="#DejaVuSans-6e"/>
     <use x="1175.964844" xlink:href="#DejaVuSans-20"/>
     <use x="1207.751953" xlink:href="#DejaVuSans-63"/>
     <use x="1262.732422" xlink:href="#DejaVuSans-6f"/>
     <use x="1323.914062" xlink:href="#DejaVuSans-75"/>
     <use x="1387.292969" xlink:href="#DejaVuSans-6e"/>
     <use x="1450.671875" xlink:href="#DejaVuSans-74"/>
    </g>
    <!--  -->
    <g transform="translate(373.915245 269.457663)scale(0.15 -0.15)"/>
   </g>
  </g>
  <g id="text_53">
   <!-- Composition of curated data -->
   <g transform="translate(235.817573 20.877187)scale(0.18 -0.18)">
    <use xlink:href="#DejaVuSans-43"/>
    <use x="69.824219" xlink:href="#DejaVuSans-6f"/>
    <use x="131.005859" xlink:href="#DejaVuSans-6d"/>
    <use x="228.417969" xlink:href="#DejaVuSans-70"/>
    <use x="291.894531" xlink:href="#DejaVuSans-6f"/>
    <use x="353.076172" xlink:href="#DejaVuSans-73"/>
    <use x="405.175781" xlink:href="#DejaVuSans-69"/>
    <use x="432.958984" xlink:href="#DejaVuSans-74"/>
    <use x="472.167969" xlink:href="#DejaVuSans-69"/>
    <use x="499.951172" xlink:href="#DejaVuSans-6f"/>
    <use x="561.132812" xlink:href="#DejaVuSans-6e"/>
    <use x="624.511719" xlink:href="#DejaVuSans-20"/>
    <use x="656.298828" xlink:href="#DejaVuSans-6f"/>
    <use x="717.480469" xlink:href="#DejaVuSans-66"/>
    <use x="752.685547" xlink:href="#DejaVuSans-20"/>
    <use x="784.472656" xlink:href="#DejaVuSans-63"/>
    <use x="839.453125" xlink:href="#DejaVuSans-75"/>
    <use x="902.832031" xlink:href="#DejaVuSans-72"/>
    <use x="943.945312" xlink:href="#DejaVuSans-61"/>
    <use x="1005.224609" xlink:href="#DejaVuSans-74"/>
    <use x="1044.433594" xlink:href="#DejaVuSans-65"/>
    <use x="1105.957031" xlink:href="#DejaVuSans-64"/>
    <use x="1169.433594" xlink:href="#DejaVuSans-20"/>
    <use x="1201.220703" xlink:href="#DejaVuSans-64"/>
    <use x="1264.697266" xlink:href="#DejaVuSans-61"/>
    <use x="1325.976562" xlink:href="#DejaVuSans-74"/>
    <use x="1365.185547" xlink:href="#DejaVuSans-61"/>
   </g>
  </g>
 </g>
 <defs>
  <clipPath id="p3907078358">
   <rect height="103.362496" width="664.346707" x="48.90125" y="81.612199"/>
  </clipPath>
  <clipPath id="pb5c433153c">
   <rect height="413.449982" width="226.221808" x="48.90125" y="275.457663"/>
  </clipPath>
  <clipPath id="p28355e770f">
   <rect height="413.449982" width="339.332712" x="373.915245" y="275.457663"/>
  </clipPath>
 </defs>
</svg>
